<svg xmlns="http://www.w3.org/2000/svg" xmlns:xlink="http://www.w3.org/1999/xlink" width="100" height="101" viewBox="0 0 100 101">
  <defs>
    <clipPath id="clip-path">
      <path id="path2145" d="M0-682.665H77.5v74.653H0Z" transform="translate(0 682.665)" fill="none"/>
    </clipPath>
  </defs>
  <g id="Grupo_1105921" data-name="Grupo 1105921" transform="translate(-1012.5 -11375.673)">
    <ellipse id="Elipse_11687" data-name="Elipse 11687" cx="50" cy="50.5" rx="50" ry="50.5" transform="translate(1012.5 11375.673)" fill="#2a0f2b"/>
    <g id="g2139" transform="translate(1023.752 12066.181)">
      <g id="g2141" transform="translate(0 -677.169)">
        <g id="g2143" transform="translate(0 0)" clip-path="url(#clip-path)">
          <g id="g2149" transform="translate(12.881 52.699)">
            <path id="path2151" d="M0-81.949a20.526,20.526,0,0,0,7.253-2.211,37.839,37.839,0,0,0,9.268-6,14.12,14.12,0,0,1,9.314-3.676,14.12,14.12,0,0,1,9.314,3.676,37.839,37.839,0,0,0,9.268,6,20.528,20.528,0,0,0,7.253,2.211" transform="translate(0 93.841)" fill="none" stroke="#fff" stroke-linejoin="round" stroke-miterlimit="10" stroke-width="3"/>
          </g>
          <g id="g2153" transform="translate(1.514 64.59)">
            <path id="path2155" d="M-477.15-58.218h-47.736a15.333,15.333,0,0,1-13.366-8.448h74.468A15.334,15.334,0,0,1-477.15-58.218Z" transform="translate(538.252 66.667)" fill="none" stroke="#fff" stroke-linejoin="round" stroke-miterlimit="10" stroke-width="3"/>
          </g>
          <g id="g2157" transform="translate(13.017 1.69)">
            <path id="path2159" d="M-254.121,0h18.92V6.759h-51.462V0h18.92" transform="translate(286.663)" fill="none" stroke="#fff" stroke-linecap="round" stroke-linejoin="round" stroke-miterlimit="10" stroke-width="3"/>
          </g>
          <g id="g2161" transform="translate(15.287 8.448)">
            <path id="path2163" d="M0,0V4.99c0,6.043,4.388,10.941,9.8,10.941H37.12c5.413,0,9.8-4.9,9.8-10.941V0" fill="none" stroke="#fff" stroke-linejoin="round" stroke-miterlimit="10" stroke-width="3"/>
          </g>
          <g id="g2165" transform="translate(25.103 31.138)">
            <path id="path2167" d="M0,0V.5" fill="none" stroke="#fff" stroke-linecap="round" stroke-linejoin="round" stroke-miterlimit="10" stroke-width="3"/>
          </g>
          <g id="g2169" transform="translate(25.103 38.397)">
            <path id="path2171" d="M0,0V.5" fill="none" stroke="#fff" stroke-linecap="round" stroke-linejoin="round" stroke-miterlimit="10" stroke-width="3"/>
          </g>
          <g id="g2173" transform="translate(25.103 45.656)">
            <path id="path2175" d="M0,0V.5" fill="none" stroke="#fff" stroke-linecap="round" stroke-linejoin="round" stroke-miterlimit="10" stroke-width="3"/>
          </g>
          <g id="g2177" transform="translate(52.393 31.138)">
            <path id="path2179" d="M0,0V.5" fill="none" stroke="#fff" stroke-linecap="round" stroke-linejoin="round" stroke-miterlimit="10" stroke-width="3"/>
          </g>
          <g id="g2181" transform="translate(52.393 38.397)">
            <path id="path2183" d="M0,0V.5" fill="none" stroke="#fff" stroke-linecap="round" stroke-linejoin="round" stroke-miterlimit="10" stroke-width="3"/>
          </g>
          <g id="g2185" transform="translate(52.393 45.656)">
            <path id="path2187" d="M0,0V.5" fill="none" stroke="#fff" stroke-linecap="round" stroke-linejoin="round" stroke-miterlimit="10" stroke-width="3"/>
          </g>
          <g id="g2189" transform="translate(34.2 34.767)">
            <path id="path2191" d="M0,0V.5" fill="none" stroke="#fff" stroke-linecap="round" stroke-linejoin="round" stroke-miterlimit="10" stroke-width="3"/>
          </g>
          <g id="g2193" transform="translate(34.2 42.026)">
            <path id="path2195" d="M0,0V.5" fill="none" stroke="#fff" stroke-linecap="round" stroke-linejoin="round" stroke-miterlimit="10" stroke-width="3"/>
          </g>
          <g id="g2197" transform="translate(43.296 34.767)">
            <path id="path2199" d="M0,0V.5" fill="none" stroke="#fff" stroke-linecap="round" stroke-linejoin="round" stroke-miterlimit="10" stroke-width="3"/>
          </g>
          <g id="g2201" transform="translate(43.296 42.026)">
            <path id="path2203" d="M0,0V.5" fill="none" stroke="#fff" stroke-linecap="round" stroke-linejoin="round" stroke-miterlimit="10" stroke-width="3"/>
          </g>
          <g id="g2205" transform="translate(25.089 15.207)">
            <path id="path2207" d="M0-16.634v-2.414" transform="translate(0 19.048)" fill="none" stroke="#fff" stroke-linecap="round" stroke-linejoin="round" stroke-miterlimit="10" stroke-width="3"/>
          </g>
          <g id="g2209" transform="translate(52.408 15.207)">
            <path id="path2211" d="M0-16.634v-2.414" transform="translate(0 19.048)" fill="none" stroke="#fff" stroke-linecap="round" stroke-linejoin="round" stroke-miterlimit="10" stroke-width="3"/>
          </g>
          <g id="g2213" transform="translate(31.919 15.207)">
            <path id="path2215" d="M0-16.634v-2.414" transform="translate(0 19.048)" fill="none" stroke="#fff" stroke-linecap="round" stroke-linejoin="round" stroke-miterlimit="10" stroke-width="3"/>
          </g>
          <g id="g2217" transform="translate(45.578 15.207)">
            <path id="path2219" d="M0-16.634v-2.414" transform="translate(0 19.048)" fill="none" stroke="#fff" stroke-linecap="round" stroke-linejoin="round" stroke-miterlimit="10" stroke-width="3"/>
          </g>
          <g id="g2221" transform="translate(38.748 15.207)">
            <path id="path2223" d="M0-16.634v-2.414" transform="translate(0 19.048)" fill="none" stroke="#fff" stroke-linecap="round" stroke-linejoin="round" stroke-miterlimit="10" stroke-width="3"/>
          </g>
          <g id="g2225" transform="translate(37.234 0)">
            <path id="path2227" d="M-23.639-11.644a1.609,1.609,0,0,1-1.514,1.69,1.609,1.609,0,0,1-1.514-1.69,1.609,1.609,0,0,1,1.514-1.69,1.609,1.609,0,0,1,1.514,1.69" transform="translate(26.667 13.333)" fill="none"/>
          </g>
        </g>
      </g>
    </g>
  </g>
</svg>
