<svg xmlns="http://www.w3.org/2000/svg" width="100" height="101" viewBox="0 0 100 101">
  <g id="Grupo_1105920" data-name="Grupo 1105920" transform="translate(-478.711 -13575)">
    <ellipse id="Elipse_11690" data-name="Elipse 11690" cx="50" cy="50.5" rx="50" ry="50.5" transform="translate(478.711 13575)" fill="#5c4111"/>
    <g id="skin-analyzer_11277687" transform="translate(431.847 13578)">
      <path id="Trazado_998837" data-name="Trazado 998837" d="M68.864,47.711V38.4A28.4,28.4,0,0,1,97.259,10h0a28.4,28.4,0,0,1,28.4,28.4V71.815a6.069,6.069,0,0,1-6.069,6.069H74.933a6.069,6.069,0,0,1-6.069-6.069V61.537" fill="none" stroke="#fff" stroke-linecap="round" stroke-linejoin="round" stroke-miterlimit="10" stroke-width="3"/>
      <line id="Línea_4319" data-name="Línea 4319" transform="translate(68.864 54.612)" fill="none" stroke="#fff" stroke-linecap="round" stroke-linejoin="round" stroke-miterlimit="10" stroke-width="3"/>
      <line id="Línea_4320" data-name="Línea 4320" x1="55.404" transform="translate(69.557 68.399)" fill="none" stroke="#fff" stroke-linecap="round" stroke-linejoin="round" stroke-miterlimit="10" stroke-width="3"/>
      <ellipse id="Elipse_11691" data-name="Elipse 11691" cx="22.252" cy="22.613" rx="22.252" ry="22.613" transform="translate(75.007 16.823)" fill="none" stroke="#fff" stroke-linecap="round" stroke-linejoin="round" stroke-miterlimit="10" stroke-width="3"/>
      <circle id="Elipse_11692" data-name="Elipse 11692" cx="3.793" cy="3.793" r="3.793" transform="translate(93.466 35.779)" fill="none" stroke="#fff" stroke-linecap="round" stroke-linejoin="round" stroke-miterlimit="10" stroke-width="3"/>
      <path id="Trazado_998838" data-name="Trazado 998838" d="M232.069,105.964h-3.035A3.035,3.035,0,0,1,226,102.93h0a3.035,3.035,0,0,1,3.035-3.035h3.035a3.035,3.035,0,0,1,3.035,3.035h0A3.035,3.035,0,0,1,232.069,105.964Z" transform="translate(-133.293 -76.255)" fill="none" stroke="#fff" stroke-linecap="round" stroke-linejoin="round" stroke-miterlimit="10" stroke-width="3"/>
      <path id="Trazado_998839" data-name="Trazado 998839" d="M157.069,177.93v3.035A3.035,3.035,0,0,1,154.035,184h0A3.035,3.035,0,0,1,151,180.964V177.93a3.035,3.035,0,0,1,3.035-3.035h0A3.035,3.035,0,0,1,157.069,177.93Z" transform="translate(-69.673 -139.875)" fill="none" stroke="#fff" stroke-linecap="round" stroke-linejoin="round" stroke-miterlimit="10" stroke-width="3"/>
      <path id="Trazado_998840" data-name="Trazado 998840" d="M229.035,269.895h3.035a3.035,3.035,0,0,1,3.035,3.035h0a3.035,3.035,0,0,1-3.035,3.035h-3.035A3.035,3.035,0,0,1,226,272.93h0A3.035,3.035,0,0,1,229.035,269.895Z" transform="translate(-133.293 -220.46)" fill="none" stroke="#fff" stroke-linecap="round" stroke-linejoin="round" stroke-miterlimit="10" stroke-width="3"/>
      <path id="Trazado_998841" data-name="Trazado 998841" d="M321,180.964V177.93a3.035,3.035,0,0,1,3.035-3.035h0a3.035,3.035,0,0,1,3.035,3.035v3.035A3.035,3.035,0,0,1,324.035,184h0A3.035,3.035,0,0,1,321,180.964Z" transform="translate(-213.878 -139.875)" fill="none" stroke="#fff" stroke-linecap="round" stroke-linejoin="round" stroke-miterlimit="10" stroke-width="3"/>
      <g id="Grupo_1105807" data-name="Grupo 1105807" transform="translate(76.604 77.884)">
        <path id="Trazado_998842" data-name="Trazado 998842" d="M123.261,464.154h-.007a3.381,3.381,0,0,1-3.381-3.381v-3.388h6.77v3.388A3.381,3.381,0,0,1,123.261,464.154Z" transform="translate(-119.873 -457.384)" fill="none" stroke="#fff" stroke-linecap="round" stroke-linejoin="round" stroke-miterlimit="10" stroke-width="3"/>
        <path id="Trazado_998843" data-name="Trazado 998843" d="M350.9,464.154h-.007a3.381,3.381,0,0,1-3.381-3.381v-3.388h6.77v3.388A3.381,3.381,0,0,1,350.9,464.154Z" transform="translate(-312.97 -457.384)" fill="none" stroke="#fff" stroke-linecap="round" stroke-linejoin="round" stroke-miterlimit="10" stroke-width="3"/>
      </g>
    </g>
  </g>
</svg>
