<svg xmlns="http://www.w3.org/2000/svg" width="100" height="101" viewBox="0 0 100 101">
  <g id="Grupo_1105922" data-name="Grupo 1105922" transform="translate(-1170.711 -9756)">
    <ellipse id="Elipse_11685" data-name="Elipse 11685" cx="50" cy="50.5" rx="50" ry="50.5" transform="translate(1170.711 9756)" fill="#5c4111"/>
    <path id="portafilter_3715724" d="M73.953,60.5a6.368,6.368,0,0,0-5.739-1.583,11.382,11.382,0,0,0-6.04,3.262A12.755,12.755,0,0,0,61.024,63.5,9.712,9.712,0,0,0,58.4,62a11.137,11.137,0,0,0,2.675-5.409,6.387,6.387,0,0,0-1.583-5.739c-2.783-2.783-8.067-2.031-11.777,1.679a11.888,11.888,0,0,0-2.824,4.39A14.832,14.832,0,0,0,39,54.183c-.057-.011-.111-.014-.167-.025a58.4,58.4,0,0,0,3.1-18.754V33.5a3.6,3.6,0,0,0-2.673-3.472,3.592,3.592,0,0,0,.265-1.344v-1.2H44.56a3.607,3.607,0,0,0,3.39,2.408H69.62a6.019,6.019,0,0,0,0-12.039H47.95a3.607,3.607,0,0,0-3.39,2.408H39.3a3.607,3.607,0,0,0-3.39-2.408H30.4l5.16-14.446h2.764V1H4.612V3.408H7.376l5.16,14.446H7.019a3.616,3.616,0,0,0-3.612,3.612v7.223a3.592,3.592,0,0,0,.265,1.344A3.6,3.6,0,0,0,1,33.5v1.9A58.355,58.355,0,0,0,10.833,67.88l.358.536H31.74l.294-.441A17.725,17.725,0,0,0,34.459,71a14.654,14.654,0,0,0,9.908,4.64A7.405,7.405,0,0,0,48.583,74.4a11.938,11.938,0,0,0,5.386,1.238,11.613,11.613,0,0,0,6.4-1.826c.042.046.078.1.123.14a6.021,6.021,0,0,0,4.364,1.7,8.265,8.265,0,0,0,1.375-.118,12,12,0,0,0,9.3-9.3A6.387,6.387,0,0,0,73.953,60.5Zm-10.076,3.38a8.514,8.514,0,0,1,5.709-2.664,4.4,4.4,0,0,1,1.3.2,6.034,6.034,0,0,0-2.954,1.7,6.381,6.381,0,0,0-1.892,3.908,4.232,4.232,0,0,1-3.835,3.835c-.232.04-.484.088-.74.144C60.779,69,61.674,66.081,63.877,63.877Zm-4.451,2.486A6.5,6.5,0,0,0,57.5,66.09a6.385,6.385,0,0,0-4.1,1.425,4.236,4.236,0,0,1-5.425,0c-.26-.184-.549-.377-.866-.565.956-1.919,3.711-3.35,6.863-3.35a8.8,8.8,0,0,1,5.8,1.968q-.188.394-.339.795Zm-3.314-5.435c-.14.14-.288.26-.432.39a13.1,13.1,0,0,0-1.711-.125,12.777,12.777,0,0,0-1.548.1,6.459,6.459,0,0,0,1.535-3.514,4.228,4.228,0,0,1,3.832-3.832c.231-.04.482-.087.736-.142.689,2-.206,4.917-2.411,7.121Zm-6.693-6.693c2.154-2.152,4.988-3.059,6.982-2.458a6.015,6.015,0,0,0-2.925,1.691,6.378,6.378,0,0,0-1.892,3.908,4.015,4.015,0,0,1-1.223,2.612,3.656,3.656,0,0,1-1.541.979,17.9,17.9,0,0,0-1.929-2.3,9.191,9.191,0,0,1,2.528-4.428Zm-4.276,6.079a15.208,15.208,0,0,1,2.245,2.843,6.532,6.532,0,0,0-3.049,5.258c0,.011,0,.02,0,.031-.158-.138-.313-.266-.48-.435a7.249,7.249,0,0,1-2.06-3.565,10.361,10.361,0,0,0-7.217-7.216c-.136-.042-.27-.083-.4-.126a5.875,5.875,0,0,1,4.346-.565,13.373,13.373,0,0,1,6.615,3.773ZM6.567,53.97H36.352a.219.219,0,0,0-.01.03,6.909,6.909,0,0,0-4.553,1.942,7.1,7.1,0,0,0-1.967,5.251H9.686A55.883,55.883,0,0,1,6.567,53.97ZM39.523,25.077V22.669h4.815v2.408Zm7.223-3.612a1.2,1.2,0,0,1,1.2-1.2H69.62a3.612,3.612,0,0,1,0,7.223H47.95a1.2,1.2,0,0,1-1.2-1.2ZM9.931,3.408H33l-5.16,14.446H15.09ZM5.815,21.465a1.2,1.2,0,0,1,1.2-1.2H35.912a1.2,1.2,0,0,1,1.2,1.2v7.223a1.2,1.2,0,0,1-1.2,1.2H7.019a1.2,1.2,0,0,1-1.2-1.2Zm15.65,13.242a3.616,3.616,0,0,0-3.612,3.612v2.408a1.2,1.2,0,1,1-2.408,0V32.3H27.485V45.543a1.2,1.2,0,0,1-2.408,0V38.319A3.616,3.616,0,0,0,21.465,34.708ZM3.408,33.5a1.2,1.2,0,0,1,1.2-1.2h8.427v8.427a3.612,3.612,0,1,0,7.223,0V38.319a1.2,1.2,0,1,1,2.408,0v7.223a3.612,3.612,0,0,0,7.223,0V32.3h8.427a1.2,1.2,0,0,1,1.2,1.2v1.9a55.957,55.957,0,0,1-2.387,16.158H5.778A56.1,56.1,0,0,1,3.408,35.4Zm27.04,32.5H12.484c-.514-.791-1-1.6-1.472-2.408H30.139a13.413,13.413,0,0,0,.619,1.919C30.655,65.682,30.552,65.846,30.447,66.008Zm5.713,3.287a13.361,13.361,0,0,1-3.772-6.615,6.483,6.483,0,0,1,.183-3.594c.461.184.9.324,1.3.448A7.958,7.958,0,0,1,39.5,65.156a9.588,9.588,0,0,0,2.659,4.559,9.327,9.327,0,0,0,3.473,2.3,7.636,7.636,0,0,0,.77.855c-2.738,1.077-6.972-.307-10.24-3.574ZM53.97,73.231c-3.188,0-5.971-1.461-6.9-3.414a6.083,6.083,0,0,0,3.61,1.088,6.385,6.385,0,0,0,4.1-1.425A4.011,4.011,0,0,1,57.5,68.5a3.948,3.948,0,0,1,1.358.213,7.066,7.066,0,0,0,.291,3.031A9.254,9.254,0,0,1,53.97,73.231Zm16.6-2.659c-2.156,2.154-4.992,3.06-6.987,2.457a6.028,6.028,0,0,0,2.937-1.7,6.378,6.378,0,0,0,1.892-3.908,4.225,4.225,0,0,1,3.832-3.832c.231-.04.482-.087.736-.142.69,2-.2,4.915-2.41,7.121Z" transform="translate(1182.711 9768)" fill="#fff"/>
  </g>
</svg>
