<svg xmlns="http://www.w3.org/2000/svg" width="100" height="101" viewBox="0 0 100 101">
  <g id="Grupo_1105920" data-name="Grupo 1105920" transform="translate(-323.711 -9756)">
    <ellipse id="Elipse_11683" data-name="Elipse 11683" cx="50" cy="50.5" rx="50" ry="50.5" transform="translate(323.711 9756)" fill="#2a0f2b"/>
    <line id="Línea_4311" data-name="Línea 4311" y1="21.243" x2="21.243" transform="translate(363.729 9771.249)" fill="none" stroke="#fff" stroke-linecap="round" stroke-linejoin="round" stroke-miterlimit="10" stroke-width="2"/>
    <path id="Trazado_998817" data-name="Trazado 998817" d="M204.174,19.178c-2.067-2.067-9.506,1.54-15.972,8-4.992,4.992-7.421,11.086-5.271,13.237s8.246-.279,13.238-5.271C202.635,28.684,206.241,21.244,204.174,19.178Z" transform="translate(180.798 9752.071)" fill="none" stroke="#fff" stroke-linecap="round" stroke-linejoin="round" stroke-miterlimit="10" stroke-width="2"/>
    <path id="Trazado_998818" data-name="Trazado 998818" d="M237.694,16.578a4.154,4.154,0,0,0,0,5.878" transform="translate(134.629 9753.785)" fill="none" stroke="#fff" stroke-linecap="round" stroke-linejoin="round" stroke-miterlimit="10" stroke-width="2"/>
    <path id="Trazado_998819" data-name="Trazado 998819" d="M234.224,125.008a5.622,5.622,0,0,1-7.956,0" transform="translate(143.304 9661.643)" fill="none" stroke="#fff" stroke-linecap="round" stroke-linejoin="round" stroke-miterlimit="10" stroke-width="2"/>
    <path id="Trazado_998820" data-name="Trazado 998820" d="M189.838,28.033c5.191-6.317,6.3-14.494,2.507-18.283-4.134-4.134-13.488-2.442-19.954,4.023-4.992,4.992-5.59,12.919-1.29,17.219,3.834,3.834,10.551,3.773,15.5.178" transform="translate(192.628 9761.5)" fill="none" stroke="#fff" stroke-linecap="round" stroke-linejoin="round" stroke-miterlimit="10" stroke-width="2"/>
    <path id="Trazado_998821" data-name="Trazado 998821" d="M9.753,429.5a2.253,2.253,0,1,0,0,4.506H79.9a2.253,2.253,0,1,0,0-4.506Z" transform="translate(329.211 9402.888)" fill="none" stroke="#fff" stroke-linecap="round" stroke-linejoin="round" stroke-miterlimit="10" stroke-width="2"/>
    <path id="Trazado_998822" data-name="Trazado 998822" d="M98.272,239.74h29.591a4.506,4.506,0,0,0,4.506-4.506V218.883a4.561,4.561,0,0,1,1.488-3.437,2.253,2.253,0,0,0-1.488-3.945H84.753a2.253,2.253,0,0,0-1.488,3.945,4.561,4.561,0,0,1,1.488,3.437v16.351a4.506,4.506,0,0,0,4.506,4.506h4.506" transform="translate(265.477 9588.142)" fill="none" stroke="#fff" stroke-linecap="round" stroke-linejoin="round" stroke-miterlimit="10" stroke-width="2"/>
    <path id="Trazado_998823" data-name="Trazado 998823" d="M145.116,288.753a2.253,2.253,0,0,0-4.506,0v4.506a2.253,2.253,0,0,1-4.506,0v-4.506a2.253,2.253,0,0,0-2.253-2.253H117.778a2.253,2.253,0,0,0-2.253,2.253v4.506a2.253,2.253,0,0,1-4.506,0v-4.506a2.253,2.253,0,0,0-4.506,0v4.506a2.253,2.253,0,0,1-4.506,0v-4.506a2.253,2.253,0,0,0-4.506,0" transform="translate(252.729 9524.408)" fill="none" stroke="#fff" stroke-linecap="round" stroke-linejoin="round" stroke-miterlimit="10" stroke-width="2"/>
    <path id="Trazado_998824" data-name="Trazado 998824" d="M52.5,459.5a9.013,9.013,0,0,1,6.442,2.71l2.636,2.694a4.506,4.506,0,0,0,3.221,1.355h36.536a4.506,4.506,0,0,0,3.221-1.355l2.636-2.694a9.012,9.012,0,0,1,6.442-2.71" transform="translate(290.97 9377.395)" fill="none" stroke="#fff" stroke-linecap="round" stroke-linejoin="round" stroke-miterlimit="10" stroke-width="2"/>
  </g>
</svg>
