<svg xmlns="http://www.w3.org/2000/svg" width="100" height="101" viewBox="0 0 100 101">
  <g id="Grupo_1105921" data-name="Grupo 1105921" transform="translate(-751 -9755.661)">
    <ellipse id="Elipse_11684" data-name="Elipse 11684" cx="50" cy="50.5" rx="50" ry="50.5" transform="translate(751 9755.661)" fill="#2a0f2b"/>
    <g id="hidraulico" transform="translate(693.756 9769)">
      <path id="Trazado_998800" data-name="Trazado 998800" d="M83.222,237.143a1.764,1.764,0,0,0,3.142,0l2.184-4.274h0a1.764,1.764,0,0,0-1.571-2.567h-1.09v-4.678a1.094,1.094,0,1,0-2.187,0V230.3H82.61a1.764,1.764,0,0,0-1.571,2.567Zm3.064-4.654-1.493,2.922L83.3,232.489Z" transform="translate(-0.139 -191.793)" fill="#fff"/>
      <path id="Trazado_998801" data-name="Trazado 998801" d="M384.684,232.87a1.764,1.764,0,0,0-1.571-2.567h-1.09v-4.678a1.094,1.094,0,1,0-2.187,0V230.3h-1.09a1.764,1.764,0,0,0-1.571,2.567l2.184,4.274a1.764,1.764,0,0,0,3.142,0Zm-3.755,2.542-1.493-2.922h2.986Z" transform="translate(-253.096 -191.793)" fill="#fff"/>
      <path id="Trazado_998802" data-name="Trazado 998802" d="M83.223,115.578a1.764,1.764,0,0,0,3.142,0l2.184-4.274a1.764,1.764,0,0,0-1.571-2.567h-1.09V104.06a1.094,1.094,0,1,0-2.187,0v4.678H82.61a1.764,1.764,0,0,0-1.571,2.567Zm3.064-4.654-1.493,2.922L83.3,110.924Z" transform="translate(-0.139 -87.953)" fill="#fff"/>
      <path id="Trazado_998803" data-name="Trazado 998803" d="M377.24,109.581a1.752,1.752,0,0,0-.066,1.724l2.184,4.274a1.764,1.764,0,0,0,3.142,0l2.184-4.274a1.764,1.764,0,0,0-1.571-2.567h-1.09V104.06a1.094,1.094,0,0,0-2.187,0v4.678h-1.09A1.752,1.752,0,0,0,377.24,109.581Zm5.181,1.344-1.493,2.922-1.493-2.922Z" transform="translate(-253.095 -87.953)" fill="#fff"/>
      <path id="Trazado_998804" data-name="Trazado 998804" d="M127.706,63.606H116.511a4.829,4.829,0,0,0,1.418-3.292,5.081,5.081,0,0,0-1.92-3.777h4.584a2.554,2.554,0,0,0,2.551-2.551V51.363a2.554,2.554,0,0,0-2.551-2.551h-.458v-16.1a1.094,1.094,0,0,0-2.187,0v16.1h-4.321a1.094,1.094,0,1,0,0,2.187h6.965a.364.364,0,0,1,.363.364v2.623a.364.364,0,0,1-.363.364H91.9a.364.364,0,0,1-.363-.364V51.363A.364.364,0,0,1,91.9,51h16.777a1.094,1.094,0,1,0,0-2.187H94.54V24.322A1.823,1.823,0,0,1,96.361,22.5h19.766a1.823,1.823,0,0,1,1.821,1.821V27.76a1.094,1.094,0,1,0,2.187,0V24.322a4.012,4.012,0,0,0-4.008-4.008h-4.12V15.594h2.472a2.554,2.554,0,0,0,2.551-2.551v-2h4.12a4.105,4.105,0,0,0,4.1-4.1V2.6a2.6,2.6,0,0,0-2.6-2.6H100.706a1.094,1.094,0,1,0,0,2.187h21.946a.411.411,0,0,1,.41.41v4.35a1.916,1.916,0,0,1-1.914,1.914H91.339a1.916,1.916,0,0,1-1.914-1.914V2.6a.411.411,0,0,1,.41-.41h5.917a1.094,1.094,0,0,0,0-2.187H89.835a2.6,2.6,0,0,0-2.6,2.6v4.35a4.105,4.105,0,0,0,4.1,4.1h4.12v2a2.554,2.554,0,0,0,2.551,2.551h2.472v4.721h-4.12a4.012,4.012,0,0,0-4.008,4.008v24.49H91.9a2.554,2.554,0,0,0-2.551,2.551v2.623A2.554,2.554,0,0,0,91.9,56.536h4.584a5.081,5.081,0,0,0-1.92,3.777,4.829,4.829,0,0,0,1.418,3.292H84.782a4.105,4.105,0,0,0-4.1,4.1v4.35a2.6,2.6,0,0,0,2.6,2.6H129.21a2.6,2.6,0,0,0,2.6-2.6v-4.35a4.106,4.106,0,0,0-4.1-4.1ZM114.842,13.043a.364.364,0,0,1-.364.364h-4.736a.364.364,0,0,1-.363-.364v-2h5.463v2Zm-17.2,0v-2h5.463v2a.364.364,0,0,1-.363.364H98.009A.364.364,0,0,1,97.646,13.043Zm5.022,2.551h.077a2.554,2.554,0,0,0,2.551-2.551v-2h1.9v2a2.554,2.554,0,0,0,2.551,2.551h.077v4.721h-7.152V15.593ZM99.54,63.516c-1.776-.884-2.795-2.051-2.795-3.2,0-1.359,1.459-2.754,3.807-3.641a1.09,1.09,0,0,0,.252-.136h10.879a1.092,1.092,0,0,0,.252.136c2.348.887,3.807,2.282,3.807,3.641,0,1.151-1.019,2.318-2.795,3.2a1.1,1.1,0,0,0-.147.089H99.687A1.093,1.093,0,0,0,99.54,63.516Zm30.079,8.54a.41.41,0,0,1-.41.41H83.278a.411.411,0,0,1-.41-.41v-4.35a1.916,1.916,0,0,1,1.914-1.914h42.924a1.916,1.916,0,0,1,1.914,1.914Z" fill="#fff"/>
      <path id="Trazado_998805" data-name="Trazado 998805" d="M203.149,220.957a1.094,1.094,0,0,0-1.547,0l-.427.427-.427-.427A1.094,1.094,0,0,0,199.2,222.5l1.2,1.2a1.094,1.094,0,0,0,1.547,0l1.2-1.2A1.094,1.094,0,0,0,203.149,220.957Z" transform="translate(-100.967 -188.466)" fill="#fff"/>
      <path id="Trazado_998806" data-name="Trazado 998806" d="M203.149,256.012a1.094,1.094,0,0,0-1.547,0l-.427.427-.427-.427a1.094,1.094,0,0,0-1.547,1.547l1.2,1.2a1.094,1.094,0,0,0,1.547,0l1.2-1.2A1.094,1.094,0,0,0,203.149,256.012Z" transform="translate(-100.967 -218.41)" fill="#fff"/>
      <path id="Trazado_998807" data-name="Trazado 998807" d="M201.6,291.066l-.427.427-.427-.427a1.094,1.094,0,1,0-1.547,1.547l1.2,1.2a1.094,1.094,0,0,0,1.547,0l1.2-1.2a1.094,1.094,0,1,0-1.547-1.547Z" transform="translate(-100.967 -248.353)" fill="#fff"/>
      <path id="Trazado_998808" data-name="Trazado 998808" d="M263.364,298.976h-6.776a1.094,1.094,0,1,0,0,2.187h6.776a1.094,1.094,0,1,0,0-2.187Z" transform="translate(-149.325 -255.383)" fill="#fff"/>
      <path id="Trazado_998809" data-name="Trazado 998809" d="M263.364,275.9h-6.776a1.094,1.094,0,1,0,0,2.187h6.776a1.094,1.094,0,1,0,0-2.187Z" transform="translate(-149.325 -235.67)" fill="#fff"/>
      <path id="Trazado_998810" data-name="Trazado 998810" d="M263.364,252.821h-6.776a1.094,1.094,0,1,0,0,2.187h6.776a1.094,1.094,0,1,0,0-2.187Z" transform="translate(-149.325 -215.958)" fill="#fff"/>
      <path id="Trazado_998811" data-name="Trazado 998811" d="M403.471,377.618a1.093,1.093,0,0,0-1.079-1.108l-1.542-.021h-.015a1.094,1.094,0,0,0-.015,2.187l1.542.021h.015A1.093,1.093,0,0,0,403.471,377.618Z" transform="translate(-272.54 -321.594)" fill="#fff"/>
      <path id="Trazado_998812" data-name="Trazado 998812" d="M396.6,348.973a1.088,1.088,0,0,0,.532-.139l1.346-.751a1.093,1.093,0,1,0-1.066-1.909l-1.346.751a1.094,1.094,0,0,0,.534,2.048Z" transform="translate(-268.917 -295.58)" fill="#fff"/>
      <path id="Trazado_998813" data-name="Trazado 998813" d="M395.359,403.7l1.325.787a1.094,1.094,0,0,0,1.117-1.88l-1.325-.787a1.094,1.094,0,0,0-1.117,1.88Z" transform="translate(-268.338 -343.103)" fill="#fff"/>
      <path id="Trazado_998814" data-name="Trazado 998814" d="M86.683,377.618a1.094,1.094,0,0,0,1.093,1.079h.015l1.542-.021a1.094,1.094,0,0,0-.015-2.187H89.3l-1.542.021A1.094,1.094,0,0,0,86.683,377.618Z" transform="translate(-5.127 -321.594)" fill="#fff"/>
      <path id="Trazado_998815" data-name="Trazado 998815" d="M92.828,348.082l1.346.751a1.093,1.093,0,1,0,1.066-1.909l-1.346-.751a1.093,1.093,0,1,0-1.066,1.909Z" transform="translate(-9.897 -295.579)" fill="#fff"/>
      <path id="Trazado_998816" data-name="Trazado 998816" d="M94.182,404.644a1.089,1.089,0,0,0,.558-.154l1.325-.787a1.094,1.094,0,1,0-1.117-1.88l-1.325.787a1.094,1.094,0,0,0,.56,2.034Z" transform="translate(-10.597 -343.103)" fill="#fff"/>
    </g>
  </g>
</svg>
