<svg xmlns="http://www.w3.org/2000/svg" xmlns:xlink="http://www.w3.org/1999/xlink" width="82.215" height="84.041" viewBox="0 0 82.215 84.041">
  <defs>
    <clipPath id="clip-path">
      <rect id="Rectángulo_404467" data-name="Rectángulo 404467" width="71.568" height="72.364" fill="none"/>
    </clipPath>
    <clipPath id="clip-path-3">
      <rect id="Rectángulo_404435" data-name="Rectángulo 404435" width="58.005" height="56.323" fill="none"/>
    </clipPath>
    <clipPath id="clip-path-4">
      <rect id="Rectángulo_404436" data-name="Rectángulo 404436" width="67.197" height="66.455" fill="none"/>
    </clipPath>
    <clipPath id="clip-path-5">
      <rect id="Rectángulo_404437" data-name="Rectángulo 404437" width="12.673" height="11.639" fill="none"/>
    </clipPath>
    <clipPath id="clip-path-6">
      <rect id="Rectángulo_404438" data-name="Rectángulo 404438" width="9.796" height="10.372" fill="none"/>
    </clipPath>
    <clipPath id="clip-path-7">
      <rect id="Rectángulo_404439" data-name="Rectángulo 404439" width="5.447" height="5.508" fill="none"/>
    </clipPath>
    <clipPath id="clip-path-8">
      <rect id="Rectángulo_404440" data-name="Rectángulo 404440" width="4.804" height="6.878" fill="none"/>
    </clipPath>
    <clipPath id="clip-path-9">
      <rect id="Rectángulo_404441" data-name="Rectángulo 404441" width="11.529" height="10.174" fill="none"/>
    </clipPath>
    <clipPath id="clip-path-10">
      <rect id="Rectángulo_404442" data-name="Rectángulo 404442" width="15.482" height="13.722" fill="none"/>
    </clipPath>
    <clipPath id="clip-path-11">
      <rect id="Rectángulo_404443" data-name="Rectángulo 404443" width="13.806" height="11.814" fill="none"/>
    </clipPath>
    <clipPath id="clip-path-12">
      <rect id="Rectángulo_404444" data-name="Rectángulo 404444" width="7.773" height="13.698" fill="none"/>
    </clipPath>
    <clipPath id="clip-path-13">
      <rect id="Rectángulo_404445" data-name="Rectángulo 404445" width="0.016" height="0.057" fill="none"/>
    </clipPath>
    <clipPath id="clip-path-14">
      <rect id="Rectángulo_404446" data-name="Rectángulo 404446" width="13.025" height="41.824" fill="none"/>
    </clipPath>
    <clipPath id="clip-path-15">
      <rect id="Rectángulo_404447" data-name="Rectángulo 404447" width="47.917" height="24.264" fill="none"/>
    </clipPath>
    <clipPath id="clip-path-16">
      <rect id="Rectángulo_404448" data-name="Rectángulo 404448" width="6.931" height="22.801" fill="none"/>
    </clipPath>
    <clipPath id="clip-path-17">
      <rect id="Rectángulo_404449" data-name="Rectángulo 404449" width="36.96" height="10.954" fill="none"/>
    </clipPath>
    <clipPath id="clip-path-18">
      <rect id="Rectángulo_404450" data-name="Rectángulo 404450" width="5.863" height="9.95" fill="none"/>
    </clipPath>
    <clipPath id="clip-path-19">
      <rect id="Rectángulo_404451" data-name="Rectángulo 404451" width="12.242" height="10.458" fill="none"/>
    </clipPath>
    <clipPath id="clip-path-20">
      <rect id="Rectángulo_404452" data-name="Rectángulo 404452" width="10.118" height="7.004" fill="none"/>
    </clipPath>
    <clipPath id="clip-path-21">
      <rect id="Rectángulo_404453" data-name="Rectángulo 404453" width="3.342" height="3.01" fill="none"/>
    </clipPath>
    <clipPath id="clip-path-22">
      <rect id="Rectángulo_404454" data-name="Rectángulo 404454" width="3.701" height="4.377" fill="none"/>
    </clipPath>
    <clipPath id="clip-path-23">
      <rect id="Rectángulo_404455" data-name="Rectángulo 404455" width="0.055" height="0.412" fill="none"/>
    </clipPath>
    <clipPath id="clip-path-24">
      <rect id="Rectángulo_404456" data-name="Rectángulo 404456" width="0.008" height="0.061" fill="none"/>
    </clipPath>
    <clipPath id="clip-path-25">
      <rect id="Rectángulo_404457" data-name="Rectángulo 404457" width="7.382" height="6.657" fill="none"/>
    </clipPath>
    <clipPath id="clip-path-26">
      <rect id="Rectángulo_404458" data-name="Rectángulo 404458" width="4.613" height="4.65" fill="none"/>
    </clipPath>
    <clipPath id="clip-path-27">
      <rect id="Rectángulo_404459" data-name="Rectángulo 404459" width="9.18" height="8.246" fill="none"/>
    </clipPath>
    <clipPath id="clip-path-28">
      <rect id="Rectángulo_404460" data-name="Rectángulo 404460" width="8.6" height="8.028" fill="none"/>
    </clipPath>
    <clipPath id="clip-path-29">
      <rect id="Rectángulo_404461" data-name="Rectángulo 404461" width="7.129" height="10.169" fill="none"/>
    </clipPath>
    <clipPath id="clip-path-30">
      <rect id="Rectángulo_404462" data-name="Rectángulo 404462" width="7.159" height="9.952" fill="none"/>
    </clipPath>
    <clipPath id="clip-path-31">
      <rect id="Rectángulo_404463" data-name="Rectángulo 404463" width="5.571" height="8.945" fill="none"/>
    </clipPath>
    <clipPath id="clip-path-32">
      <rect id="Rectángulo_404464" data-name="Rectángulo 404464" width="8.212" height="8.81" fill="none"/>
    </clipPath>
    <clipPath id="clip-path-33">
      <rect id="Rectángulo_404465" data-name="Rectángulo 404465" width="3.927" height="3.577" fill="none"/>
    </clipPath>
  </defs>
  <g id="Grupo_1105925" data-name="Grupo 1105925" transform="translate(-706.52 -413.323)">
    <ellipse id="Elipse_11682" data-name="Elipse 11682" cx="39.5" cy="40" rx="39.5" ry="40" transform="translate(706.52 413.323)" fill="#e5a32c"/>
    <g id="Grupo_1105754" data-name="Grupo 1105754" transform="translate(717.166 425)">
      <g id="Grupo_1105412" data-name="Grupo 1105412" clip-path="url(#clip-path)">
        <g id="Grupo_1105411" data-name="Grupo 1105411">
          <g id="Grupo_1105410" data-name="Grupo 1105410" clip-path="url(#clip-path)">
            <path id="Trazado_992985" data-name="Trazado 992985" d="M71.538,41.8c-.441-4.678-2.182-6.124-1.764-9.95.106-.963.153-1.934.28-2.9.683-5.2-1.8-6-3.857-13.939-1.487-5.738-7.98-9.009-14.295-11.9a11,11,0,0,0-5.758-1.363A19.093,19.093,0,0,1,38.672.884,23.779,23.779,0,0,0,32.427,0c-1.081,0-3.476.242-5.189.424-.5.053-.942.1-1.277.134-1.749.18-1.171.078-1.688.3-1.187.5-1.5.4-2.375.776-.418.178-.768.327-1.033.047-.606.31-1.132.592-1.669.848A39.949,39.949,0,0,0,14.037,5.15c-1.434.863-.378.661-1.4,1.607A4.492,4.492,0,0,0,11.21,8.719c-.765,2.492-.729,2.8-3.389,6.621a59.878,59.878,0,0,0-5.353,8.054C1.7,24.914,1.1,26.509.423,28.072c-1.088,2.521.255,5.214.337,8.764a12.464,12.464,0,0,0,.92,5.174c.562,1.2.242-.132,1.058,4.636A33.854,33.854,0,0,0,4.22,52.627a4.682,4.682,0,0,0,1.192,2.161c1.279,1.247,2.456,2.6,3.688,3.892.827.871,2.193,2,2.907,2.663,1.542,1.436.581,1.118,6.523,4.92a5.319,5.319,0,0,0,1.794.846c2.91.537,3.179,1.83,5.263,2.452,1.05.314,1.951.189,7.04,1.412,1.018.244,1.983.753,3.009.91a21.546,21.546,0,0,0,5.777.407,14.838,14.838,0,0,0,4.562-1.1c8.037-3.684,5.195-3.58,10.8-6.58,1.957-1.047,6.167-3.368,7.757-5.191a22.467,22.467,0,0,0,3.507-5.295c.789-1.7,1.192-1.05,3.223-7.56a8.55,8.55,0,0,0,.2-2.051,18.645,18.645,0,0,0,.076-2.715" transform="translate(0 -0.001)" fill="#d0ad4f"/>
            <path id="Trazado_992986" data-name="Trazado 992986" d="M115.941,102.552a3.414,3.414,0,0,0-.548-1.04,3.691,3.691,0,0,0-3.249-1.355,9.211,9.211,0,0,0-1.914-.353,5.9,5.9,0,0,0-.639-.813,8.179,8.179,0,0,0,4.186-7.7c-.38-3.424-2.508-5.941-5.119-8.013a14.669,14.669,0,0,0-4.314-2.631,7.752,7.752,0,0,0-5.162.18,13.571,13.571,0,0,0-2.441,1.091,3.744,3.744,0,0,0-1.384,1.66,15.171,15.171,0,0,0-1.9-2.266A8.067,8.067,0,0,0,91,79.431a5.3,5.3,0,0,0-3.033-.085,4.891,4.891,0,0,0-1.6.093,5.622,5.622,0,0,0-1.7.3A9.78,9.78,0,0,0,82.027,81.3a6.482,6.482,0,0,0-.646.573A14.086,14.086,0,0,0,79.173,83.3a4.658,4.658,0,0,0,.145,7.5,4.729,4.729,0,0,0,.01.567,4.019,4.019,0,0,0-3.9.822,3.62,3.62,0,0,0-.983,2.559c-.011.195-.006.389-.018.583a1.255,1.255,0,0,0-.056.261,12.382,12.382,0,0,0-3.258,7.161,7.61,7.61,0,0,0,.038,2.163,5.962,5.962,0,0,0,1.215,2.426c-.163-.244.1.2.1.166.109.254.171.55.261.807a6.578,6.578,0,0,0,1.274,2.314,5.578,5.578,0,0,0,4.01,1.8,7.068,7.068,0,0,0,4.545-2.013c1.063-.878,1.984-1.653,3.1-2.431,1.129-.79,2.409-1.436,3.492-2.294-.025.215-.043.432-.063.648a8.445,8.445,0,0,0-2.329,1.346,21.708,21.708,0,0,0-1.91,1.765,12.959,12.959,0,0,0-3.34,4.536,5.318,5.318,0,0,0,1.459,5.667,6.056,6.056,0,0,0,2.192,1.182,3.677,3.677,0,0,0,1.865,1.479,6.973,6.973,0,0,0,2.359.459l.038.026a13.516,13.516,0,0,0,2.368,1.2,5.683,5.683,0,0,0,6.08-1.012c1.331-1.352,1.714-3.719,1.683-5.536q0-.178-.012-.356a5.12,5.12,0,0,0,3.839,2.911,5.3,5.3,0,0,0,5.923-.011,15.3,15.3,0,0,0,3.86-4.209,36.228,36.228,0,0,0,2.311-3.94c.84-1.621,1.892-3.343,1.912-5.221a6.09,6.09,0,0,0-1.445-4.062M88.354,122.159c.032-.023.144.028.283.11a.467.467,0,0,1-.283-.11" transform="translate(-58.663 -65.352)" fill="#e3cfba"/>
            <g id="Grupo_1105319" data-name="Grupo 1105319" transform="translate(4.782 8.149)" style="mix-blend-mode: overlay;isolation: isolate">
              <g id="Grupo_1105318" data-name="Grupo 1105318">
                <g id="Grupo_1105317" data-name="Grupo 1105317" clip-path="url(#clip-path-3)">
                  <path id="Trazado_992987" data-name="Trazado 992987" d="M84.944,78.863c-.261-1.919-.548-3.855-.989-5.743-.056-.24-.12-.478-.182-.717a1.218,1.218,0,0,0,.779-.6,7.929,7.929,0,0,0,.653-4.579A17.923,17.923,0,0,0,84.167,62.4a32.41,32.41,0,0,0-4.7-7.772c-1.78-2.39-3.454-4.913-6.057-6.49-3.152-1.909-6.742-1.555-10.2-.883a24.892,24.892,0,0,1-4.724.6,18.688,18.688,0,0,1-2.448-.1c-.489-.053-.978-.112-1.467-.169-.43-.05-.926-.014-1.338-.087a1.774,1.774,0,0,0-1.995,1,9.6,9.6,0,0,0-4.214.287,21.45,21.45,0,0,0-4.86,1.68,13.708,13.708,0,0,0-6.647,6.1c-1.4,2.757-2.183,5.8-3.409,8.637a44.54,44.54,0,0,1-2.2,4.357A25.124,25.124,0,0,0,27.491,74.2c-.458,1.417,1.332,2.166,2.309,1.344A14.06,14.06,0,0,0,32.724,71.6c.76-1.3,1.466-2.637,2.179-3.967,1.264-2.358,2.214-4.847,3.366-7.25.021.209.043.415.062.626a.863.863,0,0,0-.36.58,25.16,25.16,0,0,1-1.712,5.486c-.767,1.78-1.929,3.33-2.8,5.054a13.236,13.236,0,0,0-1.2,5.577c-.086,2.165-.612,4.561.193,6.639a1.748,1.748,0,0,0,3.415-.462c.257-2.05-.545-4.119-.586-6.177a11.632,11.632,0,0,1,.12-2.728,7.283,7.283,0,0,1,1.272-2.409,18.628,18.628,0,0,0,2.334-4.707,1.426,1.426,0,0,0,.364-.126c2.861-1.46,1.821-5.826,1.036-8.172A1.216,1.216,0,0,0,39.1,58.8a11.971,11.971,0,0,1,4.96-4.426,26.534,26.534,0,0,1,3.888-1.6c1.415-.464,3.406-.589,4.424-1.746L52.394,51a7.817,7.817,0,0,0,1.2.8,14.428,14.428,0,0,0,2.5.96,18.794,18.794,0,0,0,4.647.731c2.887.089,5.834-.832,8.707-.445-.067,0,.484.113.576.134.287.067.564.154.846.238a1.736,1.736,0,0,0,.2.051,1.363,1.363,0,0,0,.184.1c.306.155.607.318.9.5a14.448,14.448,0,0,1,2.8,2.144c1.893,1.884,3.941,3.825,5.055,6.3a10.971,10.971,0,0,1,.619,1.831,3.515,3.515,0,0,0-.683-1.145q-.55-.972-1.137-1.917a1.4,1.4,0,0,0-2.413,1.41c.244.566.465,1.141.668,1.721a7.411,7.411,0,0,0-.191,1.98c-.01.935-.028,1.873-.058,2.808-.015.483.054.9-.3,1.18a3.928,3.928,0,0,1-1.726.428,1.383,1.383,0,0,0-1,1.533,1.423,1.423,0,0,0,1.372,1.212,5.937,5.937,0,0,0,3.952-.683l.123.663c.7,3.757,1.553,7.533,1.5,11.379a12.41,12.41,0,0,1-.148,1.631l-.04,0a1.834,1.834,0,0,0-1.692,1.288,11.108,11.108,0,0,1-3.19,4.08,21.265,21.265,0,0,1-3.907,2.857,11.558,11.558,0,0,0-4.76-.521,6.206,6.206,0,0,0-2.972.611,4.236,4.236,0,0,0-1.343,1.4,3.181,3.181,0,0,0-.253.453,6.44,6.44,0,0,1-.552.613c-.064.063-.528.427-.309.277a3.808,3.808,0,0,1-1.2.625,8.938,8.938,0,0,1-3.493.436c-2.726-.084-5.57-.695-7.615-2.59a32.7,32.7,0,0,1-2.935-2.864c-.347-.413-.681-.843-.986-1.289-.108-.158-.22-.318-.332-.478l.009-.012c1.405-2.039-.225-4.922-2.411-5.492a5.435,5.435,0,0,0-4.43.916q-.324-.5-.624-1.019c-.814-1.421-3.336-.47-2.724,1.148a35.139,35.139,0,0,0,1.734,3.9,16.491,16.491,0,0,1,1.693,3.29,2.31,2.31,0,0,0,2.8,1.588,2.1,2.1,0,0,0,1.127-.725c.12.238.249.471.392.7a12.3,12.3,0,0,0,3.4,3.642,21.624,21.624,0,0,0,4.391,2.095,22.147,22.147,0,0,0,4.659,1.262c3.04.46,6.34.526,9.2-.757a6.927,6.927,0,0,0,2.039-1.335,6.589,6.589,0,0,0,.638-.761c.322-.024.667-.079.84-.091.492-.032.989-.091,1.479-.148a7.185,7.185,0,0,0,3.245-1.021A2.353,2.353,0,0,0,73.06,98a19.537,19.537,0,0,0,5.916-3.44,8.363,8.363,0,0,0,3.265-4.836h.009c2.446.116,3.107-2.739,3.164-4.656a38.031,38.031,0,0,0-.469-6.206" transform="translate(-27.417 -46.718)" fill="#d3be94"/>
                </g>
              </g>
            </g>
            <g id="Grupo_1105322" data-name="Grupo 1105322" transform="translate(2.388 2.339)" style="mix-blend-mode: overlay;isolation: isolate">
              <g id="Grupo_1105321" data-name="Grupo 1105321">
                <g id="Grupo_1105320" data-name="Grupo 1105320" clip-path="url(#clip-path-4)">
                  <path id="Trazado_992988" data-name="Trazado 992988" d="M80.884,54.705a15.043,15.043,0,0,0-1.031-5.111A26.156,26.156,0,0,1,78.7,45.048c-.455-3.195-.31-7.043-.975-10.429a26.84,26.84,0,0,0-1.849-5.438c-.787-1.821-1.752-3.835-3.578-4.824-.027-.014-.053-.024-.079-.037a1.9,1.9,0,0,0-.52-1.177,19.536,19.536,0,0,0-3.785-2.717c-1.262-.793-2.509-1.6-3.816-2.321a20.276,20.276,0,0,0-4.309-1.788,8.057,8.057,0,0,0-2.276-.247,7.509,7.509,0,0,1-2.055.057,2.634,2.634,0,0,1-.6-.467,3.659,3.659,0,0,0-1.192-.77,14.217,14.217,0,0,0-2.385-.508c-1.733-.266-3.523-.259-5.271-.4l-.177-.012c-.17-.027-.339-.059-.508-.086-.524-.083-1.05-.146-1.576-.214a22.081,22.081,0,0,0-2.378-.261,14.98,14.98,0,0,0-4.822.744,23.107,23.107,0,0,0-4.756,2.165,16.677,16.677,0,0,0-2.216,1.493c-.652.55-1.148,1.277-1.807,1.8-1.34,1.059.365,2.917,1.731,2.243a11.86,11.86,0,0,1,1.789-.482c.673-.2,1.324-.468,1.994-.681a19.8,19.8,0,0,1,3.558-.814,16.982,16.982,0,0,1,1.917-.07c.323.009.647.026.969.046.161.01.326.035.487.036h.068l.039.007a33.564,33.564,0,0,0,4.788.649,27.579,27.579,0,0,0,4.944-.471c.764-.117,1.5-.277,2.251-.45.339-.078.684-.133,1.023-.212a5.336,5.336,0,0,0,1.348-.631,1.2,1.2,0,0,1,.534-.134,2.925,2.925,0,0,1,.722.4c.586.342,1.128.773,1.723,1.095,1.184.641,2.449,1.163,3.667,1.737a45.208,45.208,0,0,1,4.085,2.18,30.054,30.054,0,0,0,4.257,2.456A11.028,11.028,0,0,0,71,30.651a21.672,21.672,0,0,1,1.465,4.01c.772,3.022.314,5.99.148,9.053a18.841,18.841,0,0,0,.371,5.174c.329,1.464.948,2.838,1.322,4.288.095.366.17.738.234,1.111.012.139.022.279.03.419a10.742,10.742,0,0,1,0,1.109c-.008.158-.022.316-.037.474,0,.017,0,.028,0,.042l-.016.08a18.265,18.265,0,0,1-.528,2.012,16.751,16.751,0,0,1-.588,1.723,20.1,20.1,0,0,1-2.318,4.076,31.474,31.474,0,0,1-2.087,2.356,1.594,1.594,0,0,0-.326-.1,3.931,3.931,0,0,0-3.469,1.1c-.684.564-1.354,1.146-2.031,1.719-1.156.979-2.244,2.055-3.463,2.955-.1.072-.2.143-.3.214a1.928,1.928,0,0,0-.9-.17,10.544,10.544,0,0,0-2.619.456c-.866.271-1.7.633-2.583.851a4.368,4.368,0,0,1-1.735.153c.159.012-.259-.049-.3-.059-.164-.043-.327-.084-.49-.131-.489-.139-.968-.312-1.457-.451a32.053,32.053,0,0,0-5.742-.723c-.153-.015-.306-.032-.459-.048l-.1-.01q-.532-.079-1.06-.18c-.757-.146-1.506-.33-2.246-.546-.344-.1-.686-.209-1.025-.327-.193-.067-.383-.142-.576-.211-.037-.013-.178-.072-.25-.1a16.7,16.7,0,0,1-1.881-.99c-.3-.185-.595-.385-.888-.584-.032-.022-.156-.118-.216-.163-.078-.065-.157-.129-.234-.2-.654-.562-1.249-1.193-1.844-1.815a26.616,26.616,0,0,0-3.856-3.419,16.877,16.877,0,0,1-3.5-2.864c-2.41-2.906-3.594-6.936-4.318-10.569a.935.935,0,0,0-.593-.707,12.053,12.053,0,0,1,2-4.959,20.25,20.25,0,0,0,2.022-3.725c.481-1.261.869-2.564,1.3-3.844.878-2.624,1.661-5.266,2.429-7.924a1.294,1.294,0,0,0-2.355-.993c-.138.264-.275.529-.412.793a1.719,1.719,0,0,0-3.161-1.229c-1.373,2.871-3.553,5.1-5.363,7.548-2.246,3.039-3.73,6.551-3.214,10.39s2.061,7.449,3.5,11c1.366,3.369,1.947,7,3.372,10.361a12.7,12.7,0,0,0,3.506,4.966,11.373,11.373,0,0,0,2.653,1.718,6.524,6.524,0,0,0,2.158.64,4.893,4.893,0,0,0,1.791-.31,2,2,0,0,0,.285-.1,20.16,20.16,0,0,0,5.562,3.118,24.334,24.334,0,0,0,5.445,1.258c.79.1,1.579.178,2.374.224.481.028.963.049,1.444.083.24.017.48.033.719.06l.1.01.339.062c1,.224,1.96.6,2.968.78a10.733,10.733,0,0,0,1.75.167,1.534,1.534,0,0,0,.836.076q.561-.1,1.117-.214c.072-.011.144-.02.217-.032a12.814,12.814,0,0,0,1.8-.432,25.559,25.559,0,0,0,6.5-2.595A32.742,32.742,0,0,0,66.7,73.334c1.284-1.072,3.11-2.171,3.551-3.853a34.41,34.41,0,0,0,6.671-5.033,14.031,14.031,0,0,0,3.961-9.743" transform="translate(-13.687 -13.409)" fill="#b58d47"/>
                </g>
              </g>
            </g>
            <g id="Grupo_1105325" data-name="Grupo 1105325" transform="translate(24.683 46.147)" style="mix-blend-mode: multiply;isolation: isolate">
              <g id="Grupo_1105324" data-name="Grupo 1105324">
                <g id="Grupo_1105323" data-name="Grupo 1105323" clip-path="url(#clip-path-5)">
                  <path id="Trazado_992989" data-name="Trazado 992989" d="M154.092,273.414a1.934,1.934,0,0,0-.986-1.218l.1.027a1.7,1.7,0,0,0-.379-.182,3.739,3.739,0,0,0-.915-1.141,2.676,2.676,0,0,0-2.667-.623l-.021-.013-.568-.467a2,2,0,0,0-1.146-.475l-.119-.149a1.856,1.856,0,0,0-.516-1.455c-.011-.012-.021-.025-.032-.037a1.756,1.756,0,0,0-.2-.239,4.749,4.749,0,0,0-.491-.389,5,5,0,0,0-1.012-2,1.727,1.727,0,0,0-2.077-.268c-3.2,2.323-1.179,9.732,3.272,8.583a2.187,2.187,0,0,0,.551-.229,4.011,4.011,0,0,0,1.013,1.107,2.286,2.286,0,0,0,1.275.429,3.333,3.333,0,0,0,1.135,1.136,2.7,2.7,0,0,0,3.254-.4,2.028,2.028,0,0,0,.53-2" transform="translate(-141.5 -264.548)" fill="#e0d1bd"/>
                </g>
              </g>
            </g>
            <g id="Grupo_1105328" data-name="Grupo 1105328" transform="translate(40.845 40.576)" style="mix-blend-mode: multiply;isolation: isolate">
              <g id="Grupo_1105327" data-name="Grupo 1105327">
                <g id="Grupo_1105326" data-name="Grupo 1105326" clip-path="url(#clip-path-6)">
                  <path id="Trazado_992990" data-name="Trazado 992990" d="M243.87,235.218A1.8,1.8,0,0,0,241.719,234a4.983,4.983,0,0,0-1.787.946,2.967,2.967,0,0,1-.407.139,13.791,13.791,0,0,0-.8-1.259,2.471,2.471,0,0,0-4.509,1.9c.1.448.227.9.369,1.341a7.14,7.14,0,0,0,.123,3.045c.579,1.893,2.767,3.627,4.627,2.531a2.4,2.4,0,0,0,.884-.384,2.258,2.258,0,0,0,1.63-1.306,5.752,5.752,0,0,0,.537-2.022,3.84,3.84,0,0,0,1.48-3.71" transform="translate(-234.152 -232.61)" fill="#e0d1bd"/>
                </g>
              </g>
            </g>
            <g id="Grupo_1105331" data-name="Grupo 1105331" transform="translate(50.596 37.84)" style="mix-blend-mode: multiply;isolation: isolate">
              <g id="Grupo_1105330" data-name="Grupo 1105330">
                <g id="Grupo_1105329" data-name="Grupo 1105329" clip-path="url(#clip-path-7)">
                  <path id="Trazado_992991" data-name="Trazado 992991" d="M295.393,218.933a2.385,2.385,0,0,0-1.232-1.483,1.852,1.852,0,0,0-2.564-.01,2.187,2.187,0,0,0-.648.9,2.4,2.4,0,0,0-.415,1.943c-.056.029-.112.058-.173.088-.576.283-.268,1.146.313,1.157.157,0,.318.009.48.013a2.41,2.41,0,0,0,3.534.228,2.928,2.928,0,0,0,.7-2.837" transform="translate(-290.054 -216.93)" fill="#e0d1bd"/>
                </g>
              </g>
            </g>
            <g id="Grupo_1105334" data-name="Grupo 1105334" transform="translate(37.992 17.601)" style="mix-blend-mode: multiply;isolation: isolate">
              <g id="Grupo_1105333" data-name="Grupo 1105333">
                <g id="Grupo_1105332" data-name="Grupo 1105332" clip-path="url(#clip-path-8)">
                  <path id="Trazado_992992" data-name="Trazado 992992" d="M221.633,103.37c.045-.138.092-.275.124-.4a3.319,3.319,0,0,0,.1-.729c.27-.78-.774-1.617-1.627-1.243-.716.313-.928,1.094-1.547,1.476a1.923,1.923,0,0,0-.668,2.549,5.647,5.647,0,0,0,2.144,2.555,1.629,1.629,0,0,0,2.372-.965,3.8,3.8,0,0,0-.9-3.24" transform="translate(-217.8 -100.904)" fill="#e0d1bd"/>
                </g>
              </g>
            </g>
            <g id="Grupo_1105337" data-name="Grupo 1105337" transform="translate(30.304 30.032)" style="mix-blend-mode: multiply;isolation: isolate">
              <g id="Grupo_1105336" data-name="Grupo 1105336">
                <g id="Grupo_1105335" data-name="Grupo 1105335" clip-path="url(#clip-path-9)">
                  <path id="Trazado_992993" data-name="Trazado 992993" d="M184.256,175.423a4.591,4.591,0,0,0-1.93-.8,2.462,2.462,0,0,0-.071-.732,2.283,2.283,0,0,0-.759-1.244,1.88,1.88,0,0,0-.97-.465,1.616,1.616,0,0,0-1.077.2,2.018,2.018,0,0,0-.606.606,1.726,1.726,0,0,0-.2,1.2,4.751,4.751,0,0,0-1.067-.416,3.166,3.166,0,0,0-2.942.823c-2.349,2.462.212,6.371,3.308,6.176a2.708,2.708,0,0,0,1.279-.412,3.347,3.347,0,0,0,.07.335l.025-.014a2.325,2.325,0,0,0,.785,1.188,2.264,2.264,0,0,0,3.318-.634,4.474,4.474,0,0,0,.562-1.78c.017-.1.032-.2.048-.3a2.013,2.013,0,0,0,.947-.844,2.15,2.15,0,0,0-.724-2.887" transform="translate(-173.723 -172.166)" fill="#e0d1bd"/>
                </g>
              </g>
            </g>
            <g id="Grupo_1105340" data-name="Grupo 1105340" transform="translate(42.894 23.13)" style="mix-blend-mode: multiply;isolation: isolate">
              <g id="Grupo_1105339" data-name="Grupo 1105339">
                <g id="Grupo_1105338" data-name="Grupo 1105338" clip-path="url(#clip-path-10)">
                  <path id="Trazado_992994" data-name="Trazado 992994" d="M261.272,140.426c-.513-2.539-1.97-4.944-2.952-7.322a.725.725,0,0,0-1.4.385c.168,1.052.315,2.106.463,3.161a1.328,1.328,0,0,0-.869.426,11.447,11.447,0,0,0-1.506,2.081,2.2,2.2,0,0,0,.053-.938c0-.023.008-.044.01-.068.018-.216.01-.477.038-.725a2.1,2.1,0,0,0,.359-1.977h-.025a1.8,1.8,0,0,0-2.273-1.3,5.293,5.293,0,0,0-2.029.935,2.545,2.545,0,0,0-.454.615,11.115,11.115,0,0,0-2.988.267,2.572,2.572,0,0,0-1.514,3.722,4.075,4.075,0,0,0,2.373,2.016,2.093,2.093,0,0,0,2.177-.576,5.45,5.45,0,0,0,2.43-.005,2.489,2.489,0,0,0,.9-.5,4.732,4.732,0,0,0-.31.609,1.756,1.756,0,0,0-.156.48,2.916,2.916,0,0,0-.077.515l.05-.007c.072,1.154,1,2.333,2.328,1.818.072-.028.141-.058.209-.09-.3,1.032.193,2.538,1.55,2.366,2.825-.358,4.127-3.313,3.607-5.882" transform="translate(-245.902 -132.599)" fill="#e0d1bd"/>
                </g>
              </g>
            </g>
            <g id="Grupo_1105343" data-name="Grupo 1105343" transform="translate(21.147 16.449)" style="mix-blend-mode: multiply;isolation: isolate">
              <g id="Grupo_1105342" data-name="Grupo 1105342">
                <g id="Grupo_1105341" data-name="Grupo 1105341" clip-path="url(#clip-path-11)">
                  <path id="Trazado_992995" data-name="Trazado 992995" d="M134.836,100a6.959,6.959,0,0,0-1.444-2.637,2.526,2.526,0,0,0-3.663-2.782l-.065.031a2.834,2.834,0,0,0-1.257.1,4.779,4.779,0,0,0-2.759,2.971,1.319,1.319,0,0,0-.044.771c-.015-.022-.029-.045-.046-.066l-.007.012a2.115,2.115,0,0,0-1.359-1.062,2.352,2.352,0,0,0-2.811,1.6,3.756,3.756,0,0,0,3.366,4.644,2.329,2.329,0,0,0,1.981-3.452,2.879,2.879,0,0,0-.538-.712,1.581,1.581,0,0,0,.442.276,1.791,1.791,0,0,0,.228.074,2.768,2.768,0,0,0,1.284,1.805,3.116,3.116,0,0,0,2.144.346c-.023.147-.043.283-.053.4-.17,2.045.776,4.143,3.146,3.751a1.771,1.771,0,0,0,1.423-1.953l.048.02a11.522,11.522,0,0,0-.019-4.127" transform="translate(-121.232 -94.298)" fill="#e0d1bd"/>
                </g>
              </g>
            </g>
            <g id="Grupo_1105346" data-name="Grupo 1105346" transform="translate(15.15 30.589)" style="mix-blend-mode: multiply;isolation: isolate">
              <g id="Grupo_1105345" data-name="Grupo 1105345">
                <g id="Grupo_1105344" data-name="Grupo 1105344" clip-path="url(#clip-path-12)">
                  <path id="Trazado_992996" data-name="Trazado 992996" d="M94.625,182.837a4.181,4.181,0,0,0-.2-1.2c0,.017-.214-.541-.383-.915a6.144,6.144,0,0,0-.169-1.163,4.054,4.054,0,0,0-1.7-2.343,5.279,5.279,0,0,0-.759-.369c-.074-.033-.15-.061-.225-.092-.2-.3-.531-.769-.6-.849a1.949,1.949,0,0,0-2.317-.3c-2,.979-1.658,3.738-.373,5.133.043.047.087.094.133.141v.008a4.237,4.237,0,0,0,.075,1.367c.023.108.174.686.282,1.014l0,.016a1.6,1.6,0,0,0-.137.194,7.789,7.789,0,0,0-1.1,2.056,2.816,2.816,0,0,0,1.331,3.145,5.112,5.112,0,0,0,2.813.34,2.591,2.591,0,0,0,.974-.247,1.5,1.5,0,0,0,.676-.379,1.966,1.966,0,0,0,.388-.691A2.575,2.575,0,0,0,93.507,186a4.079,4.079,0,0,0,.434-.611,5.171,5.171,0,0,0,.684-2.556" transform="translate(-86.853 -175.359)" fill="#e0d1bd"/>
                </g>
              </g>
            </g>
            <g id="Grupo_1105349" data-name="Grupo 1105349" transform="translate(22.707 36.806)" style="mix-blend-mode: multiply;isolation: isolate">
              <g id="Grupo_1105348" data-name="Grupo 1105348">
                <g id="Grupo_1105347" data-name="Grupo 1105347" clip-path="url(#clip-path-13)">
                  <path id="Trazado_992997" data-name="Trazado 992997" d="M130.176,211c.006.019.01.038.016.057a.366.366,0,0,0-.016-.057" transform="translate(-130.176 -210.997)" fill="#e0d1bd"/>
                </g>
              </g>
            </g>
            <g id="Grupo_1105352" data-name="Grupo 1105352" transform="translate(55.4 19.435)" style="mix-blend-mode: multiply;isolation: isolate">
              <g id="Grupo_1105351" data-name="Grupo 1105351">
                <g id="Grupo_1105350" data-name="Grupo 1105350" clip-path="url(#clip-path-14)">
                  <path id="Trazado_992998" data-name="Trazado 992998" d="M329.742,129.928c-.64-1.46-1.266-2.882-1.768-4.4-.525-1.592-.957-3.21-1.379-4.832-.4-1.536-.517-3.56-1.506-4.835a.876.876,0,0,0-1.37.177c-.679,1.358-.315,3.251-.157,4.71.03.279.068.557.1.836-.178-.3-.464-.508-.628-.8-.463-.838-.369-2.1-.633-3.019a21.227,21.227,0,0,0-3.127-5.906.917.917,0,0,0-1.583.925,23.878,23.878,0,0,1,2.19,6.011,9.15,9.15,0,0,0,.5,2.892c.418.788,1.128,1.138,1.71,1.765a1.058,1.058,0,0,0,1.754-.463c.005-.022.009-.044.013-.066q.234,1.429.555,2.844c.343,1.5.851,2.968,1.192,4.469a6.333,6.333,0,0,1,.2,2.093,7.6,7.6,0,0,1-.7,1.946,41.689,41.689,0,0,0-2.822,8.837,11.187,11.187,0,0,1-1.584,4.532,24.584,24.584,0,0,0-2.412,4.155c-.432,1.079,1.191,1.944,1.927,1.122a18.267,18.267,0,0,0,2.615-4.433,16.762,16.762,0,0,1,2.823-3.784,24.737,24.737,0,0,0,2.785-4.15,17.229,17.229,0,0,0,2-4.988,9.062,9.062,0,0,0-.7-5.632" transform="translate(-317.592 -111.418)" fill="#e0d1bd"/>
                </g>
              </g>
            </g>
            <g id="Grupo_1105355" data-name="Grupo 1105355" transform="translate(5.548 43.709)" style="mix-blend-mode: multiply;isolation: isolate">
              <g id="Grupo_1105354" data-name="Grupo 1105354">
                <g id="Grupo_1105353" data-name="Grupo 1105353" clip-path="url(#clip-path-15)">
                  <path id="Trazado_992999" data-name="Trazado 992999" d="M77.227,268.534a5.779,5.779,0,0,1-3.122,1.208c-1.921.246-3.813-.128-5.728.187a46.135,46.135,0,0,1-11.15.623c-3.22-.258-6.2-2.142-8.8-3.934a25.475,25.475,0,0,1-3.687-3.494c-1.187-1.225-2.447-2.376-3.641-3.6-2.735-2.8-5.3-5.753-7.853-8.711-.607-.7-1.855.238-1.3,1,2.193,3.023,4.393,6.044,6.746,8.947A41.166,41.166,0,0,0,42.4,265c1.369,1.28,2.9,2.35,4.264,3.636,2.744,2.593,5.656,5.2,9.526,5.782a44.618,44.618,0,0,0,6.374.356c2.1.01,4.191.08,6.287.063a13.164,13.164,0,0,0,3.709-.722c.937-.277,1.9-.441,2.837-.714a5.866,5.866,0,0,0,4.223-3.467c.571-1.413-1.443-2.29-2.4-1.4" transform="translate(-31.807 -250.572)" fill="#e0d1bd"/>
                </g>
              </g>
            </g>
            <g id="Grupo_1105358" data-name="Grupo 1105358" transform="translate(2.644 19.934)" style="mix-blend-mode: multiply;isolation: isolate">
              <g id="Grupo_1105357" data-name="Grupo 1105357">
                <g id="Grupo_1105356" data-name="Grupo 1105356" clip-path="url(#clip-path-16)">
                  <path id="Trazado_993000" data-name="Trazado 993000" d="M19.481,130.584c-.166-1.756.888-3.258.9-5.016,0-.88-.188-1.743-.14-2.626a8.772,8.772,0,0,1,.433-2.125c.529-1.694,1.333-3.161,1.416-4.97a1.546,1.546,0,0,0-2.314-1.328,10.018,10.018,0,0,0-3.3,4.968,13.507,13.507,0,0,0-.678,2.968c-.128,1.05.1,2.074.014,3.113-.077.924-.512,1.8-.61,2.745a8.727,8.727,0,0,0,.247,2.982,12.5,12.5,0,0,0,2.85,5.335c1.041,1.129,2.7-.076,2.422-1.41-.324-1.562-1.08-3.034-1.232-4.637" transform="translate(-15.156 -114.277)" fill="#e0d1bd"/>
                </g>
              </g>
            </g>
            <g id="Grupo_1105361" data-name="Grupo 1105361" transform="translate(12.863 1.685)" style="mix-blend-mode: multiply;isolation: isolate">
              <g id="Grupo_1105360" data-name="Grupo 1105360">
                <g id="Grupo_1105359" data-name="Grupo 1105359" clip-path="url(#clip-path-17)">
                  <path id="Trazado_993001" data-name="Trazado 993001" d="M110.5,15.706c-.741-1.689-3.56-2.1-5.18-2.4a30.631,30.631,0,0,0-5.812-.529c-.873,0-1.745.039-2.615.1.845-.7.257-2.172-.691-2.527-2.15-.8-4.59-.689-6.851-.677a42.539,42.539,0,0,0-6.935.3,11.6,11.6,0,0,0-5.372,3.01A8.628,8.628,0,0,0,73.9,17.361a4.962,4.962,0,0,0-.157,1A2.26,2.26,0,0,0,75.716,20.6a2.5,2.5,0,0,0,2.157-.856.91.91,0,0,0,.83-.328,9.751,9.751,0,0,1,.952-.763,9.391,9.391,0,0,1,.853-.774c.732-.544,1.333-1.2,2.109-1.683a2.171,2.171,0,0,0,1.029-1.736,6.648,6.648,0,0,1,.822-.079c.9-.032,1.8-.059,2.7-.087a1.782,1.782,0,0,0-.678,1.847,1.7,1.7,0,0,0,2.037,1.157,62.9,62.9,0,0,1,10.812-.777,26.1,26.1,0,0,1,4.927.622,22.166,22.166,0,0,1,2.3.662,4.278,4.278,0,0,0,2.912.428,1.751,1.751,0,0,0,1.025-2.519" transform="translate(-73.739 -9.656)" fill="#e0d1bd"/>
                </g>
              </g>
            </g>
            <g id="Grupo_1105364" data-name="Grupo 1105364" transform="translate(17.571 34.263)" style="mix-blend-mode: multiply;isolation: isolate">
              <g id="Grupo_1105363" data-name="Grupo 1105363">
                <g id="Grupo_1105362" data-name="Grupo 1105362" clip-path="url(#clip-path-18)">
                  <path id="Trazado_993002" data-name="Trazado 993002" d="M106.313,203.391c-.081-.121-.163-.235-.247-.344a2.281,2.281,0,0,0,.009-1.32c-.18-.53-.389-.89-.5-1.209a12.229,12.229,0,0,0-.74-1.938c-.551-1.02-1.437-2.214-2.714-2.159a1.421,1.421,0,0,0-1.373,1.373,1.748,1.748,0,0,0-.018.22.822.822,0,0,0,.057.356c.019.109.053.253.059.307.029.267.04.533.055.8a14.36,14.36,0,0,1,.005,1.671,3.172,3.172,0,0,0,.949,2.645,1.869,1.869,0,0,0,.051.395,2.808,2.808,0,0,0,2.7,2.177,1.989,1.989,0,0,0,1.707-2.974" transform="translate(-100.732 -196.419)" fill="#c1b3a3"/>
                </g>
              </g>
            </g>
            <g id="Grupo_1105367" data-name="Grupo 1105367" transform="translate(24.9 46.789)" style="mix-blend-mode: multiply;isolation: isolate">
              <g id="Grupo_1105366" data-name="Grupo 1105366">
                <g id="Grupo_1105365" data-name="Grupo 1105365" clip-path="url(#clip-path-19)">
                  <path id="Trazado_993003" data-name="Trazado 993003" d="M154.343,274.714h.02a7.5,7.5,0,0,0-6.15-2.3,2.954,2.954,0,0,0-.335-1.3,3.558,3.558,0,0,0-.738-.978c-.038-.034-.08-.065-.119-.1a2.837,2.837,0,0,0-.327-.508,2.565,2.565,0,0,0-1.251-.908.772.772,0,0,0-1.35.012,1.96,1.96,0,0,0-1.188,1.109,1.988,1.988,0,0,0-.085,1.309l-.016,0a2.775,2.775,0,0,0,.717,1.158,4.7,4.7,0,0,0-.09.54,2.213,2.213,0,0,0,1.107,1.929,2.115,2.115,0,0,0,.813.308,6.605,6.605,0,0,0,1.133.984c.758.5,1.693.706,2.5,1.132a15.25,15.25,0,0,0,3.121,1.5,2.337,2.337,0,0,0,2.243-3.887" transform="translate(-142.746 -268.228)" fill="#c1b3a3"/>
                </g>
              </g>
            </g>
            <g id="Grupo_1105370" data-name="Grupo 1105370" transform="translate(40.187 43.031)" style="mix-blend-mode: multiply;isolation: isolate">
              <g id="Grupo_1105369" data-name="Grupo 1105369">
                <g id="Grupo_1105368" data-name="Grupo 1105368" clip-path="url(#clip-path-20)">
                  <path id="Trazado_993004" data-name="Trazado 993004" d="M239.723,247.272a1.958,1.958,0,0,0-2.134-.15,3.7,3.7,0,0,0-.763.546c-.034.03-.131.13-.2.207a3.37,3.37,0,0,1-.445.264h0c-.076.026-.152.051-.229.072a8.181,8.181,0,0,0-1.8-1.21,2.509,2.509,0,0,0-3.432,3.432c.256.432.5.869.778,1.29a4.133,4.133,0,0,0,1.511,1.695,2.365,2.365,0,0,0,2.383-.1,2.27,2.27,0,0,0,1.694-1.105,2.79,2.79,0,0,0,.255-.6,5.982,5.982,0,0,0,1.295-.424,4.065,4.065,0,0,0,.924-.585,3.038,3.038,0,0,0,.855-1.313,1.9,1.9,0,0,0-.689-2.02" transform="translate(-230.385 -246.686)" fill="#c1b3a3"/>
                </g>
              </g>
            </g>
            <g id="Grupo_1105373" data-name="Grupo 1105373" transform="translate(52.015 40.079)" style="mix-blend-mode: multiply;isolation: isolate">
              <g id="Grupo_1105372" data-name="Grupo 1105372">
                <g id="Grupo_1105371" data-name="Grupo 1105371" clip-path="url(#clip-path-21)">
                  <path id="Trazado_993005" data-name="Trazado 993005" d="M301.34,230.552a1.426,1.426,0,0,0-.509-.509,3.479,3.479,0,0,0-.53-.228,1.648,1.648,0,0,0-.615-.039,1.535,1.535,0,0,0-1.493,1.493,1.509,1.509,0,0,0,.437,1.056l.3.233a1.487,1.487,0,0,0,.754.2,1.535,1.535,0,0,0,.615-.039,4.326,4.326,0,0,0,.53-.228,1.42,1.42,0,0,0,.509-1.942" transform="translate(-298.192 -229.764)" fill="#c1b3a3"/>
                </g>
              </g>
            </g>
            <g id="Grupo_1105376" data-name="Grupo 1105376" transform="translate(37.976 19.431)" style="mix-blend-mode: multiply;isolation: isolate">
              <g id="Grupo_1105375" data-name="Grupo 1105375">
                <g id="Grupo_1105374" data-name="Grupo 1105374" clip-path="url(#clip-path-22)">
                  <path id="Trazado_993006" data-name="Trazado 993006" d="M221.376,113.27a1.243,1.243,0,0,0-.35-1.192,1.461,1.461,0,0,0-1.193-.683,2.1,2.1,0,0,0-2.05,1.682,2.257,2.257,0,0,0,.213,1.686,2.343,2.343,0,0,0,1.255.943,1.508,1.508,0,0,0,1.855-1.053.733.733,0,0,0,.015-.087,2.349,2.349,0,0,0,.108-.356,6.64,6.64,0,0,0,.06-.713.942.942,0,0,0,.087-.228" transform="translate(-217.708 -111.391)" fill="#c1b3a3"/>
                </g>
              </g>
            </g>
            <g id="Grupo_1105379" data-name="Grupo 1105379" transform="translate(41.498 21.834)" style="mix-blend-mode: multiply;isolation: isolate">
              <g id="Grupo_1105378" data-name="Grupo 1105378">
                <g id="Grupo_1105377" data-name="Grupo 1105377" clip-path="url(#clip-path-23)">
                  <path id="Trazado_993007" data-name="Trazado 993007" d="M237.9,125.583a3.059,3.059,0,0,0,.055-.412l-.055.412" transform="translate(-237.898 -125.171)" fill="#c1b3a3"/>
                </g>
              </g>
            </g>
            <g id="Grupo_1105382" data-name="Grupo 1105382" transform="translate(41.49 22.247)" style="mix-blend-mode: multiply;isolation: isolate">
              <g id="Grupo_1105381" data-name="Grupo 1105381">
                <g id="Grupo_1105380" data-name="Grupo 1105380" clip-path="url(#clip-path-24)">
                  <path id="Trazado_993008" data-name="Trazado 993008" d="M237.851,127.595l.008-.061v0c0,.019,0,.037-.007.056" transform="translate(-237.851 -127.534)" fill="#c1b3a3"/>
                </g>
              </g>
            </g>
            <g id="Grupo_1105385" data-name="Grupo 1105385" transform="translate(45.117 24.646)" style="mix-blend-mode: multiply;isolation: isolate">
              <g id="Grupo_1105384" data-name="Grupo 1105384">
                <g id="Grupo_1105383" data-name="Grupo 1105383" clip-path="url(#clip-path-25)">
                  <path id="Trazado_993009" data-name="Trazado 993009" d="M263.721,141.312a2.643,2.643,0,0,0-2.914,1.9c-.021.086-.039.173-.055.261-1.281.631-2.338,1.658-2.064,3.205a1.685,1.685,0,0,0,1.187,1.188,3.428,3.428,0,0,0,2.039-.291l.159-.038c.069-.007.162-.017.187-.017.091,0,.183,0,.274.007.027.012.063.027.115.046a2.476,2.476,0,0,0,2.783-1.133,5.815,5.815,0,0,0,.592-2.522,2.644,2.644,0,0,0-2.3-2.608" transform="translate(-258.644 -141.289)" fill="#c1b3a3"/>
                </g>
              </g>
            </g>
            <g id="Grupo_1105388" data-name="Grupo 1105388" transform="translate(26.948 17.35)" style="mix-blend-mode: multiply;isolation: isolate">
              <g id="Grupo_1105387" data-name="Grupo 1105387">
                <g id="Grupo_1105386" data-name="Grupo 1105386" clip-path="url(#clip-path-26)">
                  <path id="Trazado_993010" data-name="Trazado 993010" d="M159.094,101.7l-.08-.6-.226-.535-.35-.454a1.681,1.681,0,0,0-.721-.463,1.115,1.115,0,0,0-.566-.153,1.129,1.129,0,0,0-.6,0,1.115,1.115,0,0,0-.566.153,1.682,1.682,0,0,0-.72.462c-.017.014-.035.026-.052.04a1.7,1.7,0,0,0-.47.732.954.954,0,0,0-.089.194,1.938,1.938,0,0,0-.17.839c0,.013,0,.025,0,.038a2.4,2.4,0,0,0,.631,1.522l.436.337a2.143,2.143,0,0,0,1.087.294,2.7,2.7,0,0,0,1.281-.349,2.4,2.4,0,0,0,.864-.851,2.148,2.148,0,0,0,.306-1.209" transform="translate(-154.488 -99.463)" fill="#c1b3a3"/>
                </g>
              </g>
            </g>
            <g id="Grupo_1105391" data-name="Grupo 1105391" transform="translate(41.767 17.54)" style="mix-blend-mode: overlay;isolation: isolate">
              <g id="Grupo_1105390" data-name="Grupo 1105390">
                <g id="Grupo_1105389" data-name="Grupo 1105389" clip-path="url(#clip-path-27)">
                  <path id="Trazado_993011" data-name="Trazado 993011" d="M244.95,101.251a5.928,5.928,0,0,0-2.866-.685c-1.612.12-2.909,1.094-2.6,2.848a2.195,2.195,0,0,0,.846,1.309c.1.086.213.166.324.242l.055.043c.3.227.61.444.911.669-.119-.08.208.2.3.3.173.175.334.361.5.541-.436-.468.019.044.106.189a3.708,3.708,0,0,0,2.4,2.026,2.942,2.942,0,0,0,3.482-1.977c.949-2.279-1.573-4.657-3.46-5.5" transform="translate(-239.438 -100.555)" fill="#a8a8a8"/>
                </g>
              </g>
            </g>
            <g id="Grupo_1105394" data-name="Grupo 1105394" transform="translate(41.653 34.991)" style="mix-blend-mode: overlay;isolation: isolate">
              <g id="Grupo_1105393" data-name="Grupo 1105393">
                <g id="Grupo_1105392" data-name="Grupo 1105392" clip-path="url(#clip-path-28)">
                  <path id="Trazado_993012" data-name="Trazado 993012" d="M246.536,202.744a3.912,3.912,0,0,0-3.29-2.146,4.389,4.389,0,0,0-4.458,4.268,2.169,2.169,0,0,0,2.728,2.078c.087-.035.17-.073.253-.11a3.559,3.559,0,0,0,1.453,1.44,2.743,2.743,0,0,0,3.948-1.606c.542-1.294-.028-2.765-.634-3.925" transform="translate(-238.788 -200.597)" fill="#a8a8a8"/>
                </g>
              </g>
            </g>
            <g id="Grupo_1105397" data-name="Grupo 1105397" transform="translate(47.13 42.563)" style="mix-blend-mode: overlay;isolation: isolate">
              <g id="Grupo_1105396" data-name="Grupo 1105396">
                <g id="Grupo_1105395" data-name="Grupo 1105395" clip-path="url(#clip-path-29)">
                  <path id="Trazado_993013" data-name="Trazado 993013" d="M274.219,244.778c-1.264,2.232-2.4,4.523-3.742,6.716-1.249,2.037,1.84,3.767,3.166,1.851.8-1.153,1.6-2.308,2.3-3.524a10.193,10.193,0,0,0,1.363-4.206c.185-1.685-2.324-2.18-3.086-.836" transform="translate(-270.185 -244.006)" fill="#a8a8a8"/>
                </g>
              </g>
            </g>
            <g id="Grupo_1105400" data-name="Grupo 1105400" transform="translate(29.164 41.777)" style="mix-blend-mode: overlay;isolation: isolate">
              <g id="Grupo_1105399" data-name="Grupo 1105399">
                <g id="Grupo_1105398" data-name="Grupo 1105398" clip-path="url(#clip-path-30)">
                  <path id="Trazado_993014" data-name="Trazado 993014" d="M172.225,240.385a2.99,2.99,0,0,0-3.6-.479,3.674,3.674,0,0,0-1.438,3.252,1.291,1.291,0,0,0,.734,1.23,9.05,9.05,0,0,0,.567,2.913,3.015,3.015,0,0,0,2.817,2.145,2.982,2.982,0,0,0,2.817-2.145,7,7,0,0,0-1.9-6.916" transform="translate(-167.191 -239.497)" fill="#a8a8a8"/>
                </g>
              </g>
            </g>
            <g id="Grupo_1105403" data-name="Grupo 1105403" transform="translate(23.068 31.391)" style="mix-blend-mode: overlay;isolation: isolate">
              <g id="Grupo_1105402" data-name="Grupo 1105402">
                <g id="Grupo_1105401" data-name="Grupo 1105401" clip-path="url(#clip-path-31)">
                  <path id="Trazado_993015" data-name="Trazado 993015" d="M136.9,183.481c-.393-.916-.82-1.786-1.3-2.66a1.817,1.817,0,0,0-3.361.91c.047,1.083.151,2.133.3,3.207.174,1.225.2,2.418,1.183,3.306a2.394,2.394,0,0,0,3.954-1.044c.412-1.372-.251-2.488-.779-3.72" transform="translate(-132.241 -179.958)" fill="#a8a8a8"/>
                </g>
              </g>
            </g>
            <g id="Grupo_1105406" data-name="Grupo 1105406" transform="translate(23.722 20.442)" style="mix-blend-mode: overlay;isolation: isolate">
              <g id="Grupo_1105405" data-name="Grupo 1105405">
                <g id="Grupo_1105404" data-name="Grupo 1105404" clip-path="url(#clip-path-32)">
                  <path id="Trazado_993016" data-name="Trazado 993016" d="M141.569,119.5l-.412-.185-.164-.219q.317.418.04.037a7.565,7.565,0,0,0-.935-1.363,2.029,2.029,0,0,0-1.956-.517c-2.166.548-2.621,3.346-1.7,5.081a4.478,4.478,0,0,0,1.8,1.775c.134.074.291.15.457.221.109.134.217.257.319.367A3.314,3.314,0,0,0,141.4,126a2.879,2.879,0,0,0,2.659-2.043c.616-1.958-.779-3.692-2.486-4.453" transform="translate(-135.992 -117.191)" fill="#a8a8a8"/>
                </g>
              </g>
            </g>
            <g id="Grupo_1105409" data-name="Grupo 1105409" transform="translate(24.515 16.829)" style="mix-blend-mode: overlay;isolation: isolate">
              <g id="Grupo_1105408" data-name="Grupo 1105408">
                <g id="Grupo_1105407" data-name="Grupo 1105407" clip-path="url(#clip-path-33)">
                  <path id="Trazado_993017" data-name="Trazado 993017" d="M144.256,97.459a2.825,2.825,0,0,0-.364-.443,4.509,4.509,0,0,0-.386-.3,1.337,1.337,0,0,0-.705-.223,1.92,1.92,0,0,0-1.255.235,2.924,2.924,0,0,0-.525.42l-.266.344a1.266,1.266,0,0,0-.2.632,1.625,1.625,0,0,0,.2,1.084,2.032,2.032,0,0,0,.61.61,1.266,1.266,0,0,0,.632.2,1.288,1.288,0,0,0,.678-.03,1.059,1.059,0,0,1,.133-.035c.046-.008.092-.018.136-.031a2.72,2.72,0,0,0,.3-.117,1.358,1.358,0,0,0,.486-.277,1.53,1.53,0,0,0,.682-.9,1.477,1.477,0,0,0-.154-1.173" transform="translate(-140.536 -96.476)" fill="#a8a8a8"/>
                </g>
              </g>
            </g>
            <path id="Trazado_993018" data-name="Trazado 993018" d="M384.2,266.536a1.319,1.319,0,0,1-.04.518c-.14.256-.363.462-.526.7s-.307.522-.456.783c-.021.036-.017.091-.045.117a7.556,7.556,0,0,1-.623.56c-.026.019-.263-.134-.259-.2.059-1.054-.208-.617,1.786-2.477l.163-.008" transform="translate(-315.573 -220.042)" fill="#42210b"/>
            <path id="Trazado_993019" data-name="Trazado 993019" d="M379.24,252.777a10.625,10.625,0,0,1-2.411,2.787c-.07.064-.221.043-.335.062-.03-.047-.06-.095-.089-.142,1.362-1.631,2.112-2.434,2.331-3.5.03-.144.288-.24.441-.358.195.344.45.4.062,1.147" transform="translate(-310.746 -207.737)" fill="#42210b"/>
            <path id="Trazado_993020" data-name="Trazado 993020" d="M377.723,201.165c.034-.274.045-.45-.216-.641a.67.67,0,0,1-.076-.623,1.873,1.873,0,0,1,.547-.566c.038-.032.238.04.261.1.1.265-.133.559-.437,1.1l.98-.238.125.189a9.627,9.627,0,0,1-.729,1.039c-.172.193-.5-.036-.456-.359" transform="translate(-311.559 -164.557)" fill="#42210b"/>
            <path id="Trazado_993021" data-name="Trazado 993021" d="M373.223,154.069c.114.8-.439,1.338-.606,2.027l-.229-.028c-.03-.183-.129-.384-.081-.545.577-2.036-.064-4-.3-5.995-.138-1.151-.1-.867.172-1.2.583.5.146-.639,1.046,5.738" transform="translate(-307.05 -122.457)" fill="#42210b"/>
            <path id="Trazado_993022" data-name="Trazado 993022" d="M366.556,301.207c.094.1.284.282.271.3a8.043,8.043,0,0,1-.78.865c-.046.043-.246-.078-.545-.185.437-.407.746-.695,1.054-.98" transform="translate(-301.745 -248.666)" fill="#42210b"/>
            <path id="Trazado_993023" data-name="Trazado 993023" d="M358.6,120.4a2.624,2.624,0,0,1,1.039,2.992A8.652,8.652,0,0,1,358.6,120.4" transform="translate(-296.049 -99.395)" fill="#42210b"/>
            <path id="Trazado_993024" data-name="Trazado 993024" d="M348.885,278.2a1.055,1.055,0,0,0,.117-.24l.172.062c-.072.2-.151.4-.237.594a12.574,12.574,0,0,1-1.733,2.269c-.568.781-1.192,1.523-1.8,2.278a2.547,2.547,0,0,1-.322.293c-.36-.278-.227-.524-.026-.77.92-1.124,1.83-2.254,2.763-3.365.333-.4.78-.7,1.065-1.122" transform="translate(-284.702 -229.473)" fill="#42210b"/>
            <path id="Trazado_993025" data-name="Trazado 993025" d="M340.836,301.232a5.579,5.579,0,0,1,1.368-1.143c-.492,1.607-1.718,1.51-1.222,2.288.11.172-.689.941-2.485,2.827-.064.006-.127.011-.191.019,0-.551-.18-.278.526-1.2.089-.115.259-.22.265-.337.068-1.183,1.139-1.654,1.739-2.451" transform="translate(-279.276 -247.743)" fill="#42210b"/>
            <path id="Trazado_993026" data-name="Trazado 993026" d="M351.813,240.379c-.032.165-.064.327-.095.49l.178.032c.025-.164.051-.329.076-.494l-.159-.028m.136,3.526c-.746.728.339-.537-3.009,3.98-.1.133-.316.178-.479.265a1.7,1.7,0,0,1,.009-.606c.093-.242.679-.865.587-1.073-.35-.781.134-1.383.5-1.911a15.45,15.45,0,0,0,1.858-4.511,3.215,3.215,0,0,0-.032-2.087l.428-.119c.112.413.235.819.384,1.219a8.115,8.115,0,0,1-.068,5.842l-.172-.062c.093-.261.117-.566.189-.838l-.2-.1m.117-2.235a28.465,28.465,0,0,0-2.555,4.067c.072.049.144.1.216.146,3.1-4.127,2.426-3.054,2.543-4.158l-.2-.055" transform="translate(-287.657 -196.353)" fill="#42210b"/>
            <path id="Trazado_993027" data-name="Trazado 993027" d="M349.262,78.847c.045.481.244.123-.585,2.562-.042.119-.2.2-.3.3l-.326-.441c.888-2.74.585-2.11,1.215-2.42" transform="translate(-287.335 -65.093)" fill="#42210b"/>
            <path id="Trazado_993028" data-name="Trazado 993028" d="M352.528,99.405c.43.7-.042,1.423.153,2.095a1.509,1.509,0,0,1-.153-2.095" transform="translate(-290.745 -82.065)" fill="#42210b"/>
            <path id="Trazado_993029" data-name="Trazado 993029" d="M349.247,176.19a1.992,1.992,0,0,1-.212,1.758c-.042.095-.163.151-.248.225-.08-.106-.212-.206-.225-.322a2.325,2.325,0,0,1,.441-1.635c.081-.007.163-.017.244-.027" transform="translate(-287.748 -145.456)" fill="#42210b"/>
            <path id="Trazado_993030" data-name="Trazado 993030" d="M348.375,124.162c-.045-.131-.095-.261-.144-.392l.43-.163c.632,1.656,1.26,3.314,1.858,4.981,2.1,5.857-.333,9.3.719,13.379.134.522.259,1.048.4,1.567l-.427.119a10.663,10.663,0,0,1-.808-3.276c.025-4.559.9-7.46-.161-10.345-.71-1.925-1.2-3.928-1.872-5.87" transform="translate(-287.487 -102.045)" fill="#42210b"/>
            <path id="Trazado_993031" data-name="Trazado 993031" d="M251.65,47.949q.514,1.348,1.029,2.693l-.429.163c-.356-.906-.823-1.773-1.2-2.676a23.792,23.792,0,0,0-2.47-4.237c-1.1-1.627-2.77-2.485-4.242-3.614-.344-.263-.691-.66-1.234-.414-.051.023-.172-.042-.222-.1-.713-.84-1.8-.852-2.717-1.236a11.757,11.757,0,0,1-1.569-.653c-1.881-1.145-3.722-.288-5.985-1.556-.594-.333-.526-.611-.645-1.1a14,14,0,0,0,1.834.11,2.3,2.3,0,0,1,.59.231c-.1.172-.193.344-.361.639a4.247,4.247,0,0,0,.653.188c.732.091,1.478.1,2.2.248,1.5.3,3.107,1.166,4.087,1.431a11.915,11.915,0,0,1,4.36,2.083,16.039,16.039,0,0,1,2.958,2.339,19.653,19.653,0,0,1,3.361,5.456" transform="translate(-191.505 -29.08)" fill="#42210b"/>
            <path id="Trazado_993032" data-name="Trazado 993032" d="M337.127,138.763c.112.643.3,1.819.687,4.1a7.341,7.341,0,0,1,.248,1.417,10.3,10.3,0,0,1-.337,1.679c-.483-.278-.369-.479-.566-4.108l-.167-.046-.71,1.319-.182-.046c-.044-.537-.259.01.772-2.137.14-.29.165.223-.1-2.121Z" transform="translate(-277.434 -114.558)" fill="#42210b"/>
            <path id="Trazado_993033" data-name="Trazado 993033" d="M334.884,56.675c-.783-.944-.414-1.756.589-4.256.047-.115.274-.161.416-.238.182.71.3-.125-.734,2.5a3.78,3.78,0,0,0-.182.8c-.142.848.535.585.653,1.079a5.069,5.069,0,0,1,.2,1.784c-.089.021-.178.042-.267.064-.71-1.792-.519-1.548-.674-1.733" transform="translate(-276.119 -43.079)" fill="#42210b"/>
            <path id="Trazado_993034" data-name="Trazado 993034" d="M326.379,356c-.051.645-.095.679-.766.535.316-.219.511-.356.766-.535" transform="translate(-268.814 -293.903)" fill="#42210b"/>
            <path id="Trazado_993035" data-name="Trazado 993035" d="M323.9,109.173c-.223.017-.4.03-.638.047-.2-2.3-.21-1.663.114-2.277.335.536.267.053.35,1.686l.161.015q.131-.727.261-1.455c.079,0,.159.007.238.009.384.835-.216,1.915.6,2.636,0,0,.053,0,.07-.03.119-.191.231-.386.344-.579.219.848.265.074-.076,2.77l.03.036-.026-.049.7-.85a3.323,3.323,0,0,1,.424,1.361l-.356.059-.187-.038c-.413.978-.825,1.955-1.249,2.958-.407-.176-.308-.426-.225-.657.725-1.97.778-1.925.766-2.293-.4.458-.3,1.221-1.126,1.61.04-.469.055-.821.1-1.168a7.8,7.8,0,0,0,.184-1.181c-.008-.394-.346-.761-.454-1.745a8.147,8.147,0,0,1-.006-.867" transform="translate(-266.755 -88.289)" fill="#42210b"/>
            <path id="Trazado_993036" data-name="Trazado 993036" d="M231.557,90.305c-2.282-5.348.252-9.613-2.517-12.7a25.961,25.961,0,0,1-3.31-4.752,11.725,11.725,0,0,0-3.088-3.283c-1.728-1.395-3.783-1.716-5.891-1.964-1.921-.227-3.832-.543-5.743-.84-.148-.023-.274-.193-.411-.293.146-.119.289-.335.437-.339.91-.017,3.959.6,7.554,1.069a10.547,10.547,0,0,1,5.946,3.19c2.011,1.911,1.911,3.115,5.011,6.913a6.109,6.109,0,0,1,1.23,2.791c.781,4.04-.409,5.652,1.234,9.823,1.559,3.963,1.262,5.268,1.064,7.14l-.125.008a15.152,15.152,0,0,0-1.391-6.76" transform="translate(-173.861 -54.595)" fill="#42210b"/>
            <path id="Trazado_993037" data-name="Trazado 993037" d="M307.007,265c.091-1.323,1.879-2.977,2.672-4.6.933-1.9,1.631-4.472,2.229-5.421-.363,4.754-3,7.53-4.748,10.077-.051-.021-.1-.04-.153-.059" transform="translate(-253.454 -210.505)" fill="#42210b"/>
            <path id="Trazado_993038" data-name="Trazado 993038" d="M310.3,356.8l.057.142a2.878,2.878,0,0,1-2.137.982c-.125,0-.253-.159-.382-.244.348-.466-.076-.273,2.462-.88" transform="translate(-254.144 -294.557)" fill="#42210b"/>
            <path id="Trazado_993039" data-name="Trazado 993039" d="M317.154,227.59a20.435,20.435,0,0,1-.935,3.556l-.278-.013c-.023-.18-.112-.386-.057-.536.382-1.016.795-2.021,1.27-3.007" transform="translate(-260.768 -187.89)" fill="#42210b"/>
            <path id="Trazado_993040" data-name="Trazado 993040" d="M318.59,92.961v3.228a2.854,2.854,0,0,1,0-3.228" transform="translate(-262.603 -76.745)" fill="#42210b"/>
            <path id="Trazado_993041" data-name="Trazado 993041" d="M309.219,208.683c-1.482,6.18-1.283,4.9-1.478,5.726-.106.458-.382.324-.679.246-.961-.246.831-1.327.3-2.8a4.118,4.118,0,0,1,.066-1.669c.085-.88.195-1.756.3-2.634.008-.072.072-.136.15-.276.721.929.562,1.966.7,2.973l.466-2.178c.047,0,.1,0,.146,0a2.137,2.137,0,0,1,.038.615" transform="translate(-253.261 -171.115)" fill="#42210b"/>
            <path id="Trazado_993042" data-name="Trazado 993042" d="M312.665,344.341a4.483,4.483,0,0,1-.015.814c-.021.11-.257.286-.329.257-.142-.053-.35-.253-.329-.35a4.121,4.121,0,0,1,.341-.8c.112.025.221.049.333.076" transform="translate(-257.567 -284.213)" fill="#42210b"/>
            <path id="Trazado_993043" data-name="Trazado 993043" d="M308.15,74.939c.043.011.089.023.132.036l.483-.861.174.045v3.809c-.521-.291-.5-.791-.6-1.224-.081-.365.068-.8-.5-.933-.115-.027-.223-.36-.223-.551,0-.647.03-1.3.095-1.941.015-.142.216-.373.331-.373a.6.6,0,0,1,.411.318c.07.136.081.437,0,.492-.509.348-.2.793-.3,1.183" transform="translate(-253.956 -60.222)" fill="#42210b"/>
            <path id="Trazado_993044" data-name="Trazado 993044" d="M301.029,158.376c-.133,1.724-.146,1.385-.39,1.694-.114-.1-.329-.208-.326-.306a4.043,4.043,0,0,1,.464-1.82l.193.032a1.856,1.856,0,0,1,.059.4" transform="translate(-247.928 -130.392)" fill="#42210b"/>
            <path id="Trazado_993045" data-name="Trazado 993045" d="M300.145,233.73l.221.04c-.072.893-.144,1.786-.229,2.831-.172-.216-.379-.354-.377-.49a5.328,5.328,0,0,1,.384-2.381" transform="translate(-247.472 -192.959)" fill="#42210b"/>
            <path id="Trazado_993046" data-name="Trazado 993046" d="M292.428,166.155a2.748,2.748,0,0,1-.167,1.82.38.38,0,0,1-.371-.072,3.472,3.472,0,0,1,.537-1.749" transform="translate(-240.957 -137.172)" fill="#42210b"/>
            <path id="Trazado_993047" data-name="Trazado 993047" d="M290.419,254.765l.108.793c-.074.009-.146.021-.219.032-.341-.24-.254-.518-.059-.8l.17-.021" transform="translate(-239.477 -210.325)" fill="#42210b"/>
            <path id="Trazado_993048" data-name="Trazado 993048" d="M280.884,168.566c-.115,1.19-.174,1.258-.954,1.018-.539,1.6-.354,1.179-.706,1.493-.21-.369-.467.034.8-2.85l.859.339" transform="translate(-230.374 -138.882)" fill="#42210b"/>
            <path id="Trazado_993049" data-name="Trazado 993049" d="M283.521,36.153c.008.049-.047.108-.159.337-.642-1.024-.731-.655-.623-2.4,0-.072.163-.169.263-.187.049-.01.169.129.184.212.123.679.231,1.361.335,2.042" transform="translate(-233.388 -27.986)" fill="#42210b"/>
            <path id="Trazado_993050" data-name="Trazado 993050" d="M279.866,221.992c.2.276.532.373-.108.787-.028.019-.2-.18-.371-.346l.479-.441" transform="translate(-230.652 -183.269)" fill="#42210b"/>
            <path id="Trazado_993051" data-name="Trazado 993051" d="M276.968,244.86c-.275,1.9-.551,3.8-.827,5.717-.454-.553.11-5.285.827-5.717" transform="translate(-227.837 -202.148)" fill="#42210b"/>
            <path id="Trazado_993052" data-name="Trazado 993052" d="M269.905,148.705a4.006,4.006,0,0,0-.687.095c-.352.1-.356-.089-.418-.348-.259-1.079.042-1.652,2.29-6.478a4.357,4.357,0,0,1,.394-.575,1.156,1.156,0,0,1,.206,1.344c-.759,1.608-1.447,3.251-2.152,4.888a2.8,2.8,0,0,0-.11.615l.227.055c2.691-6.237,2.244-5.282,2.8-5.756l.148.113c-.9,2.029-1.807,4.057-2.695,6.048" transform="translate(-221.847 -116.734)" fill="#42210b"/>
            <path id="Trazado_993053" data-name="Trazado 993053" d="M264.854,242.044a66.6,66.6,0,0,0-1.262,6.824l-.25-.03c.121-1.139-.089.034,1.043-6.752.019-.121.072-.308.15-.333.515-.163.676-.662,1.039-1.014-.106,2.49-1.135,4.869-.8,7.437-.346.146-.439-.148-.42-.414a35.164,35.164,0,0,1,.715-5.67c-.072-.015-.146-.03-.218-.047" transform="translate(-217.406 -198.745)" fill="#42210b"/>
            <path id="Trazado_993054" data-name="Trazado 993054" d="M264.681,361.6a4.254,4.254,0,0,1,.969-1.951c.2-.271.367-.573.795-.507.242.04,1.68-2.017,1.853-1.947.445.178.636-.187.9-.394.057-.043.151-.038.343-.079-.087.314-.151.551-.214.776.456-.223.9-.439,1.334-.655.358.678.335,1.364-.057,1.476-.233.066-.539-.125-.923-.233-.127.216-.346.566-.541.929-.326.607-.32.611-.889.187-.115.229-.242.443-.335.672-.246.608-.271.621-.838.223-.1.42-.119.85-.719.927-.2.027-.356.513-.507.8-.055.1,0,.272-.062.365a1.38,1.38,0,0,1-.346.269c-.115-.511-.257-.03.462-1.771l-.284-.129c-.7,1.6-.46,1.143-.91,1.6a3.078,3.078,0,0,1-.032-.556" transform="translate(-218.506 -294.494)" fill="#42210b"/>
            <path id="Trazado_993055" data-name="Trazado 993055" d="M263.271,289.209c.333.685.431.778.418,1.171,0,.027-.174.091-.208.064-.348-.286-.274-.244-.21-1.236" transform="translate(-217.302 -238.76)" fill="#42210b"/>
            <path id="Trazado_993056" data-name="Trazado 993056" d="M260.623,359.8l-1.9,3.55-.172-.028a1.318,1.318,0,0,1,.008-.458c.458-1.16.793-2.4,1.875-3.172l.191.108" transform="translate(-213.433 -296.949)" fill="#42210b"/>
            <path id="Trazado_993057" data-name="Trazado 993057" d="M248.616,147.862c.59-1.109.244-.642.73-1.245l.21.064a6.616,6.616,0,0,1-.123.784c-.337,1.2,1.255.375.286,2.354.352-.252.615-.274.738.244.67-.961.764-2.093,1.514-2.944a43.9,43.9,0,0,1-1.928,5.41c-1.474-.878-1.359-.634-1.171-1.974l-.125-.072c-.108.227-.237.448-.322.683-.178.492-.072,1.09-.825.977-.083-.013-.17-.293-.182-.456a7.122,7.122,0,0,1,1.2-3.825" transform="translate(-204.252 -121.042)" fill="#42210b"/>
            <path id="Trazado_993058" data-name="Trazado 993058" d="M256.817,262.111l-.212-.083.04-.1c.38-.944.844-1.855,1.272-2.78l.148.051c-.072.746-.674,3.2-.723,3.406a7.119,7.119,0,0,0-.318,3.414c.01.042-.051.1-.148.284-.121-.244-.278-.413-.265-.562.161-1.6.327-2.382.39-3.614l-.184-.015" transform="translate(-211.844 -213.943)" fill="#42210b"/>
            <path id="Trazado_993059" data-name="Trazado 993059" d="M252.244,363.944c.244-.422.5-.836.765-1.245.013-.021.112.013.3.044-.231.471-.437.906-.666,1.328-.028.055-.186.072-.275.055-.053-.009-.136-.151-.119-.182" transform="translate(-208.242 -299.425)" fill="#42210b"/>
            <path id="Trazado_993060" data-name="Trazado 993060" d="M245.222,140.654l-.314.081c-.051-.21-.1-.42-.138-.634a1.117,1.117,0,0,1,.246-.072c.08.2.142.414.206.624" transform="translate(-202.073 -115.603)" fill="#42210b"/>
            <path id="Trazado_993061" data-name="Trazado 993061" d="M242.613,366.45c-.2.435-.35.768-.5,1.1-.061-.027-.121-.053-.182-.078-.136-.624-.023-.84.685-1.024" transform="translate(-199.686 -302.528)" fill="#42210b"/>
            <path id="Trazado_993062" data-name="Trazado 993062" d="M238.631,125.15c-.727,1.8-.613,1.451-.874,1.783-.091-.14-.286-.306-.257-.418a3.38,3.38,0,0,1,1.084-1.855l.163.072a3.762,3.762,0,0,1-.115.418" transform="translate(-196.069 -102.915)" fill="#42210b"/>
            <path id="Trazado_993063" data-name="Trazado 993063" d="M232.344,195.8c.108-.023.246.108.494.231-.246.189-.367.337-.515.371-.064.015-.259-.2-.257-.307a.418.418,0,0,1,.278-.3" transform="translate(-191.585 -161.646)" fill="#42210b"/>
            <path id="Trazado_993064" data-name="Trazado 993064" d="M230.038,111.541a20.817,20.817,0,0,1,2-3.978,3.519,3.519,0,0,1,.471-.511l.146.1a3.336,3.336,0,0,1-.624,1.489c-.4.738-.842,1.451-1.228,2.2-.148.286,0,.757-.314,1.321-.03.055-.324.049-.335.015a1.08,1.08,0,0,1-.114-.63" transform="translate(-189.894 -88.378)" fill="#42210b"/>
            <path id="Trazado_993065" data-name="Trazado 993065" d="M224.991,99.895c-.791,2.348-2.738,4.133-3.245,6.644-.477-.169-.413-.477-.272-.772a35.319,35.319,0,0,1,3.355-5.982c.055.036.11.072.163.11" transform="translate(-182.756 -82.379)" fill="#42210b"/>
            <path id="Trazado_993066" data-name="Trazado 993066" d="M218.128,100.069l-1.891,3.838-.142-.006c-.112-.861-.8-1.677-.136-2.6.352-.494.73-.969,1.141-1.512.046.231.08.4.133.67l.757-.458.138.072" transform="translate(-178.054 -82.379)" fill="#42210b"/>
            <path id="Trazado_993067" data-name="Trazado 993067" d="M221.775,99.186c-.462,1.181-.816,1.539-1.764,3.406-.32.63-.554,1.3-.852,1.945-.062.134-.237.216-.358.322-.125-.585-.411.191,1.323-3.16.959-1.855.982-2.212,1.493-2.6l.157.085" transform="translate(-180.554 -81.814)" fill="#42210b"/>
            <path id="Trazado_993068" data-name="Trazado 993068" d="M167.583.884l-.131.5a21.163,21.163,0,0,0-6.459-.636c-1.6.021-3.2.1-4.793.182l-.051-.5C157.862.243,160.257,0,161.338,0a23.773,23.773,0,0,1,6.245.884" transform="translate(-128.911 -0.001)" fill="#42210b"/>
            <path id="Trazado_993069" data-name="Trazado 993069" d="M201.679,241.548a35.219,35.219,0,0,0,4.169.021,24.423,24.423,0,0,0,3.361-.806,12.636,12.636,0,0,0,2.612-1.082c1.179-.589,3.752-1.2,5.005-2.012,2.784-1.811,3.433-.664,4.387-2.449a37.343,37.343,0,0,0,3.56-10.1c.361-1.745.045-2.333-.038-7.81a.324.324,0,0,1,.187-.269c.132,2.375.956,5.77.356,8.68a34,34,0,0,1-3.658,10.234,2.049,2.049,0,0,1-1.669,1.217c-1.928.189-2.39,1.382-5.562,2.288a29.39,29.39,0,0,0-2.838,1.169c-7.609,3.058-5.45.416-7.085,3.122l-.293-.114c.106-.422.214-.842.341-1.345a20.345,20.345,0,0,0-2.8-.178,8.74,8.74,0,0,1-2.541-.677l.108-.39a13.264,13.264,0,0,0,2.4.5" transform="translate(-164.431 -179.185)" fill="#42210b"/>
            <path id="Trazado_993070" data-name="Trazado 993070" d="M213.313,367.564a3.4,3.4,0,0,1-.078.715c-.473-.2-1.052-.4-1.054-.558,0-.11.087-.316.127-.316a4.049,4.049,0,0,1,1,.159" transform="translate(-175.169 -303.316)" fill="#42210b"/>
            <path id="Trazado_993071" data-name="Trazado 993071" d="M211.553,200.736c.051-.373.435-.5.948-.354-.108,1.211-1,.734-.948.354" transform="translate(-174.649 -165.381)" fill="#42210b"/>
            <path id="Trazado_993072" data-name="Trazado 993072" d="M208.9,185.267c-.049.051-.1.1-.148.151a6.122,6.122,0,0,1-.8-.3c-.04-.021,0-.371.081-.413.791-.4.71.08.865.56" transform="translate(-171.665 -152.365)" fill="#42210b"/>
            <path id="Trazado_993073" data-name="Trazado 993073" d="M201.667,110.776a1.265,1.265,0,0,0-1.283-1.158,1.514,1.514,0,0,0-1.459.751l-.386-.051c.008-.019.015-.038.021-.057.379-1.141.9-.636,1.224-1.311.248-.509.475-1.031.681-1.559a1.43,1.43,0,0,0,.008-.477c-.609.751-.793,1.709-1.542,2.3l-.238-.085a3.768,3.768,0,0,1,.216-.6c.163-.293.4-.549.541-.85,1.6-3.44-.1-6.394-.333-7.443a24.74,24.74,0,0,0-.952-4.561l.49-.174c.08.223.159.443.238.664l.159.025c.2-.354.43-.7.6-1.067.117-.25.237-.511.532-.356.136.07.206.363.212.558a7.281,7.281,0,0,1-.1.874c-.017.2,0,.409,0,.613.062.013.125.025.187.036l.424.18a3.723,3.723,0,0,0-.39,1.8c.21,4.608.638,6.674.708,8.024a3.3,3.3,0,0,0,.632,2.006,2.339,2.339,0,0,1,.231.492l-.151.121-.944-.681c-.32.937,1.118.566,1.1,2Z" transform="translate(-163.597 -78.199)" fill="#42210b"/>
            <path id="Trazado_993074" data-name="Trazado 993074" d="M204.432,295.32c-.346.543-.706,1.082-1.08,1.608a.324.324,0,0,1-.316.017c-.233-.242.149-.547.505-1.024.176-.235.337-.479.5-.719l-.174-.13c-.931,1.02-.543.609-1.482,1.573l-.187-.062c-.066-.4-.134-.795-.2-1.192-.013-.081.042-.2,0-.246-.678-.74.021-1.362.182-2.015s.388-1.315.851-2.729l.206-.007c.072.653.31-.233-1.056,4.188,0,0,0,0,0,0l0,0s0,.006,0,.009l.032.036-.028-.045v-.006c.672-.8.36-.076,1.6-3.052.085.066.17.13.256.195a29.01,29.01,0,0,1-1.618,3.927l.108.093c.53-.52,1.058-1.041,1.58-1.555.2.518.424.959.312,1.133" transform="translate(-166.531 -239.737)" fill="#42210b"/>
            <path id="Trazado_993075" data-name="Trazado 993075" d="M197.743,294.8a4.472,4.472,0,0,1-1.02,3.051c.038-.418.064-.723.093-1.035-.53-.252-.607-.795-.095-1.573.076.49.134.867.191,1.243h.1c.233-.534.464-1.067.732-1.686" transform="translate(-162.12 -243.373)" fill="#42210b"/>
            <path id="Trazado_993076" data-name="Trazado 993076" d="M204.424,314.4s0,0,0,0v.006Z" transform="translate(-168.765 -259.556)" fill="#42210b"/>
            <path id="Trazado_993077" data-name="Trazado 993077" d="M196.843,209.67c-.148.178-.3.356-.441.534a1.9,1.9,0,0,1-.212-.178c.123-.2.263-.379.4-.564l.254.208" transform="translate(-161.967 -172.924)" fill="#42210b"/>
            <path id="Trazado_993078" data-name="Trazado 993078" d="M139.483,25.293a3.049,3.049,0,0,0,.935.49c0,.043,0,.085.006.127-5.853.655-6.1.651-7.068.844a4.47,4.47,0,0,1-1.5.151,2.4,2.4,0,0,0-1.991,1.054,6.173,6.173,0,0,1-.534.537c-.046-.028-.091-.055-.136-.081.015-.21.032-.42.047-.609a.922.922,0,0,0-.074-.059,2.146,2.146,0,0,1-1.559.206,4.983,4.983,0,0,0-1.7.433,19.033,19.033,0,0,0-1.877.668l-.225-.5c.384-.17.806-.377,1.279-.636.8-.437,1.031-.978,2.543-2.223l.144.132-1.406,1.487c.038.036.076.072.112.108a32.621,32.621,0,0,1,2.92-2.21l.129.153-1.781,1.69a1.172,1.172,0,0,0,1.221-.308c.806-.772,1.627-1.527,2.451-2.282a4.146,4.146,0,0,1,.5-.337c.049.038.1.076.15.115-.218.435.146.184-1.818,1.885a5.809,5.809,0,0,1-.623.413l.235.306c1.395-.746.231.036,2.661-2.051a4.727,4.727,0,0,1,.651-.4c.044.053.085.106.127.159q-.624.664-1.251,1.33l.153.214c1.243-.481-.053.271,2.979-2.044a3.87,3.87,0,0,1,.734-.352l.148.222-2.186,1.828c.749.208,1.1.078,1.472-.428a10.862,10.862,0,0,1,2.313-1.87l.17.144a1.916,1.916,0,0,1-.3.509c-.345.306-.732.566-1.088.861a2.029,2.029,0,0,0-.286.375c.549.337-.061.314,2.193.149a.842.842,0,0,1,.712-1.188,3.258,3.258,0,0,0,.426.988" transform="translate(-102.213 -19.364)" fill="#42210b"/>
            <path id="Trazado_993079" data-name="Trazado 993079" d="M191.282,137.776c0,.517.161.4-.473,1.873a.439.439,0,0,1-.282.193c-.038.012-.151-.127-.172-.212a2.709,2.709,0,0,1,.927-1.855" transform="translate(-157.141 -113.743)" fill="#42210b"/>
            <path id="Trazado_993080" data-name="Trazado 993080" d="M193.105,129.735c.055-.006.119.062.18.1-.2.278-.11.248-.371.064.085-.08.134-.159.191-.165" transform="translate(-159.263 -107.105)" fill="#42210b"/>
            <path id="Trazado_993081" data-name="Trazado 993081" d="M189.251,191.87c.089-.047.288.115.6.257a4.978,4.978,0,0,1-.693.494c-.04.021-.3-.238-.275-.293a.929.929,0,0,1,.369-.458" transform="translate(-155.933 -158.394)" fill="#42210b"/>
            <path id="Trazado_993082" data-name="Trazado 993082" d="M188.152,294.167c-.076.447-.132.785-.2,1.207-.645-.392-.583-.753.2-1.207" transform="translate(-154.8 -242.854)" fill="#42210b"/>
            <path id="Trazado_993083" data-name="Trazado 993083" d="M184.5,138.02a1.731,1.731,0,0,1-.006.454c-.71,2.538-.592,2-1.063,2.392-.074-.619-.293.121.827-2.9l.242.049" transform="translate(-151.377 -113.904)" fill="#42210b"/>
            <path id="Trazado_993084" data-name="Trazado 993084" d="M143.772,334.585c-1.516-.45-6.652-1.4-10.978-3.639a1.308,1.308,0,0,1-.728-1.077c.2.038.394.019.505.1a18.047,18.047,0,0,0,5.573,2.471c.851.278,3.607,1.177,5.736,1.75Z" transform="translate(-109.029 -272.328)" fill="#42210b"/>
            <path id="Trazado_993085" data-name="Trazado 993085" d="M178.608,389.948c1.584.384,1.258.2,1.306.757-.367-.023-1.554.083-1.306-.757" transform="translate(-147.425 -321.927)" fill="#42210b"/>
            <path id="Trazado_993086" data-name="Trazado 993086" d="M179.3,292.735c.089.028.18.057.271.083-.021.337-.04.672-.068,1.187-.613-.526-.6-.17-.2-1.27" transform="translate(-147.793 -241.671)" fill="#42210b"/>
            <path id="Trazado_993087" data-name="Trazado 993087" d="M175.469,105.816c.331.286.006.522-.045.765-.214,1.011-.066.157-.367,1.828-.607-.666-.431-1.521.413-2.592" transform="translate(-144.223 -87.358)" fill="#42210b"/>
            <path id="Trazado_993088" data-name="Trazado 993088" d="M170.455,95.61c-.068.59.182-.087-1.224,4.326-.038.119-.17.206-.257.308-.38-.511-.541.14,1.014-4.313a1.9,1.9,0,0,1,.248-.39l.219.068" transform="translate(-139.287 -78.876)" fill="#42210b"/>
            <path id="Trazado_993089" data-name="Trazado 993089" d="M174.123,295.34l-.034.71-.146.074c-.1-.132-.276-.265-.274-.394,0-.168.151-.333.237-.5l.218.11" transform="translate(-143.375 -243.731)" fill="#42210b"/>
            <path id="Trazado_993090" data-name="Trazado 993090" d="M165.9,282.863c.049.036.1.072.148.106-.469,1.071-1.493,1.911-1.41,3.251-1.06-.009-.594-.467,1.01-3.221.042-.07.167-.093.252-.136" transform="translate(-135.449 -233.521)" fill="#42210b"/>
            <path id="Trazado_993091" data-name="Trazado 993091" d="M162.421,94.031a3,3,0,0,1,.276-.484c.064.019.129.038.193.059a3.1,3.1,0,0,1-.049.613c-.161.562-.369,1.111-.526,1.673-.952,3.41-.552,2.572-1.029,3.039-.354-.558-.664.221,1.135-4.9" transform="translate(-132.927 -77.229)" fill="#42210b"/>
            <path id="Trazado_993092" data-name="Trazado 993092" d="M157.328,278.5a14.271,14.271,0,0,1,2.749-4.335c.062.047.123.1.184.146-.827,1.593-2.367,2.812-2.594,4.735-.43-.032-.524-.1-.339-.545" transform="translate(-129.809 -226.338)" fill="#42210b"/>
            <path id="Trazado_993093" data-name="Trazado 993093" d="M161.783,8.451c.025.072.049.142.072.214-.187.4-.454.454-.772.259-.021-.081-.042-.163-.062-.242l.763-.231" transform="translate(-132.932 -6.977)" fill="#42210b"/>
            <path id="Trazado_993094" data-name="Trazado 993094" d="M145.16,263.477c.132-.1.129-.044.07-.191-.019.053-.038.106-.07.191m-.965-1.839c.053.036.1.072.157.11l1.145-1.256a2.731,2.731,0,0,1,.265.645c.149-.089.352-.14.443-.271a22.328,22.328,0,0,0,1.243-1.972c.537.371.252.45-.689,1.892a2.4,2.4,0,0,0-.163.367l.115.074,1.3-1.652c.068.042.138.082.206.123a1.25,1.25,0,0,1-.142.379c-3.588,4.337-2.385,4.54-2.984,5.2-.2-.431-.411-.857-.587-1.3a6.339,6.339,0,0,1-.431-1.68c-.152-.551-.288-.5-.778-.715.019-1.34,1.926-3.98,3.039-4.165a3.413,3.413,0,0,1-.889,2.282,9.9,9.9,0,0,0-1.187,1.533c-.07.1-.044.263-.062.4" transform="translate(-118.298 -212.519)" fill="#42210b"/>
            <path id="Trazado_993095" data-name="Trazado 993095" d="M149.364,378.363c.1.254.176.452-.074.579a1.2,1.2,0,0,1-.64.1c-.114-.009-.21-.178-.31-.271-.481.182-.876.693-1.466.267.138-.549.679-.5,1.018-.715.189-.121.435-.15.628-.267.605-.361.57-.356.844.31" transform="translate(-121.254 -311.909)" fill="#42210b"/>
            <path id="Trazado_993096" data-name="Trazado 993096" d="M141.551,370.55c.034.06.07.121.1.182-.059.1-.095.25-.182.291-1.548.742-2.572,1.472-3.486.452-.1-.117-.055-.367-.076-.556.191-.011.462-.11.562-.019.9.819,1.6.24,3.077-.35" transform="translate(-113.855 -305.913)" fill="#42210b"/>
            <path id="Trazado_993097" data-name="Trazado 993097" d="M145.733,100.975c.246-.8.482-1.6.772-2.384.032-.089.363-.068.657-.114.168-.407.384-.931.6-1.455l.246.066-.551,2.593.223.066a40.187,40.187,0,0,1,1.359-3.923l.22.085c-.5,1.669-.994,3.338-1.5,5.053-.378-.613-1.173-1.031-.655-2.015-.081.006-.163.011-.246.015-.17.606-.344,1.211-.509,1.819-.032.119.011.271-.043.371a.531.531,0,0,1-.307.242c-.061.015-.172-.14-.24-.233a.239.239,0,0,1-.021-.185" transform="translate(-120.305 -79.109)" fill="#42210b"/>
            <path id="Trazado_993098" data-name="Trazado 993098" d="M140.676,144.033c0,.059-.132.172-.208.178a.489.489,0,0,1-.339-.106,1.842,1.842,0,0,1,.424-1.892c.045.634.1,1.226.123,1.82" transform="translate(-115.584 -117.406)" fill="#42210b"/>
            <path id="Trazado_993099" data-name="Trazado 993099" d="M132.163,241.508c.464.56.138.867-.043,1.3-.435-.528-.013-.818.043-1.3" transform="translate(-108.913 -199.38)" fill="#42210b"/>
            <path id="Trazado_993100" data-name="Trazado 993100" d="M130.673,139.274c-.791.432-.891-2.5.146-3.147a6.351,6.351,0,0,0-.146,3.147" transform="translate(-107.373 -112.382)" fill="#42210b"/>
            <path id="Trazado_993101" data-name="Trazado 993101" d="M126.228,134.691q-.21,1.03-.418,2.059l-.166-.028q.167-1.033.337-2.07l.248.04" transform="translate(-103.726 -111.163)" fill="#42210b"/>
            <path id="Trazado_993102" data-name="Trazado 993102" d="M84.26,52.7l.225.5c-.517.225-.806.409-1.442.7-.708.326-1.44.6-2.129.959-.458.24-.848.607-1.285.9-.922.606-1.83,1.1-3.726,2.394.4-1.805,1.862-1.72,3.5-3.1,1.824-1.539,2.786-1.429,4.862-2.35" transform="translate(-62.663 -43.509)" fill="#42210b"/>
            <path id="Trazado_993103" data-name="Trazado 993103" d="M114.331,228.086l.064.07,1.079-1.217.2.085c0,.176.009.35,0,.524-.009.125-.115.284-.07.365.34.6-.108,1.058-.223,1.58-.1.471-.3.617-.706.4-.148.3-.271.555-.394.808l-.229-.068c.117-.992.114-.681-.087-1.139-.649.342-.581.4-.766.445a1.188,1.188,0,0,0-.57.4l-.333-.178c.2-.265.4-.541.6-.812a.6.6,0,0,0-.117-.011l.237-.458.274.125c.189-.49.59-.878.738-1.387l.42.136-.108.331" transform="translate(-92.702 -187.353)" fill="#42210b"/>
            <path id="Trazado_993104" data-name="Trazado 993104" d="M118.7,118.4l.488-.195c-.963,4.033-.555,2.8-.867,3.516a1.379,1.379,0,0,1-.376-.246.792.792,0,0,1-.191-.49c.089-.772.189-1.546.344-2.309.1-.494.284-.551.6-.276,0,.017,0,.032,0,.049-.036.061-.074.121-.11.184l.095.028c.006-.07.011-.142.015-.212.008-.011.013-.023.021-.034a.12.12,0,0,0-.017-.015" transform="translate(-97.214 -97.586)" fill="#42210b"/>
            <path id="Trazado_993105" data-name="Trazado 993105" d="M123.191,119.337l-.021.034c0-.017,0-.032,0-.049a.12.12,0,0,1,.017.015" transform="translate(-101.685 -98.508)" fill="#42210b"/>
            <path id="Trazado_993106" data-name="Trazado 993106" d="M110.183,200.631c.066.059.131.117.2.178-1.6,2.254-1.442,1.894-1.76,2.044-.087-.477-.411,0,1.563-2.222" transform="translate(-89.612 -165.634)" fill="#42210b"/>
            <path id="Trazado_993107" data-name="Trazado 993107" d="M101.106,244.09c.293-.4.585-.8.882-1.2l.291.222a.451.451,0,0,0-.1.216.369.369,0,0,0,.155.3.41.41,0,0,0,.377-.036c.072-.085.142-.172.212-.261l.333.178a1.294,1.294,0,0,0-.344.99c.009.057.066.1.157.237a3.317,3.317,0,0,0,.888-.971c.072.062.144.123.218.184-1.279,1.941-.626,1.274-1.344,1.945-.274-.674-.21-.466-.195-.749-.731.134-.6.339-.833-.439l-.859.081c.053-.225.106-.454.159-.679l.009,0a.055.055,0,0,1,0-.017" transform="translate(-83.333 -200.518)" fill="#42210b"/>
            <path id="Trazado_993108" data-name="Trazado 993108" d="M95.466,180.985c.025.044.049.087.072.132-.619.744-1.224,1.5-1.862,2.231-.621.712-.908,1.7-1.815,2.314-.015-.505,2.551-4.038,3.259-4.61.079-.066.229-.047.346-.068" transform="translate(-75.837 -149.415)" fill="#42210b"/>
            <path id="Trazado_993109" data-name="Trazado 993109" d="M93.342,175.051c-.348.846.373-.212-2.564,3.366-.252.307-.448.659-.71.956-.074.085-.284.051-.431.072.125-.492-.452.274,3.3-4.322a1.177,1.177,0,0,1,.231-.17l.172.1" transform="translate(-74.001 -144.435)" fill="#42210b"/>
            <path id="Trazado_993110" data-name="Trazado 993110" d="M94.748,212.851c.055.055.11.108.165.161a1.1,1.1,0,0,0,.367-.189c3.586-4.25,2.907-3.437,3.155-4.2-.061-.027-.121-.051-.182-.076-1.181,1.425-2.449,2.78-3.5,4.3m-.908.732c.982-1.412,1.866-2.526,2.99-3.879,2.329-2.806,1.828-2.216,2.615-2.629a8.269,8.269,0,0,1-1.408,3.5l.142.114a2.579,2.579,0,0,0,.418-.418,25.74,25.74,0,0,0,1.3-2.3l.308.223q-.514,1.581-1.026,3.156l-.42-.136a1.408,1.408,0,0,0,.057-.376,3.733,3.733,0,0,0-1.069,1.639l-.237.458a1.688,1.688,0,0,0-1.122.6l-.291-.221c.1-.129.195-.259.293-.388.2-.271.269-.5-.11-.751-.522.727-1.4,1.249-1.065,2.343,0,0,0,0,0,0s0,.006,0,.009c-.059-.025-.134-.077-.163-.059-.651.437-.812-.293-1.181-.509-.066-.038-.085-.3-.023-.388" transform="translate(-77.439 -170.954)" fill="#42210b"/>
            <path id="Trazado_993111" data-name="Trazado 993111" d="M92.528,175.705c.689-.416.98-.908,1.546-1.207l.115.1A27.941,27.941,0,0,1,92.3,177.34c-.081.112-.255.153-.386.227-.059-.144-.187-.3-.165-.432a1.829,1.829,0,0,1,.778-1.431" transform="translate(-75.744 -144.059)" fill="#42210b"/>
            <path id="Trazado_993112" data-name="Trazado 993112" d="M94.541,212.462c.923-1.805,2.557-2.922,3.828-4.341.11-.121.331-.142.5-.21.036.055.074.108.11.163-3.792,4.093-3.6,3.931-3.643,4.082-.108.377-.348.424-.8.306" transform="translate(-78.05 -171.644)" fill="#42210b"/>
            <path id="Trazado_993113" data-name="Trazado 993113" d="M101.859,249.786a.054.054,0,0,0,0,.017l-.009,0s0-.006,0-.009,0,0,0,0" transform="translate(-84.086 -206.214)" fill="#42210b"/>
            <path id="Trazado_993114" data-name="Trazado 993114" d="M96.7,185.2c.034-.768-.3.18,3.382-5.181.182-.263-.11-.061.643-.551-.01.214.062.486-.044.63-1.086,1.5-1.338,1.678-2.515,3.344.053.049.108.1.163.149q.957-.954,1.913-1.911c.062.06.127.121.189.184q-1.138,1.283-2.275,2.57l-.125-.074v-.638a1.655,1.655,0,0,0-.867,1.126,1.483,1.483,0,0,1-.265.443c-.011.013-.2-.062-.2-.091" transform="translate(-79.832 -148.161)" fill="#42210b"/>
            <path id="Trazado_993115" data-name="Trazado 993115" d="M94.244,86.257a4.618,4.618,0,0,0,1.89-1.071l-1.953-.3c.021.469.04.871.062,1.376m12.894-.918c.1.265.093.647.278.793a15.155,15.155,0,0,0,1.624.986,1.128,1.128,0,0,0-.021-.248c-.658-1.23-1.565-2.362-1.531-3.87,0-.1-.142-.288-.187-.278-1.359.254-1.058.308-.163,2.617m-.29.4c-.144-.157-.263-.4-.437-.445a1.672,1.672,0,0,0-.67.112q.008.1.017.21c.307.1.611.2.916.3.059-.061.117-.121.174-.182m.638-3.768c.032-.577,0-.46,0-3.189l-.308-.042a6.663,6.663,0,0,1-1.728,3.976c.628-.087,1.2-.14,1.756-.265.127-.03.269-.309.278-.481m-1.241,2.3c-.134-.256-.288-.736-.4-.727a2.776,2.776,0,0,0-.884.409c.013.083.025.167.038.25l1.054.278c.062-.07.125-.14.189-.21M90.958,65.314h-3.6c1.149,1.38,2.4,1.37,3.6,0m2.935,35.276c.057-.149.2-.333.153-.441-.061-.146-.263-.231-.4-.34l-.142.108.165.647c.076.009.151.019.227.027M91.71,92.6a37.068,37.068,0,0,0,1.476,6.659c.046,0,.093-.009.14-.015a6.368,6.368,0,0,0,.167-.719c.078-.655-.081-1.353-.008-1.955a34.482,34.482,0,0,1,1.031-4.4c.032-.123.221-.206.337-.309.231.445.129.17-.916,3.552-.081.263-.354.592.182.836.539-.948.528-2.074,1.207-2.926.2.5-.076.556-1.209,4.358a2.344,2.344,0,0,0-.053,1.849,18.526,18.526,0,0,0,.778-2.222,6.682,6.682,0,0,1,.986-2.18.729.729,0,0,1,.025.507c-1.866,5.622-1.495,4.173-1.455,5.272l.193,0a19.293,19.293,0,0,1,1.733-4.464.435.435,0,0,1,.055.365c-1.467,3.768-1.9,4.19-1.039,4.894a21.751,21.751,0,0,1,1.69-4.47c.127.39-.044.377-1.124,3.561a3.3,3.3,0,0,0-.165.986c0,.176.148.354.229.53.462-.993.762-1.96,1.132-2.893l.212.083a9.1,9.1,0,0,0-.725,4.069c-.568-.4-.494-1.063-1.1-1.34-.486-.222-1.067-.861-1.366-.778.327.706.658,1.4.975,2.11,1.571,3.5,6.568,2.963,7.376,1.593.233-.4.414-.823.64-1.226a3.509,3.509,0,0,1,.439-.494c.04.407.061.624.089.92a5.356,5.356,0,0,0,1.518-1.72c4.6-7.974,2.986-4.74,4.593-8.894-.611.083-.345-.176-.984.946a2.2,2.2,0,0,1,.363-1.951c.854-.515.7-1.3.626-2.049-.413-4.366-3.4-4.114-6.822-4.767-1.637-.312-4.114-1.476-7.952.806-1.319.785-1.221,2.856-2.651,4.1A1.917,1.917,0,0,0,91.71,92.6m2.967,11.693a14.793,14.793,0,0,0-2.218-4.8c.061.575-.225,1.086.4,1.4.331.167.3,1.079.621,2.07.189.579.331,1.253,1.192,1.332M92.3,98.913c.159-1.079-.4-1.974-.662-2.944a7.363,7.363,0,0,0,.662,2.944M91.312,85a.8.8,0,0,0,.248,1.067c.944.78,1.459,1.238,2.04.282.278-.458.288-1.128-.045-1.328a11.756,11.756,0,0,0-1.338-.6c-.316.191-.723.31-.9.579m-2.087-15.02A7.878,7.878,0,0,1,91.218,67.1a3.977,3.977,0,0,1,2.816-.893c.045,0,.1-.053.214-.119a1.878,1.878,0,0,0-.346-.168c-3.12-.729-4.05,2.235-6.116.819-.893-.613-1.866-1.113-2.808-1.65a2.291,2.291,0,0,0-1.951-.068c2.371-.08,3.02,1.079,4.67,2.714-.233.093-.377.151-.545.219.085.235.165.462.246.685l-.49.174c-.138-.394-.3-.815-.5-1.272a3,3,0,0,0-3.158-1.724c-6.088.131-6.513-.7-10.395,4.523a5.134,5.134,0,0,0-1.4,3.571l-.515.036c-.064-.7-.043-1.291-.112-1.642-1.205,2.471-.38,3.321-1.531,5.658-.63,1.281-.655,1.23-1.542,1.823a.641.641,0,0,1,.1-.946c2.725-2.284.765-5.509,3.473-8.769,2.326-2.8,4.759-5.323,8.394-5.026a1.692,1.692,0,0,0,1.047-.29,6.916,6.916,0,0,1,1.565-.456c.246-.07.486-.168.731-.256v-.159c-1.805-1.041-1.7-1.118-2.651-1.046a8.513,8.513,0,0,0-2.572.484c-4.07,1.7-4.691,2.036-5.565,2.367a4.849,4.849,0,0,0-3.3,4.035c-.365,2.627-1.311,5.094-1.9,7.658-.435,1.906-1.037,3.773-1.485,5.677-.3,1.257-.339,2.328-.5,3.448a10.708,10.708,0,0,1-.823,2.956c-.14.318-.129.7-.242,1.035-.051.151-.237.257-.361.384-.1-.163-.291-.337-.272-.486.206-1.677.993-2.18,1.329-5.573.539-5.454,2.8-9.543,3.482-14.8a5.958,5.958,0,0,1,3.8-4.983c7.047-2.935,5.982-2.7,9.061-2.859.642-.032,2.258,1.23,4.146,2.2,1.342.689,3.851.2,6.809.522a41.533,41.533,0,0,1,6.2,1.805,9.5,9.5,0,0,1,3.45,2.046,17.215,17.215,0,0,1,3.355,4.084c1.37,2.068,3.041,4.421,2.971,6.9-.085,3.149-.112,3.491.174,4.131,1.608,3.588,2.475,4.44,2.324,8.686a11.821,11.821,0,0,1-1.919,5.739c-2.065,3.412-2.875,5.915-5.219,7.41-.373.238-.6.691-.939.992a7.474,7.474,0,0,1-3.529,2.106,3.716,3.716,0,0,1-1.429-.034c-2.524-.4-1.96.5-5.378,2.117a3.171,3.171,0,0,1-2.793.117,12.8,12.8,0,0,1-1.826.138,7.632,7.632,0,0,1-2.191-.772c-2.415-1.38-3.469-.6-6.462-2.428-2.106-1.283-2.875-1.877-3.622-2.967l.344-.133a5.87,5.87,0,0,0,.611.66,1.5,1.5,0,0,0,.044-.367,7.159,7.159,0,0,1-.329-3.211c.034-.365.074-.727.129-1.08l.475.07a10.107,10.107,0,0,0-.053,2.371,4.476,4.476,0,0,0,1.716,3.374c2.742,2.1,4.384,1.393,7.952,3.234a2.873,2.873,0,0,0,2.725.271,7.3,7.3,0,0,0,1.145-.664,5.033,5.033,0,0,0,1.152-6.332c-.061-.11.059-.322.093-.485a1.23,1.23,0,0,1,.363.252,4.541,4.541,0,0,1,.318.695c.095-.2.166-.273.157-.339-.333-2.485-1.12-9.157-2.089-11.3l.532-.144c.112.25.271.477.482.84a2.042,2.042,0,0,0,.129-.45A2.486,2.486,0,0,1,92.107,90.1a5.785,5.785,0,0,0,1.255-2.369c.042-.093-.019-.231-.034-.346a1.361,1.361,0,0,1-1.4-.38,2.275,2.275,0,0,0-.316-.208c-.278-.138-.473-.066-.505.178l-.337-.068a.645.645,0,0,0,0-.384,1.063,1.063,0,0,0-.706-.674l.494-.168c.027.017.057.034.087.057l.125-.091q-.025-.369-.051-.738l-.267-.046-.348-.028a1.36,1.36,0,0,0,.306-.876c0-.017,0-.034,0-.051l.426.009c0,.046,0,.095-.006.144-.009.136,0,.274,0,.465l1.206-.452-.893-1.124c.051-.051.1-.1.157-.153a1.872,1.872,0,0,1,.371.2c1.289,1.109,2.937,1.258,4.485,1.514a18.31,18.31,0,0,0,3.968.006,6.549,6.549,0,0,0,5.507-3.153c2.225-3.573.138-6.039-1.654-8.658a13.342,13.342,0,0,0-4.727-4.727,5.555,5.555,0,0,0-1.024-.473,14.491,14.491,0,0,0-4.422-.564,3.534,3.534,0,0,0-3.431,2.008c-.1.229-.443.64-.721,1.215Zm13.036,15.1c.92-.059,1.783.592,2.748-.034-1.111-.761-2.318-.761-2.748.034m-1.416,22.061c.015-.008,0-.078,0-.019-3.259-.5-3.155-.511-3.35-.424-1.466.659-2.339-.53-3.946-2-.2,1.319-.068,1.12-.176,1.881-.115.827-.034.914.776.691a2.411,2.411,0,0,1,1.642-.034c-.764.411-.853.371-2.979,1.4-.348-.768.1-1.591-.407-2.364a8.042,8.042,0,0,1-2.038,4.161,1.982,1.982,0,0,0,1.012-.074,18.593,18.593,0,0,0,2.822-1.535,3.961,3.961,0,0,1,3.274-.736c1.294.256,2.3-.433,3.366-.948" transform="translate(-52.34 -51.333)" fill="#42210b"/>
            <path id="Trazado_993116" data-name="Trazado 993116" d="M16.223,7.333c0-.006.006-.01.008-.015l-.019-.034ZM3.729,34.434A17.667,17.667,0,0,1,1.7,37.963a.49.49,0,0,0-.129.337,24.362,24.362,0,0,0,.244,3.139c.348,1.79,1.2,3.442,1.431,5.287a38.551,38.551,0,0,0,.994,4.288c1.175,4.769.636,4,4.888,8.186,2.74,2.7,2.835,2.473,3.217,2.952A12.509,12.509,0,0,0,15.687,65.2c.844.507,1.616,1.132,2.43,1.69a6.734,6.734,0,0,0,1.955,1.237c3.913.925,4.15,2.477,6.822,2.789,6.549.766,5.787,1.883,12.071,2.479,4.082.386,7.028-1.311,8.943-2.174,4.241-1.915,4.218-3.039,5.361-3.675,5.195-2.892,7.925-4.086,10.126-6.33A16.06,16.06,0,0,0,66.4,57.195c.655-1.309,1.539-2.505,2.171-3.825.6-1.262.982-2.63,1.52-3.928.753-1.824.505-3.872.6-5.047.371-4.6-2.528-5.07-1.514-12.631.384-2.859.405-4.089-1.274-7.691s-2.649-7.94-3.469-9.382a12.1,12.1,0,0,0-4.935-4.6c-.439.636.1-.532-1.61,4.135-.053.144-.208.25-.316.373-.223-.617-.2-.462-.1-.732q.744-2.109,1.489-4.22a62.507,62.507,0,0,0-5.948-3.206c-.539-.267-1.147-.4-1.679-.678C46.735,3.348,44.68,5.342,40,3.817c-.515-.168-1-.31-1.463-.431l.13-.5a19.1,19.1,0,0,0,7.473.865A11,11,0,0,1,51.9,5.117c6.315,2.9,12.807,6.167,14.295,11.9,2.057,7.936,4.54,8.737,3.857,13.939-.127.961-.174,1.932-.28,2.9-.418,3.826,1.323,5.272,1.764,9.95a18.647,18.647,0,0,1-.076,2.716,8.549,8.549,0,0,1-.2,2.051c-2.03,6.51-2.434,5.859-3.223,7.56a22.46,22.46,0,0,1-3.507,5.295c-1.589,1.822-5.8,4.144-7.757,5.191-5.605,3-2.763,2.9-10.8,6.58a14.833,14.833,0,0,1-4.562,1.1,21.552,21.552,0,0,1-5.777-.407c-1.026-.157-1.991-.666-3.009-.91-5.089-1.222-5.989-1.1-7.04-1.412-2.083-.623-2.352-1.915-5.263-2.453a5.312,5.312,0,0,1-1.794-.846c-5.942-3.8-4.981-3.484-6.523-4.92-.713-.664-2.08-1.792-2.907-2.663-1.232-1.294-2.409-2.645-3.688-3.893A4.681,4.681,0,0,1,4.22,54.633a33.85,33.85,0,0,1-1.482-5.982c-.815-4.769-.5-3.435-1.058-4.636a12.465,12.465,0,0,1-.92-5.174C.679,35.291-.665,32.6.423,30.077,1.1,28.514,1.7,26.919,2.467,25.4a59.878,59.878,0,0,1,5.353-8.054c2.661-3.819,2.625-4.129,3.389-6.621a4.492,4.492,0,0,1,1.425-1.962c1.024-.946-.032-.744,1.4-1.607A39.916,39.916,0,0,1,19.2,4.532c.537-.256,1.064-.537,1.669-.848.265.28.615.13,1.033-.047.874-.373,1.188-.274,2.375-.776.517-.22-.061-.117,1.688-.3.335-.034.776-.081,1.277-.134l.051.5a.788.788,0,0,0-.507.3c-.543.727-1.054,1.476-1.576,2.216-.556-.411-.447-.36,1.062-2.174a2.446,2.446,0,0,0-2,.5A13.2,13.2,0,0,0,21.97,7.233c-.106-.117-.231-.284-.189-.365a22.583,22.583,0,0,1,1.75-2.973L23.359,3.7c-.418.233-.99.361-1.23.715C21,6.086,19.595,7.585,18.855,9.5c-.015.043-.093.062-.28.18a17.753,17.753,0,0,1,2.944-5.117,1.467,1.467,0,0,0-1.434.791c-2.5,3.887-1.3,2.021-3.97,6.163-.062-.038-.125-.074-.185-.112,1.2-2.108,2.458-4.188,3.688-6.294a4.043,4.043,0,0,0-2.239,1.455,58.42,58.42,0,0,0-3.367,5.5A4.056,4.056,0,0,1,14.4,10.9c.6-1.192,1.213-2.377,1.822-3.563-1.559,2.1-.719.723-3.175,5.026-.322-1.327.042-1.444.433-2.176.3-.56.594-1.124.9-1.7-.127-.03-.178-.062-.2-.047a4.856,4.856,0,0,0-2.324,2.787c-1.735,5.467-2.4,4.729-4.668,8.048-2.5,3.654-2.524,2.854-6.054,10.868a4.107,4.107,0,0,0-.112,3A10.661,10.661,0,0,0,1.8,31.1c.108-.29.3-.45.641-.233-.138,1.02-.768,1.913-.746,2.965.483-.486.441-1.289,1.115-1.652.049.555-.244.761-1.126,2.937a5.4,5.4,0,0,0-.2.95c.062.015.125.03.187.044q.554-1.15,1.107-2.3l.276.127L1.667,37.113l.169.081c.571-.984,1.141-1.97,1.762-3.039.1.2.138.246.132.278" transform="translate(0 -2.006)" fill="#42210b"/>
            <path id="Trazado_993117" data-name="Trazado 993117" d="M90.006,58.528l.015.032-.013-.013Z" transform="translate(-74.306 -48.318)" fill="#42210b"/>
            <path id="Trazado_993118" data-name="Trazado 993118" d="M95.969,145.166a1.459,1.459,0,0,0,1.3-1.247,2.4,2.4,0,0,0-.959-1.137,1.736,1.736,0,0,0-1.926,1.151.824.824,0,0,0,.269.689,8.3,8.3,0,0,0,1.313.545m-1.455-3c1.688.019,3.026-2.328-.149-2.674-.5-.055-1.029.626-1.026,1.236a1.489,1.489,0,0,0,1.175,1.438M83.5,155.743c.231-.439.409-.778.643-1.228l-1.508.369.865.859m-4.733-20.422c-2.112,1.069-3.9,5.017-3.633,8.873a8.25,8.25,0,0,1-.021,1.77c-.481,3.245,1.332,6.305,3.177,7.181a3.967,3.967,0,0,0,2.846.011,5.227,5.227,0,0,0,.641-.269c-.56-.583-.426-.4-.494-.691.206-.136.45-.293.693-.452.2.314.4.63.668,1.056a2.776,2.776,0,0,0,.708-.136c4.74-2.023,4.33-2.364,8.025-6.347a1.69,1.69,0,0,0,.6-1.446c-.091-.615-.309-2.975-.941-3.686a16.284,16.284,0,0,0-2.856-2.557,26.6,26.6,0,0,0-3.484-1.885,10.878,10.878,0,0,0-4.027-1.559,3.931,3.931,0,0,0-1.9.136m21.414,9.963c.613-.42.339-2.2-.842-1.7-.21.089-.441.125-.657.2a.665.665,0,0,0-.182,1.141c.168-.335.38-.6.781-.337,0,.2.078,0-.325.823,1.024.006.969.044,1.224-.132m-.549-2.56a.71.71,0,0,0,.146-.3l.337.068a.7.7,0,0,0,0,.153,1.572,1.572,0,0,0,.216.513c.167.316.377.613.511.941.609,1.489-.717,1.608-.952,1.875a.648.648,0,0,1-.954.055c-.519-.342-1.02-.708-1.6-1.114a1.657,1.657,0,0,0-.24.536c-.006.07.28.2.447.25a2.939,2.939,0,0,1,1.947,1.66l-.532.144c-.638-1.408-2.829-1.752-4.186-1.3a13.19,13.19,0,0,0-4.553,2.986,23.462,23.462,0,0,0-2.411,2.833,8.334,8.334,0,0,0-2.33,4.4l-.475-.07a6.26,6.26,0,0,1,1.361-3.308,1.831,1.831,0,0,0,.22-.555l-.133-.062a5.676,5.676,0,0,1-.831.757c-1.083.668-.823,1.856-1.349,2.407-.541.568-.339,1.09-.1,1.663a1.223,1.223,0,0,1,.006.416c-.062.023-.123.047-.185.072-.238-1.508-1.516-2.225-2.379-3.158.513-.286.952-.53,1.391-.776-.034-.08-.07-.161-.1-.24l-2.647.666c-.006.053-.011.108-.017.161.5.356,2.275,1.485,2.449,2.142.361,1.376,1.338,2.422,1.826,3.72a.583.583,0,0,0,.044.093l-.345.132c-.291-.426-.581-.927-.944-1.576a3.679,3.679,0,0,1-.558-1.052c-.426-2.551-4.54-3.658-4.981-4.057a7.642,7.642,0,0,1-2.594-3.332,9.019,9.019,0,0,1-.8-3.213c.027-.441.078-.88.089-1.321a29.4,29.4,0,0,1,.185-3.853,12.382,12.382,0,0,1,.324-1.709,17.011,17.011,0,0,1,1.408-3.293c.649-1.245,2.127-2.712,2.929-2.681a7.819,7.819,0,0,1,4.021.876,17.317,17.317,0,0,0,1.862.865c-.045-.18-.042-.259-.08-.292a23.877,23.877,0,0,0-2.524-2.059,5.344,5.344,0,0,1-2.583-4.333l.515-.036a3.824,3.824,0,0,0,.115.6,4.491,4.491,0,0,0,1.675,2.865c1.879,1.243,2.988,2.464,3.654,2.867,3.5,2.117,6.423,4.129,9.5,2.229a2.51,2.51,0,0,1,.585-.178c.113.98-1.27.8-.774,1.324a.605.605,0,0,0,1.073-.168l.386.051a.937.937,0,0,0-.1.392,1.49,1.49,0,0,0,1.128,1.336,1.651,1.651,0,0,0,1.406-.394l.348.028c-.233.765-.24.6.106.817l-.494.169a1.008,1.008,0,0,0-.3-.03c-1.37.091-1.23.078-1.245.081a.723.723,0,0,0-.382,1.073,1.812,1.812,0,0,0,2.485.235m-3.236-.63c-.04-.027-.079-.051-.119-.076-.013.034-.027.07-.04.106.1.07.068.093.159-.03M94.8,145.6c.011-.055.023-.11.034-.166-.208-.165-.971-.865-1.2-.695a1.57,1.57,0,0,0-.339.464,5.7,5.7,0,0,0,1.506.4m-1.654-1.239c.29-.011.562-.624.56-1.23,0-.448-.267-.577-.647-.585-.369.036-.681.142-.694.581-.017.564.426,1.249.781,1.234m-.308-4.767c.021-.049-.119-.172-.2-.252a6.185,6.185,0,0,1-3.2-.9.6.6,0,0,0-.218-.053c-.011.027-.025.053-.038.078,1.817,1.633,1.387,1.3,1.817,1.4.518.112,1.041-.308,1.569,0,.028.017.214-.163.263-.278m-.7,2.379c.159-.085.129-.047.078-.17-.106.061-.1.013-.078.17" transform="translate(-61.351 -106.846)" fill="#42210b"/>
            <path id="Trazado_993119" data-name="Trazado 993119" d="M78.852,59.927c.095.062.1.017.036.161-.03-.019-.059-.038-.089-.059.017-.034.036-.068.053-.1" transform="translate(-65.054 -49.474)" fill="#42210b"/>
            <path id="Trazado_993120" data-name="Trazado 993120" d="M75.06,90.109c.019.1-.169.237-.263.358-.511-.57-.42-.331-.121-.956.191.282.352.428.384.6" transform="translate(-61.449 -73.897)" fill="#42210b"/>
            <path id="Trazado_993121" data-name="Trazado 993121" d="M67.7,105.187c.263.454.263.454-.106.785l-.161-.059c.08-.218.159-.433.267-.727" transform="translate(-55.668 -86.839)" fill="#42210b"/>
            <path id="Trazado_993122" data-name="Trazado 993122" d="M63.928,277.242q-.346,1.669-.7,3.338c-.053.019-.108.038-.161.059-.31-.7-.49.11.56-3.355.013-.044.095-.064.146-.095.051.017.1.034.151.053" transform="translate(-51.87 -228.837)" fill="#42210b"/>
            <path id="Trazado_993123" data-name="Trazado 993123" d="M59.217,266.145c.108.032.216.062.324.093-.3,1.215-.607,2.428-.931,3.722-.1-.108-.325-.238-.324-.367a9.667,9.667,0,0,1,.931-3.448" transform="translate(-48.119 -219.72)" fill="#42210b"/>
            <path id="Trazado_993124" data-name="Trazado 993124" d="M62.94,121.782c.013.03-.049.132-.068.131-.308-.042-.187-.131-.112-.345.091.1.155.149.18.214" transform="translate(-51.74 -100.362)" fill="#42210b"/>
            <path id="Trazado_993125" data-name="Trazado 993125" d="M58.932,237.429c.409.9.085,1.853.447,2.676a1.9,1.9,0,0,1-.447-2.676" transform="translate(-48.35 -196.013)" fill="#42210b"/>
            <path id="Trazado_993126" data-name="Trazado 993126" d="M59.367,137.211c.132.3.265.605.46,1.048-.721-.132-.568.148-.653-1.016.064-.01.129-.021.193-.032" transform="translate(-48.852 -113.276)" fill="#42210b"/>
            <path id="Trazado_993127" data-name="Trazado 993127" d="M55.393,145.207l-.167.047a3.9,3.9,0,0,1-.431-2.825c.214.988.4,1.883.6,2.778" transform="translate(-45.137 -117.584)" fill="#42210b"/>
            <path id="Trazado_993128" data-name="Trazado 993128" d="M50.548,256.5l.185.042c-.255,1.158-.509,2.316-.8,3.63-.14-.25-.344-.443-.331-.623a6.25,6.25,0,0,1,.944-3.049" transform="translate(-40.951 -211.758)" fill="#42210b"/>
            <path id="Trazado_993129" data-name="Trazado 993129" d="M51.641,153.408q.255,1.629.507,3.259c-.077.017-.155.032-.235.047a12.973,12.973,0,0,1-.5-3.268c.074-.011.149-.025.223-.038" transform="translate(-42.449 -126.648)" fill="#42210b"/>
            <path id="Trazado_993130" data-name="Trazado 993130" d="M43.45,111.349v1.588a.843.843,0,0,1-.488-.908,29.139,29.139,0,0,1,.153-2.962c.664-5.214,1.082-5.2,1.669-6.9.6-1.75-.715.816,2.014-4.861a2.8,2.8,0,0,1,.623-.876c-4.091,10.715-4,7.416-2.454,14.764a1.676,1.676,0,0,1,0,.339l-.2.051q-.451-1.428-.9-2.854l-.132.011c.252,2.7,1.718,3.6.464,4.5-.473-.448-.346-1.194-.751-1.9" transform="translate(-35.467 -79.611)" fill="#42210b"/>
            <path id="Trazado_993131" data-name="Trazado 993131" d="M43.539,248.389l-.655-.49c-.208.6-.4,1.175-.6,1.747l-.21-.078c-.308-1.383.959-2.356.937-3.665.087,0,.174.008.261.013.083.778.167,1.557.265,2.473" transform="translate(-34.697 -203.008)" fill="#42210b"/>
            <path id="Trazado_993132" data-name="Trazado 993132" d="M37.372,233.08a9.048,9.048,0,0,0-.023,1.7c-.062,0-.125,0-.187,0-.657-.891-.153-3.192.85-3.348a9.928,9.928,0,0,0-.64,1.65" transform="translate(-30.435 -191.06)" fill="#42210b"/>
            <path id="Trazado_993133" data-name="Trazado 993133" d="M32.391,176.374c.038.409.074.818.117,1.3-.6-.312-.647-.749-.117-1.3" transform="translate(-26.438 -145.608)" fill="#42210b"/>
            <path id="Trazado_993134" data-name="Trazado 993134" d="M24.667,140.662c-.808,1.52-.121,2.1-.481,2.225-.066.023-.18-.047-.253-.1a.261.261,0,0,1-.074-.17c-.1-1.058-.522-2.1-.119-3.183.314-.844.555-1.715.886-2.553a.864.864,0,0,1,.992-.681,12.158,12.158,0,0,0-1.75,4.421c.057.036.114.07.169.106.189-.155.378-.312.691-.568a1.885,1.885,0,0,1-.059.505" transform="translate(-19.458 -112.432)" fill="#42210b"/>
            <path id="Trazado_993135" data-name="Trazado 993135" d="M28.107,222.7c-.091.36-.11.254.042.432.178-.22.174-.11-.042-.432m-2.006-.763a12.129,12.129,0,0,1-3.626-4.156c-.112-.223-.121-.5-.231-.719-.225-.46-.5-.893-.727-1.353-.511-1.035-.112-.545-.356-4.57-.543.507-.674,2.216-.763,2.839l-.189.028c-.1-.808-.257-.229.306-2.772a.526.526,0,0,1,.172-.327c.878-.551.449-1.366.4-2.12a6.177,6.177,0,0,0-1.188,3.257l-.195.009a2.577,2.577,0,0,1-.091-.9c.742-2.683,1.181-2.445,1.342-2.875,1.151-3.051.763-2.176,1.234-2.928.4,1.2-.816,2-.405,3.043a2.85,2.85,0,0,1,1.393-1.6c-.077.324-.064.564-.178.7a7.277,7.277,0,0,0-1.232,3.06,2.525,2.525,0,0,0,.064,1.847c.63.863.08,1.714.286,2.553a9.066,9.066,0,0,0,2.651,5.028,20.054,20.054,0,0,0,2.994,2.5,7.807,7.807,0,0,1,1.168-3.219c.074.023.149.047.223.072q-.44,1.345-.88,2.689l.206.079a13.6,13.6,0,0,1,.587-1.247c.195-.335.1-.95.859-.939a17.775,17.775,0,0,0-1.162,3.592.969.969,0,0,0,.185.634,14.586,14.586,0,0,1,1.274-3.192l.172.034a1.9,1.9,0,0,1-.066.547c-.558,1.3,1.215,1.328,3.3,4.568.044.068,3.554,3.539,3.573,3.558a4.709,4.709,0,0,0,2.367,1.232c7.817,1.72,4.2,1.088,9.3,1.618a1.269,1.269,0,0,1,.4.2c-.006.051-.011.1-.017.157a2.327,2.327,0,0,1-.505.112,14.754,14.754,0,0,1-5.172-.619c-2.7-1-5.215-.4-7.113-2.608-.747-.874-1.645-1.62-2.462-2.435-.379-.38-.721-.8-1.2-1.334.108.568.191,1,.274,1.429a1.182,1.182,0,0,1-.791-1.366c.095-.982-.466-1.51-1.3-2.108-.134.619-.25,1.147-.375,1.726-.363,0-.518-.248-.465-.63a2.406,2.406,0,0,1,.252-.9c.325-.532.068-.808-.337-1.075a2.642,2.642,0,0,0-.432,2.046c2.511,4.489,2.118,3.469,2.712,4.135a1.1,1.1,0,0,1,.13.38c-.149.006-.363.078-.437.006a10.128,10.128,0,0,1-1.478-1.538c-.528-.776-.844-1.7-1.374-2.468a15,15,0,0,0-3.086-3.677" transform="translate(-16.173 -169.53)" fill="#42210b"/>
            <path id="Trazado_993136" data-name="Trazado 993136" d="M16.79,190.824l.259.1a12.977,12.977,0,0,1-1.243,2.729c-.044-1.092.77-1.843.984-2.831" transform="translate(-13.047 -157.537)" fill="#42210b"/>
            <path id="Trazado_993137" data-name="Trazado 993137" d="M17.1,204.016q-.477,1.425-.952,2.852l-.165-.051a5.1,5.1,0,0,1,1.117-2.8" transform="translate(-13.198 -168.428)" fill="#42210b"/>
            <path id="Trazado_993138" data-name="Trazado 993138" d="M18.584,212.7c-.382,1.08-.765,2.163-1.147,3.24-.36-.624.365-2.736,1.147-3.24" transform="translate(-14.318 -175.593)" fill="#42210b"/>
          </g>
        </g>
      </g>
    </g>
  </g>
</svg>
