<svg xmlns="http://www.w3.org/2000/svg" width="100" height="101" viewBox="0 0 100 101">
  <g id="Grupo_1105921" data-name="Grupo 1105921" transform="translate(-1012.711 -13575)">
    <ellipse id="Elipse_11689" data-name="Elipse 11689" cx="50" cy="50.5" rx="50" ry="50.5" transform="translate(1012.711 13575)" fill="#5c4111"/>
    <g id="blender_1609828" transform="translate(1025.012 13584.284)">
      <path id="Trazado_998834" data-name="Trazado 998834" d="M73.432,24.8,66.7,21.427v-.469c0-1.668-1.9-2.582-3.705-3.15V3.666C63-1.2,49.41-1.2,49.41,3.666V16.018h-2.47c-1.841,0-16.748.111-19.367,3.78l-26.443,2.4a1.233,1.233,0,0,0-.84.457,1.233,1.233,0,0,0-.284.9L2.475,46.9,0,72.721A1.247,1.247,0,0,0,1.24,74.068H65.466A1.235,1.235,0,0,0,66.7,72.833V51.367l6.731-3.372a1.235,1.235,0,0,0,.68-1.1v-21A1.236,1.236,0,0,0,73.432,24.8ZM42.838,49.366a13.165,13.165,0,0,0,8.2,0,1.235,1.235,0,0,0,.84-1.235v-1.1c7.546.42,11.289,1.655,12.2,2.335-1.235.938-6.991,2.47-17.143,2.47S31.007,50.3,29.8,49.366c.914-.68,4.656-1.915,12.2-2.335v1.1A1.235,1.235,0,0,0,42.838,49.366ZM44.469,47.2V32.741l2.47-1.655,2.47,1.655V47.2A10.766,10.766,0,0,1,44.469,47.2Zm7.411-2.643V32.074a1.237,1.237,0,0,0-.556-1.025l-3.705-2.47a1.236,1.236,0,0,0-1.359,0l-3.705,2.47A1.235,1.235,0,0,0,42,32.074V44.561c-4.039.21-9.3.753-12.351,2.125V23.613c4.94,2.2,15.735,2.285,17.292,2.285s12.351-.087,17.292-2.285V46.686C61.18,45.314,55.919,44.771,51.88,44.561ZM4.822,45.66,3.129,29.6l24.048-.148v16.2ZM56.2,17.253c2.643,0,4.138.877,4.31,1.235-.172.358-1.667,1.235-4.31,1.235s-4.212-.914-4.323-1.235C51.991,18.166,53.485,17.253,56.2,17.253ZM51.88,15.6V6.581a11.468,11.468,0,0,0,4.323.791,11.472,11.472,0,0,0,4.323-.791V15.6A12.69,12.69,0,0,0,51.88,15.6ZM56.2,2.431c2.643,0,4.138.877,4.31,1.235C60.341,4.025,58.846,4.9,56.2,4.9S52,4,51.88,3.666C52,3.333,53.5,2.431,56.2,2.431ZM46.939,18.488h2.47c0,2.408,3.433,3.705,6.793,3.705,2.47,0,4.94-.68,6.176-2a6.428,6.428,0,0,1,1.754.778c-1.235.939-7,2.47-17.131,2.47s-15.945-1.531-17.143-2.47C30.994,20.019,36.774,18.488,46.939,18.488ZM27.178,22.3v4.681L2.87,27.134,2.6,24.54ZM2.6,71.6,4.834,48.131H27.178v6.176h2.47V52.021c4.94,2.2,15.735,2.285,17.292,2.285s12.351-.087,17.292-2.285v5.842c-.741.914-6.583,2.619-17.292,2.619a71.233,71.233,0,0,1-12.129-.926l-.444,2.47a75.149,75.149,0,0,0,12.574.926c1.556,0,12.351-.087,17.292-2.285V71.6Zm64.1-23V24.194l4.94,2.47v1.7h-2.47v2.47h2.47v2.47h-2.47v2.47h2.47v2.47h-2.47v2.47h2.47v2.47h-2.47v2.47h2.47v.469Zm0,0" transform="translate(0 0)" fill="#fff"/>
      <path id="Trazado_998835" data-name="Trazado 998835" d="M134.468,363.461a6.081,6.081,0,0,0-2.792.7l-1.235-1.47-1.927,1.532,1.235,1.482a6.176,6.176,0,1,0,4.719-2.248Zm0,9.881a3.69,3.69,0,0,1-3.137-5.657L133.5,370.4l1.927-1.532-2.2-2.717a3.611,3.611,0,0,1,1.235-.222,3.705,3.705,0,1,1,0,7.411Zm0,0" transform="translate(-108.525 -306.685)" fill="#fff"/>
      <path id="Trazado_998836" data-name="Trazado 998836" d="M39.44,361.015v-1.359H36.97v1.359a6.175,6.175,0,1,0,2.47,0Zm-1.235,9.757a3.706,3.706,0,0,1-1.235-7.189v3.483h2.47v-3.483a3.706,3.706,0,0,1-1.235,7.189Zm0,0" transform="translate(-27.084 -304.115)" fill="#fff"/>
    </g>
  </g>
</svg>
