<svg xmlns="http://www.w3.org/2000/svg" xmlns:xlink="http://www.w3.org/1999/xlink" width="57.012" height="66.523" viewBox="0 0 57.012 66.523">
  <defs>
    <clipPath id="clip-path">
      <rect id="Rectángulo_404258" data-name="Rectángulo 404258" width="57.012" height="66.523" fill="none"/>
    </clipPath>
    <clipPath id="clip-path-3">
      <rect id="Rectángulo_404231" data-name="Rectángulo 404231" width="36.137" height="38.576" fill="none"/>
    </clipPath>
    <clipPath id="clip-path-4">
      <rect id="Rectángulo_404232" data-name="Rectángulo 404232" width="27.6" height="25.982" fill="none"/>
    </clipPath>
    <clipPath id="clip-path-5">
      <rect id="Rectángulo_404233" data-name="Rectángulo 404233" width="36.594" height="38.88" fill="none"/>
    </clipPath>
    <clipPath id="clip-path-6">
      <rect id="Rectángulo_404234" data-name="Rectángulo 404234" width="9.145" height="5.944" fill="none"/>
    </clipPath>
    <clipPath id="clip-path-7">
      <rect id="Rectángulo_404235" data-name="Rectángulo 404235" width="10.168" height="5.462" fill="none"/>
    </clipPath>
    <clipPath id="clip-path-8">
      <rect id="Rectángulo_404236" data-name="Rectángulo 404236" width="9.486" height="1.553" fill="none"/>
    </clipPath>
    <clipPath id="clip-path-9">
      <rect id="Rectángulo_404237" data-name="Rectángulo 404237" width="10.733" height="3.492" fill="none"/>
    </clipPath>
    <clipPath id="clip-path-10">
      <rect id="Rectángulo_404238" data-name="Rectángulo 404238" width="20.194" height="39.073" fill="none"/>
    </clipPath>
    <clipPath id="clip-path-11">
      <rect id="Rectángulo_404239" data-name="Rectángulo 404239" width="22.965" height="38.851" fill="none"/>
    </clipPath>
    <clipPath id="clip-path-12">
      <rect id="Rectángulo_404240" data-name="Rectángulo 404240" width="17.331" height="37.188" fill="none"/>
    </clipPath>
    <clipPath id="clip-path-13">
      <rect id="Rectángulo_404241" data-name="Rectángulo 404241" width="13.012" height="34.345" fill="none"/>
    </clipPath>
    <clipPath id="clip-path-14">
      <rect id="Rectángulo_404242" data-name="Rectángulo 404242" width="4.419" height="4.486" fill="none"/>
    </clipPath>
    <clipPath id="clip-path-15">
      <rect id="Rectángulo_404243" data-name="Rectángulo 404243" width="5.153" height="3.43" fill="none"/>
    </clipPath>
    <clipPath id="clip-path-16">
      <rect id="Rectángulo_404244" data-name="Rectángulo 404244" width="5.055" height="3.916" fill="none"/>
    </clipPath>
    <clipPath id="clip-path-17">
      <rect id="Rectángulo_404245" data-name="Rectángulo 404245" width="4.503" height="3.796" fill="none"/>
    </clipPath>
    <clipPath id="clip-path-18">
      <rect id="Rectángulo_404246" data-name="Rectángulo 404246" width="11.743" height="40.236" fill="none"/>
    </clipPath>
    <clipPath id="clip-path-19">
      <rect id="Rectángulo_404247" data-name="Rectángulo 404247" width="11.023" height="40.202" fill="none"/>
    </clipPath>
    <clipPath id="clip-path-20">
      <rect id="Rectángulo_404248" data-name="Rectángulo 404248" width="17.999" height="7.86" fill="none"/>
    </clipPath>
    <clipPath id="clip-path-21">
      <rect id="Rectángulo_404249" data-name="Rectángulo 404249" width="14.831" height="10.021" fill="none"/>
    </clipPath>
    <clipPath id="clip-path-22">
      <rect id="Rectángulo_404250" data-name="Rectángulo 404250" width="19.796" height="8.965" fill="none"/>
    </clipPath>
    <clipPath id="clip-path-23">
      <rect id="Rectángulo_404251" data-name="Rectángulo 404251" width="20.247" height="10.048" fill="none"/>
    </clipPath>
    <clipPath id="clip-path-24">
      <rect id="Rectángulo_404252" data-name="Rectángulo 404252" width="25.452" height="42.981" fill="none"/>
    </clipPath>
    <clipPath id="clip-path-25">
      <rect id="Rectángulo_404253" data-name="Rectángulo 404253" width="43.889" height="31.037" fill="none"/>
    </clipPath>
    <clipPath id="clip-path-26">
      <rect id="Rectángulo_404254" data-name="Rectángulo 404254" width="43.889" height="31.489" fill="none"/>
    </clipPath>
    <clipPath id="clip-path-27">
      <rect id="Rectángulo_404255" data-name="Rectángulo 404255" width="5.761" height="8.207" fill="none"/>
    </clipPath>
    <clipPath id="clip-path-28">
      <rect id="Rectángulo_404256" data-name="Rectángulo 404256" width="3.596" height="10.517" fill="none"/>
    </clipPath>
  </defs>
  <g id="Grupo_1105926" data-name="Grupo 1105926" transform="translate(-180 -755.608)">
    <g id="Grupo_1105631" data-name="Grupo 1105631" transform="translate(180 755.608)">
      <g id="Grupo_1104789" data-name="Grupo 1104789" clip-path="url(#clip-path)">
        <g id="Grupo_1104788" data-name="Grupo 1104788">
          <g id="Grupo_1104787" data-name="Grupo 1104787" clip-path="url(#clip-path)">
            <path id="Trazado_991606" data-name="Trazado 991606" d="M.116,163.889c6.553,5.9,16.146,8.03,21.714,14.87,2.9,3.559,4.377,8.024,6.251,12.213s4.417,8.4,8.513,10.467c-1.656-.83-4.591.691-6.277.967C8.371,206-1.182,182.1.116,163.889" transform="translate(0 -136.246)" fill="#657f05"/>
            <g id="Grupo_1104711" data-name="Grupo 1104711" transform="translate(0.458 27.946)" opacity="0.2" style="mix-blend-mode: overlay;isolation: isolate">
              <g id="Grupo_1104710" data-name="Grupo 1104710">
                <g id="Grupo_1104709" data-name="Grupo 1104709" clip-path="url(#clip-path-3)">
                  <path id="Trazado_991607" data-name="Trazado 991607" d="M28.556,188.293c.257.813,2.737,8.518,2.188,8.808-.5.265-1.055-.233-1.4-.687a41.648,41.648,0,0,1-3.623-5.767,24,24,0,0,1-2.081-5.246c-.581-2.343-.664-4.821-1.4-7.1-.462-.437-.939-.857-1.434-1.256-.15,6.123,2.2,12.024,3.465,18.033.065.308.107.682-.131.889-.37.322-.912-.106-1.193-.508a27.483,27.483,0,0,1-4.172-11.66c-.452-2.943-.658-5.917-.949-8.881-1.057-.672-2.152-1.3-3.261-1.917-.154,5.632,1.523,11.217,2.833,16.738.2.84.176,2.042-.673,2.2-.63.12-1.137-.5-1.452-1.058-3.348-5.922-3.242-13.039-4.255-19.807q-1.31-.709-2.6-1.449a110.909,110.909,0,0,0,2.925,15.322c-.575.45-1.3-.337-1.591-1.007a42.638,42.638,0,0,1-3.116-11.347c-.188-1.446-.329-2.959-.589-4.422a30.814,30.814,0,0,1-3.327-2.491,21.473,21.473,0,0,0,.5,5.328c.61,2.92,1.608,5.746,2.252,8.659a1.17,1.17,0,0,1-.078.977c-.354.45-1.079.169-1.526-.189-.095-.076-.182-.16-.274-.24a44.785,44.785,0,0,0,2.56,7.717c.363.177.73.347,1.088.514,1.7.792,3.513,1.884,3.973,3.7a7.748,7.748,0,0,1-3.135-.426,31.023,31.023,0,0,0,3.013,4.3c1.824.729,3.754,1.212,5.5,2.109.6.308,1.257,1.01.848,1.546a1.145,1.145,0,0,1-.635.345,8.581,8.581,0,0,1-1.2.228,21.515,21.515,0,0,0,3.311,1.957,20.256,20.256,0,0,1,5.356-.986c.718.011,1.62.292,1.675,1.008.054.7-.745,1.116-1.418,1.309-.315.09-.635.166-.956.239a24.247,24.247,0,0,0,8.983.116c1.686-.277,4.621-1.8,6.277-.967-4.1-2.065-6.639-6.278-8.513-10.467-.615-1.374-1.188-2.778-1.782-4.17Z" transform="translate(-2.713 -165.682)" fill="#1e0202"/>
                </g>
              </g>
            </g>
            <path id="Trazado_991608" data-name="Trazado 991608" d="M124.894,383.537a14.785,14.785,0,0,1-2.207.141,21.687,21.687,0,0,0,2.927.5,10.578,10.578,0,0,0,4.626-1.863.036.036,0,0,0-.026-.064c-1.807.137-3.512,1.023-5.319,1.282" transform="translate(-101.993 -317.779)" fill="#7f9910"/>
            <path id="Trazado_991609" data-name="Trazado 991609" d="M114.041,236.4c.33,3.319.812,6.619,1.445,9.835,1.142,5.8,3.712,12.055,9.1,15.141.352.2.625-.343.346-.584a24.648,24.648,0,0,1-6.027-6.864,30.423,30.423,0,0,1-2.887-9.344c-.418-2.433-.75-4.873-1.038-7.317-.307-.3-.62-.588-.942-.867" transform="translate(-94.806 -196.527)" fill="#7f9910"/>
            <path id="Trazado_991610" data-name="Trazado 991610" d="M17.711,196.039a.1.1,0,0,0,.062,0,4.8,4.8,0,0,0,1.073,1.092c.053.038.139-.016.108-.082a36.654,36.654,0,0,1-2.789-7.558c-.625-2.609-1.09-5.252-1.519-7.9-.377-2.321-.733-4.645-1.149-6.96-.25-.173-.5-.352-.741-.531.117.827.217,1.636.338,2.365.441,2.649.83,5.307,1.3,7.952.426,2.4.92,4.783,1.579,7.128a17.676,17.676,0,0,0,1.385,3.838c-.95-.959-2-1.812-2.895-2.841a25.241,25.241,0,0,1-1.839-2.422q.364,1.2.792,2.362a11.259,11.259,0,0,0,4.293,3.553" transform="translate(-10.496 -144.738)" fill="#7f9910"/>
            <path id="Trazado_991611" data-name="Trazado 991611" d="M77.628,211.646c.192,3.5.333,7.012.844,10.483.944,6.415,3.111,13.063,8.457,17.079a.173.173,0,0,0,.213-.273c-5.167-4.771-7.322-11.668-8.131-18.458-.323-2.711-.421-5.526-.551-8.352q-.414-.242-.832-.479" transform="translate(-64.534 -175.947)" fill="#7f9910"/>
            <path id="Trazado_991612" data-name="Trazado 991612" d="M87.036,370.564c-2.648-.13-5.258.147-7.884-.026q.747.537,1.538,1.009a23.412,23.412,0,0,0,6.373-.763.116.116,0,0,0-.027-.22" transform="translate(-65.801 -308.031)" fill="#7f9910"/>
            <path id="Trazado_991613" data-name="Trazado 991613" d="M41.217,201.163c.633,5.415,1.476,12.117,5.13,16.534-1.368-.617-2.905-.856-4.3-1.451a19.989,19.989,0,0,1-2.4-1.232q.457.7.946,1.372a10.79,10.79,0,0,0,5.749,1.531.1.1,0,0,0,.088-.123,12.82,12.82,0,0,0,1.119,1.188c.061.056.132-.034.1-.094a34.5,34.5,0,0,1-4.294-9.735,80.027,80.027,0,0,1-1.606-10.24c-.242-2.138-.5-4.279-.879-6.4-.287-.158-.574-.315-.859-.475.566,3.017.859,6.076,1.215,9.124" transform="translate(-32.956 -159.647)" fill="#7f9910"/>
            <g id="Grupo_1104714" data-name="Grupo 1104714" transform="translate(0 27.643)" opacity="0.2" style="mix-blend-mode: overlay;isolation: isolate">
              <g id="Grupo_1104713" data-name="Grupo 1104713">
                <g id="Grupo_1104712" data-name="Grupo 1104712" clip-path="url(#clip-path-4)">
                  <path id="Trazado_991614" data-name="Trazado 991614" d="M1.546,171.3a6.585,6.585,0,0,1,3.547.555,11.8,11.8,0,0,1,5.871,5.35c1.092,2.072,1.548,4.445,2.741,6.46a10.126,10.126,0,0,0,5.141,4.3c2.356.875,4.948.837,7.386,1.446a8.617,8.617,0,0,1,1.368.464c-1.661-3.86-3.125-7.863-5.769-11.112-5.568-6.84-15.161-8.966-21.714-14.87a48.6,48.6,0,0,0,.094,7.854,4.787,4.787,0,0,1,1.334-.443" transform="translate(-0.002 -163.889)" fill="#1e0202"/>
                </g>
              </g>
            </g>
            <path id="Trazado_991615" data-name="Trazado 991615" d="M35.8,273.127a33.809,33.809,0,0,0,14.057,3.838c3.951.229,8.859.3,12.435-1.7-.459-.19-.914-.377-1.365-.565-3.575-.041-7.217.757-10.816.546a35.4,35.4,0,0,1-12.924-3.186,28.522,28.522,0,0,1-15.522-17.685c-.04-.135-.271-.076-.242.064A28.344,28.344,0,0,0,35.8,273.127" transform="translate(-17.805 -211.407)" fill="#738e10"/>
            <g id="Grupo_1104717" data-name="Grupo 1104717" transform="translate(0 27.643)" opacity="0.2" style="mix-blend-mode: overlay;isolation: isolate">
              <g id="Grupo_1104716" data-name="Grupo 1104716">
                <g id="Grupo_1104715" data-name="Grupo 1104715" clip-path="url(#clip-path-5)">
                  <path id="Trazado_991616" data-name="Trazado 991616" d="M30.317,202.405c1.686-.276,4.621-1.8,6.277-.967-.172-.086-.336-.182-.5-.276-.142-.046-.289-.089-.451-.125-2.632-.575-5.446-.237-8.126-.825A30.1,30.1,0,0,1,6.846,183.943c-2.811-5.78-3.686-12.221-4.9-18.566C1.318,164.9.7,164.415.116,163.888c-1.3,18.216,8.255,42.116,30.2,38.517" transform="translate(0 -163.888)" fill="#1e0202"/>
                </g>
              </g>
            </g>
            <path id="Trazado_991617" data-name="Trazado 991617" d="M187.238,40.571a9.922,9.922,0,0,0-.418-6.593c-.374-.869-.763-2.055-1.627-2.439a5.779,5.779,0,0,1,.5-1.151,3.453,3.453,0,0,0-.076-2,26.821,26.821,0,0,0-1.409-4.623c-.4-.9-.59-2.037-1.571-2.154a6.252,6.252,0,0,0-.067-3.689,18.63,18.63,0,0,0-1.527-3.413c-.5-.949-1.014-2.248-2.063-2.477a4.456,4.456,0,0,0-.407-3.165,13.252,13.252,0,0,0-1.9-2.647c-.643-.758-1.284-1.8-2.207-1.433a5.214,5.214,0,0,0-7.3-4.356A3.217,3.217,0,0,0,165.229,2.5a11.319,11.319,0,0,0-.484,4.6c2.172,11.317,7.465,21.787,9.9,33.05,2.062-.061,4.025-.845,6.044-1.265a8.9,8.9,0,0,1,6.546,1.689" transform="translate(-136.877 0)" fill="#e2af8d"/>
            <path id="Trazado_991618" data-name="Trazado 991618" d="M186.341,47.7a16.53,16.53,0,0,1-9.781.677.752.752,0,0,1-.426-.21.767.767,0,0,1-.128-.4c-.208-1.614-.491-3.006-.7-4.62.335-.743,1.248-.991,2.049-1.144a18.745,18.745,0,0,1,5.882-.447,4.2,4.2,0,0,1,1.335.377c-.277-.735-.561-1.441-1.325-1.532a5.018,5.018,0,0,0,.231-1.23,14.583,14.583,0,0,1-2.866.873,36.079,36.079,0,0,1-4.417.668,8.44,8.44,0,0,0-2.8.535L171.9,36.974a2.514,2.514,0,0,1-.168-.681,1.649,1.649,0,0,1,.188-.81c.55-1.115,1.847-1.607,3.027-2l2.557-.852a9.758,9.758,0,0,1,3.434-.659,2.254,2.254,0,0,0-1.344-1.142,3.543,3.543,0,0,0,.132-1.045,25.783,25.783,0,0,1-10.047,3.951l-.9-5.1a1.454,1.454,0,0,1-.024-.58,1.341,1.341,0,0,1,.3-.526A8.817,8.817,0,0,1,174.2,24.5a4.824,4.824,0,0,1,2.864.248c-.571-.708-1.166-1.483-1.982-1.158a5.017,5.017,0,0,0-.186-.975,6.756,6.756,0,0,1-2.326,1.44,9.931,9.931,0,0,1-7.182-.073,107.8,107.8,0,0,1,2.459,10.807c.109.544.215,1.092.321,1.641,1.3,4,2.759,7.963,4.093,11.958.029.041.054.084.083.124.923,1.29,2.693,1.917,3.81,3.044a15.605,15.605,0,0,1,10.778.071,2.549,2.549,0,0,0-1.125-1.288,5.779,5.779,0,0,1,.5-1.151,2.721,2.721,0,0,0,.039-1.481" transform="translate(-137.489 -18.796)" fill="#c48265"/>
            <g id="Grupo_1104720" data-name="Grupo 1104720" transform="translate(30.237 4.713)" opacity="0.2" style="mix-blend-mode: overlay;isolation: isolate">
              <g id="Grupo_1104719" data-name="Grupo 1104719">
                <g id="Grupo_1104718" data-name="Grupo 1104718" clip-path="url(#clip-path-6)">
                  <path id="Trazado_991619" data-name="Trazado 991619" d="M180.163,33.883a2.243,2.243,0,0,1,.228-.387l-.077-.432a1.452,1.452,0,0,1-.024-.58,1.34,1.34,0,0,1,.3-.526,8.818,8.818,0,0,1,5.145-3.033,5.193,5.193,0,0,1,2.391.085c.094-.025.189-.047.284-.07-.515-.631-1.066-1.214-1.793-.925,0-.021-.007-.042-.009-.063-.838.3-1.729.473-2.593.708a16.8,16.8,0,0,0-4.373,1.89.749.749,0,0,0-.355.355.767.767,0,0,0,.049.476l.822,2.5" transform="translate(-179.269 -27.939)" fill="#1e0202"/>
                </g>
              </g>
            </g>
            <g id="Grupo_1104723" data-name="Grupo 1104723" transform="translate(33.277 12.108)" opacity="0.2" style="mix-blend-mode: overlay;isolation: isolate">
              <g id="Grupo_1104722" data-name="Grupo 1104722">
                <g id="Grupo_1104721" data-name="Grupo 1104721" clip-path="url(#clip-path-7)">
                  <path id="Trazado_991620" data-name="Trazado 991620" d="M198.254,77.194c0-.008,0-.015,0-.023a1.646,1.646,0,0,1,.188-.81c.55-1.115,1.847-1.607,3.027-2l2.557-.852a9.761,9.761,0,0,1,3.434-.659,2.443,2.443,0,0,0-1.149-1.067c-.739.23-1.466.505-2.187.785l-6.831,2.649.865,2.027.1-.05" transform="translate(-197.288 -71.783)" fill="#1e0202"/>
                </g>
              </g>
            </g>
            <g id="Grupo_1104726" data-name="Grupo 1104726" transform="translate(39.955 31.273)" opacity="0.2" style="mix-blend-mode: overlay;isolation: isolate">
              <g id="Grupo_1104725" data-name="Grupo 1104725">
                <g id="Grupo_1104724" data-name="Grupo 1104724" clip-path="url(#clip-path-8)">
                  <path id="Trazado_991621" data-name="Trazado 991621" d="M245.241,185.674c0-.014.008-.026.011-.039a7.7,7.7,0,0,0-1.824-.213,53.007,53.007,0,0,0-6.547.26,7.74,7.74,0,0,1,.113.776,15.665,15.665,0,0,1,9.373.5,2.55,2.55,0,0,0-1.125-1.288" transform="translate(-236.88 -185.408)" fill="#1e0202"/>
                </g>
              </g>
            </g>
            <g id="Grupo_1104729" data-name="Grupo 1104729" transform="translate(36.349 21.465)" opacity="0.2" style="mix-blend-mode: overlay;isolation: isolate">
              <g id="Grupo_1104728" data-name="Grupo 1104728">
                <g id="Grupo_1104727" data-name="Grupo 1104727" clip-path="url(#clip-path-9)">
                  <path id="Trazado_991622" data-name="Trazado 991622" d="M217.027,130.545c-.019-.133-.039-.259-.057-.395.335-.743,1.249-.991,2.049-1.144a18.746,18.746,0,0,1,5.882-.447,4.2,4.2,0,0,1,1.335.377c-.277-.735-.561-1.441-1.325-1.532.016-.048.023-.1.037-.148-.318.03-.636.088-.95.149l-4.014.78a31.082,31.082,0,0,0-4.2,1.019.412.412,0,0,0-.266.186.417.417,0,0,0,.041.32l.435,1.039c.342-.075.687-.134,1.03-.2" transform="translate(-215.503 -127.257)" fill="#1e0202"/>
                </g>
              </g>
            </g>
            <g id="Grupo_1104732" data-name="Grupo 1104732" transform="translate(30.498 0.005)" opacity="0.2" style="mix-blend-mode: overlay;isolation: isolate">
              <g id="Grupo_1104731" data-name="Grupo 1104731">
                <g id="Grupo_1104730" data-name="Grupo 1104730" clip-path="url(#clip-path-10)">
                  <path id="Trazado_991623" data-name="Trazado 991623" d="M198.63,31.564a5.794,5.794,0,0,1,.5-1.151,3.452,3.452,0,0,0-.076-2,26.836,26.836,0,0,0-1.409-4.623c-.4-.9-.59-2.037-1.571-2.154A6.249,6.249,0,0,0,196,17.95a18.63,18.63,0,0,0-1.527-3.413c-.5-.949-1.014-2.248-2.063-2.477a4.455,4.455,0,0,0-.407-3.165,13.241,13.241,0,0,0-1.9-2.648c-.643-.758-1.284-1.8-2.207-1.433A5.2,5.2,0,0,0,180.812.382a9.022,9.022,0,0,1,2.512,1.231c1.285.885,2.51,2.206,2.41,3.763a5.862,5.862,0,0,1,4.093,7.794,8.491,8.491,0,0,1,4.008,8.887,10.523,10.523,0,0,1,2.829,4.237,5.674,5.674,0,0,1-.583,4.931c.817.268.985,1.347.9,2.2a10.563,10.563,0,0,1-2.159,5.391,8.522,8.522,0,0,1,2.733.285,12.669,12.669,0,0,0,3.449-2.07,9.816,9.816,0,0,0-.75-3.03c-.373-.869-.763-2.055-1.627-2.44" transform="translate(-180.812 -0.032)" fill="#1e0202"/>
                </g>
              </g>
            </g>
            <g id="Grupo_1104735" data-name="Grupo 1104735" transform="translate(27.771 1.72)" opacity="0.2" style="mix-blend-mode: overlay;isolation: isolate">
              <g id="Grupo_1104734" data-name="Grupo 1104734">
                <g id="Grupo_1104733" data-name="Grupo 1104733" clip-path="url(#clip-path-11)">
                  <path id="Trazado_991624" data-name="Trazado 991624" d="M179.516,41.841a3.27,3.27,0,0,0-2.154-3.318,5.613,5.613,0,0,0-1.687-7.34,1.253,1.253,0,0,1-.516-.475,1.231,1.231,0,0,1-.014-.691A6.583,6.583,0,0,0,172,23.472c.606-3.113-1.508-6.225-4.213-7.881a2.421,2.421,0,0,1-.98-.849,2.449,2.449,0,0,1-.187-.9,14.691,14.691,0,0,0-1.044-3.649,2.408,2.408,0,0,0-.344.781,11.319,11.319,0,0,0-.484,4.6c2.172,11.317,7.465,21.787,9.9,33.05,2.062-.061,4.025-.845,6.044-1.265a8.9,8.9,0,0,1,6.546,1.689,9.921,9.921,0,0,0-.418-6.593c-.07-.163-.142-.339-.216-.517a9.3,9.3,0,0,1-7.088-.1" transform="translate(-164.649 -10.197)" fill="#1e0202"/>
                </g>
              </g>
            </g>
            <g id="Grupo_1104738" data-name="Grupo 1104738" transform="translate(27.771 0.329)" opacity="0.2" style="mix-blend-mode: overlay;isolation: isolate">
              <g id="Grupo_1104737" data-name="Grupo 1104737">
                <g id="Grupo_1104736" data-name="Grupo 1104736" clip-path="url(#clip-path-12)">
                  <path id="Trazado_991625" data-name="Trazado 991625" d="M179.749,32.58a7.213,7.213,0,0,0-1.915-7.747,1.839,1.839,0,0,1-.61-.735,1.852,1.852,0,0,1,.026-.878,6.815,6.815,0,0,0-4.074-7.243,6.294,6.294,0,0,0-2.3-6.518A13.891,13.891,0,0,1,168.442,7.7a4.785,4.785,0,0,1-1-2.242,7.207,7.207,0,0,1,0-3.513c-.094.035-.19.063-.282.1a3.217,3.217,0,0,0-1.937,2.069,11.319,11.319,0,0,0-.484,4.6c1.968,10.252,6.49,19.811,9.137,29.892.03.013.059.029.089.041,2.434.955,5.174.176,7.782.363a6.27,6.27,0,0,0-2-6.434" transform="translate(-164.649 -1.95)" fill="#1e0202"/>
                </g>
              </g>
            </g>
            <path id="Trazado_991626" data-name="Trazado 991626" d="M86.023,69.9c-.534.942-1.816,1.07-2.9,1.086a4.9,4.9,0,0,1-2.825-.529c-1.258-.838-1.387-2.586-1.217-4.087a1.488,1.488,0,0,1-1.628-.594,4.356,4.356,0,0,1-.658-1.723,13.075,13.075,0,0,1-.441-3.075,4.713,4.713,0,0,1,1.17-2.936,3.261,3.261,0,0,1-2.107-1.792,9.661,9.661,0,0,1-.767-2.744,4,4,0,0,1,.328-3.077A1.018,1.018,0,0,1,73.926,50,2.9,2.9,0,0,1,73.5,48.87a13.821,13.821,0,0,1-.435-3.978,5.9,5.9,0,0,1,1.689-3.727,2.2,2.2,0,0,1-1.164-1.6,4.9,4.9,0,0,1,.113-2.035A13.277,13.277,0,0,1,77.149,31.2c.633-.646,1.364-.217,2.232-.472Q83.741,50.009,87.607,69.4c-.206.2-1.441.25-1.583.5" transform="translate(-60.723 -25.544)" fill="#d8a082"/>
            <g id="Grupo_1104741" data-name="Grupo 1104741" transform="translate(12.32 10.26)" opacity="0.2" style="mix-blend-mode: overlay;isolation: isolate">
              <g id="Grupo_1104740" data-name="Grupo 1104740">
                <g id="Grupo_1104739" data-name="Grupo 1104739" clip-path="url(#clip-path-13)">
                  <path id="Trazado_991627" data-name="Trazado 991627" d="M86.055,93.437c-2.58-.511-5.224-1.407-6.99-3.356s-2.314-5.2-.6-7.2c-1.922-.6-2.752-2.84-3.115-4.821-.208-1.139-.21-2.588.81-3.136a7.417,7.417,0,0,1-.521-9.188c-1.376-1.062-1.56-3.053-1.414-4.914a13.081,13.081,0,0,0-.518,1.729,4.9,4.9,0,0,0-.113,2.035,2.2,2.2,0,0,0,1.164,1.6,5.9,5.9,0,0,0-1.689,3.727,13.822,13.822,0,0,0,.435,3.978,2.894,2.894,0,0,0,.425,1.128,1.018,1.018,0,0,0,1.055.431,4,4,0,0,0-.328,3.077,9.651,9.651,0,0,0,.766,2.744,3.261,3.261,0,0,0,2.107,1.792A4.713,4.713,0,0,0,76.356,86a13.075,13.075,0,0,0,.441,3.075,4.359,4.359,0,0,0,.658,1.723,1.488,1.488,0,0,0,1.628.594,4.9,4.9,0,0,0,.69,3.592c.063.011.124.028.187.038,2.179.354,4.752.166,6.1-1.586" transform="translate(-73.043 -60.826)" fill="#1e0202"/>
                </g>
              </g>
            </g>
            <path id="Trazado_991628" data-name="Trazado 991628" d="M88.249,100.35q-2.088-10.159-4.312-20.289c-.321-.229-.656-.452-1-.682a3.832,3.832,0,0,0-2.88-.49,6.631,6.631,0,0,0-2.672,1.306,4.109,4.109,0,0,1-.738.5,1.785,1.785,0,0,0,.575.439,5.244,5.244,0,0,0-1.21,1.8,6.766,6.766,0,0,1,5.9-1.563,11.572,11.572,0,0,0,1.729,6.385c-2.2-.332-4.3.88-6.192,2.046-.241.149-.485.3-.713.468a.878.878,0,0,0,.717.133,2.889,2.889,0,0,0-.462,1.977,5.416,5.416,0,0,1,7.821-1.81c.222,1.069.5,1.916.811,2.962L83.9,94.812a14.3,14.3,0,0,1-3.217,1.994,5.654,5.654,0,0,1-2.075.41,2.8,2.8,0,0,0,1.384.793,4.775,4.775,0,0,0-1.078,2.154,19.23,19.23,0,0,1,2.338-1.974,4.833,4.833,0,0,1,4.36-.783,14.811,14.811,0,0,1,1.015,4.078,17.158,17.158,0,0,0-3.879,2.439,15.772,15.772,0,0,0-2.032,2.4,1.194,1.194,0,0,0,.834.011,8.484,8.484,0,0,0-.049,1.3c.445-.414.86-.872,1.319-1.27a7.325,7.325,0,0,1,4.36-1.765.6.6,0,0,0,.4-.119.569.569,0,0,0,.123-.322c.2-1.26.387-2.534.54-3.812" transform="translate(-63.192 -65.51)" fill="#c48265"/>
            <g id="Grupo_1104744" data-name="Grupo 1104744" transform="translate(18.283 37.643)" opacity="0.2" style="mix-blend-mode: overlay;isolation: isolate">
              <g id="Grupo_1104743" data-name="Grupo 1104743">
                <g id="Grupo_1104742" data-name="Grupo 1104742" clip-path="url(#clip-path-14)">
                  <path id="Trazado_991629" data-name="Trazado 991629" d="M112.607,223.171a10.9,10.9,0,0,0-3.476,2.248,8.94,8.94,0,0,0-.739.957c.026-.008.052-.011.078-.021a8.484,8.484,0,0,0-.049,1.3c.445-.414.86-.872,1.319-1.27a7.322,7.322,0,0,1,3.071-1.571l-.2-1.645" transform="translate(-108.392 -223.171)" fill="#1e0202"/>
                </g>
              </g>
            </g>
            <g id="Grupo_1104747" data-name="Grupo 1104747" transform="translate(12.821 13.987)" opacity="0.2" style="mix-blend-mode: overlay;isolation: isolate">
              <g id="Grupo_1104746" data-name="Grupo 1104746">
                <g id="Grupo_1104745" data-name="Grupo 1104745" clip-path="url(#clip-path-15)">
                  <path id="Trazado_991630" data-name="Trazado 991630" d="M81.167,84.669l-.1-1.747a19.307,19.307,0,0,0-3.891,1.687,5.285,5.285,0,0,0-1.16,1.744,6.826,6.826,0,0,1,5.153-1.683" transform="translate(-76.014 -82.922)" fill="#1e0202"/>
                </g>
              </g>
            </g>
            <g id="Grupo_1104750" data-name="Grupo 1104750" transform="translate(13.788 22.947)" opacity="0.2" style="mix-blend-mode: overlay;isolation: isolate">
              <g id="Grupo_1104749" data-name="Grupo 1104749">
                <g id="Grupo_1104748" data-name="Grupo 1104748" clip-path="url(#clip-path-16)">
                  <path id="Trazado_991631" data-name="Trazado 991631" d="M82.828,137.691a4.419,4.419,0,0,0-.895.814,3.594,3.594,0,0,0-.18,1.457,5.521,5.521,0,0,1,2.53-2.311,5.429,5.429,0,0,1,2.517-.43l-.215-1.174a13.32,13.32,0,0,0-3.757,1.645" transform="translate(-81.745 -136.046)" fill="#1e0202"/>
                </g>
              </g>
            </g>
            <g id="Grupo_1104753" data-name="Grupo 1104753" transform="translate(15.725 30.857)" opacity="0.2" style="mix-blend-mode: overlay;isolation: isolate">
              <g id="Grupo_1104752" data-name="Grupo 1104752">
                <g id="Grupo_1104751" data-name="Grupo 1104751" clip-path="url(#clip-path-17)">
                  <path id="Trazado_991632" data-name="Trazado 991632" d="M94.219,184.692a4.792,4.792,0,0,0-.992,2.043,19.254,19.254,0,0,1,2.338-1.974,6.331,6.331,0,0,1,1.954-.881c.071-.05.14-.1.211-.152l-.309-.788a8.082,8.082,0,0,0-3.2,1.753" transform="translate(-93.227 -182.939)" fill="#1e0202"/>
                </g>
              </g>
            </g>
            <g id="Grupo_1104756" data-name="Grupo 1104756" transform="translate(15.141 5.209)" opacity="0.2" style="mix-blend-mode: overlay;isolation: isolate">
              <g id="Grupo_1104755" data-name="Grupo 1104755">
                <g id="Grupo_1104754" data-name="Grupo 1104754" clip-path="url(#clip-path-18)">
                  <path id="Trazado_991633" data-name="Trazado 991633" d="M93.157,30.884c-.812.182-1.5-.169-2.105.445a13.022,13.022,0,0,0-.858.981,11.168,11.168,0,0,0,.509,4.933,1.626,1.626,0,0,1,.206.671,1.465,1.465,0,0,1-.106.459,14.614,14.614,0,0,0-1.034,4.412,4.959,4.959,0,0,0,1.676,4.053,9.251,9.251,0,0,0,1.419,7.639,1.492,1.492,0,0,1,.295.546,1.458,1.458,0,0,1-.085.679,13.07,13.07,0,0,0-.4,5.077,3.875,3.875,0,0,0,1.616,3.092c.317.172.7.286.886.594a1.477,1.477,0,0,1,.142.745,11.249,11.249,0,0,0,.151,1.66,3.027,3.027,0,0,1-.225.251A3.282,3.282,0,0,1,92.951,68,3.215,3.215,0,0,0,94.2,70.588a4.895,4.895,0,0,0,2.825.529,7.251,7.251,0,0,0,1.372-.135l.008,0c.022,0,.042-.013.063-.018.093-.021.182-.048.272-.076s.151-.051.224-.08c.04-.016.084-.026.122-.044l.032-.027a1.759,1.759,0,0,0,.806-.71c.143-.252,1.377-.3,1.584-.5Q97.657,50.2,93.31,30.973c-.05-.031-.1-.06-.152-.089" transform="translate(-89.768 -30.884)" fill="#1e0202"/>
                </g>
              </g>
            </g>
            <g id="Grupo_1104759" data-name="Grupo 1104759" transform="translate(14.351 5.19)" opacity="0.2" style="mix-blend-mode: overlay;isolation: isolate">
              <g id="Grupo_1104758" data-name="Grupo 1104758">
                <g id="Grupo_1104757" data-name="Grupo 1104757" clip-path="url(#clip-path-19)">
                  <path id="Trazado_991634" data-name="Trazado 991634" d="M96,62.992c.041-.335.07-.671.1-1.006q-3.19-15.6-6.7-31.133l-.055-.082c-.853.233-1.573-.173-2.2.465a13.2,13.2,0,0,0-2.075,2.782A15.037,15.037,0,0,0,86.707,39.8a1.6,1.6,0,0,1,.189.459,1.557,1.557,0,0,1-.115.736c-.807,2.511-1.08,5.5.541,7.576a1.546,1.546,0,0,1,.451.87,1.468,1.468,0,0,1-.1.443,7.025,7.025,0,0,0,1.409,6.632.951.951,0,0,1,.29.493.979.979,0,0,1-.145.5,4.993,4.993,0,0,0,1.2,5.752,4.246,4.246,0,0,1,.736.7,2.156,2.156,0,0,1,.34.974,4.124,4.124,0,0,1-2.258,4.043,2.7,2.7,0,0,0,1.059,1.515,3.233,3.233,0,0,0,1.414.479,4.735,4.735,0,0,0,2.055-1.414,8.361,8.361,0,0,0,1.585-3.206,22.268,22.268,0,0,0,.64-3.36" transform="translate(-85.084 -30.77)" fill="#1e0202"/>
                </g>
              </g>
            </g>
            <path id="Trazado_991635" data-name="Trazado 991635" d="M122.3,42.66a9.2,9.2,0,0,0-.087-6.171A3.579,3.579,0,0,0,120.138,34a3.511,3.511,0,0,0,.961-3.026,7.3,7.3,0,0,0-1.266-3.016c-.646-.979-1.459-1.818-2.616-1.63A1.789,1.789,0,0,0,118,24.942a4.8,4.8,0,0,0-.21-1.632,9.859,9.859,0,0,0-1.156-2.941,3.186,3.186,0,0,0-2.156-1.639,3.656,3.656,0,0,0,.333-3.468,9.18,9.18,0,0,0-2.07-2.963c-.94-.994-1.66-2.041-3.028-2.025a6.142,6.142,0,0,0-5.342-5.929c-1.606-.16-3.411-.334-4.57.789a8.272,8.272,0,0,0-2.308,7.458,2.943,2.943,0,0,0,1.855,2.465c-1.174.7-1.572,2.356-1.757,3.709a9.816,9.816,0,0,0-.09,3.157,3.321,3.321,0,0,0,1.77,2.482,9.007,9.007,0,0,0-.468,4.764,5.772,5.772,0,0,0,.484,2.187,1.966,1.966,0,0,0,1.79,1.148c-1.331,1.953-1.018,4.594-.392,6.872a5.15,5.15,0,0,0,.679,1.641,1.926,1.926,0,0,0,1.48.874,4.952,4.952,0,0,0,2.868,5.67c5.438-1.482,11.274-3.027,16.59-4.9" transform="translate(-80.918 -3.515)" fill="#edbc9a"/>
            <path id="Trazado_991636" data-name="Trazado 991636" d="M105.342,90.145c.842-.455,1.714-.85,2.585-1.245l4.944-2.241a14.59,14.59,0,0,1,5.272-1.622,5.9,5.9,0,0,1,2.779.555c-.032-.053-.057-.11-.091-.162a3.186,3.186,0,0,0-2.156-1.639,2.929,2.929,0,0,0,.53-1.172,7.407,7.407,0,0,0-1.649-.118,6.416,6.416,0,0,0-3.244,1.416c-2.227,1.645-4.239,3.962-6.993,4.25-1.057.11-2.124-.1-3.186-.052a4.079,4.079,0,0,0-1.748.462,2.71,2.71,0,0,0,1.081.888,6.183,6.183,0,0,0-.544,2.223,20.556,20.556,0,0,1,2.419-1.543" transform="translate(-85.116 -68.576)" fill="#cc8e6d"/>
            <path id="Trazado_991637" data-name="Trazado 991637" d="M146,177.478a9.2,9.2,0,0,0-.4-4.947,3.581,3.581,0,0,0-2.073-2.489,3.269,3.269,0,0,0,.98-2.17,3.494,3.494,0,0,1-.542.811A8.146,8.146,0,0,1,139.719,171c-1.587.4-3.228.55-4.819.93a22.474,22.474,0,0,0-4.763,1.794,10.394,10.394,0,0,0-3.442,2.461c-.418.5-.77,1.075-1.23,1.523a1.59,1.59,0,0,0,.761.223,4.334,4.334,0,0,0-.006,2.256,7.961,7.961,0,0,1,2.2-2.935,17.853,17.853,0,0,1,4.8-2.682q2.727-1.133,5.536-2.051a9.179,9.179,0,0,1,4.791-.608,1.588,1.588,0,0,1,1.328,1.134,4.958,4.958,0,0,1-.064,3.8,11,11,0,0,0,1.184.628" transform="translate(-104.303 -139.557)" fill="#cc8e6d"/>
            <path id="Trazado_991638" data-name="Trazado 991638" d="M98.076,37.351c-.062.455-.12.914-.154,1.372a11.011,11.011,0,0,1,1.3-2.7c1.428-2.053,3.766-3.257,6.06-4.251a14.456,14.456,0,0,1,6.348-1.553,6.816,6.816,0,0,1,1.118.153A3.4,3.4,0,0,0,110.2,28.86a5.567,5.567,0,0,0-.493-2.276,1.473,1.473,0,0,1-.649.679,3.463,3.463,0,0,1-1.394.211,6.509,6.509,0,0,0-4.258,1.9c-1.095,1.106-1.982,2.718-3.531,2.871a2.65,2.65,0,0,1-1.737-.492,2.608,2.608,0,0,0,1.7,1.887c-1.174.7-1.572,2.356-1.757,3.709" transform="translate(-81.405 -22.1)" fill="#cc8e6d"/>
            <path id="Trazado_991639" data-name="Trazado 991639" d="M127.356,131.051a8.57,8.57,0,0,1,2.569-.485,4.338,4.338,0,0,1,2.049.578c-.049-.078-.1-.156-.149-.233-.646-.979-1.459-1.818-2.616-1.629a1.712,1.712,0,0,0,.745-1.183,6.386,6.386,0,0,0-3.377.669c-1.5.716-2.793,1.79-4.25,2.584a25.613,25.613,0,0,1-3.063,1.338,32.8,32.8,0,0,1-5.07,1.646,13.366,13.366,0,0,0-2.431.609,1.72,1.72,0,0,0,1.3.511,5.536,5.536,0,0,0-.89,2.676,11.292,11.292,0,0,1,.945-.753c4.228-3.057,9.237-4.827,14.234-6.327" transform="translate(-92.911 -106.467)" fill="#cc8e6d"/>
            <g id="Grupo_1104762" data-name="Grupo 1104762" transform="translate(17.807 15.252)" opacity="0.2" style="mix-blend-mode: overlay;isolation: isolate">
              <g id="Grupo_1104761" data-name="Grupo 1104761">
                <g id="Grupo_1104760" data-name="Grupo 1104760" clip-path="url(#clip-path-20)">
                  <path id="Trazado_991640" data-name="Trazado 991640" d="M110.575,95.5l4.944-2.241a14.585,14.585,0,0,1,5.272-1.622,5.9,5.9,0,0,1,2.779.555c-.032-.053-.057-.11-.091-.162a3.212,3.212,0,0,0-2.017-1.6,25.313,25.313,0,0,0-4.964,2,77.671,77.671,0,0,1-10.421,3.734,6.246,6.246,0,0,0-.507,2.129,20.556,20.556,0,0,1,2.42-1.543c.842-.455,1.714-.85,2.585-1.245" transform="translate(-105.57 -90.426)" fill="#1e0202"/>
                </g>
              </g>
            </g>
            <g id="Grupo_1104765" data-name="Grupo 1104765" transform="translate(16.517 6.602)" opacity="0.2" style="mix-blend-mode: overlay;isolation: isolate">
              <g id="Grupo_1104764" data-name="Grupo 1104764">
                <g id="Grupo_1104763" data-name="Grupo 1104763" clip-path="url(#clip-path-21)">
                  <path id="Trazado_991641" data-name="Trazado 991641" d="M106.341,40.946a21.019,21.019,0,0,0-2.784.948c-1.039.5-1.925,1.274-2.935,1.831a5.966,5.966,0,0,1-.813.373c-1.152.707-1.547,2.347-1.731,3.689-.062.455-.12.914-.154,1.372a11.014,11.014,0,0,1,1.3-2.7c1.428-2.053,3.766-3.257,6.06-4.251a14.456,14.456,0,0,1,6.348-1.553,6.815,6.815,0,0,1,1.118.153A3.4,3.4,0,0,0,110.2,39.3c0-.053-.007-.105-.008-.158a16.87,16.87,0,0,1-3.851,1.807" transform="translate(-97.922 -39.139)" fill="#1e0202"/>
                </g>
              </g>
            </g>
            <g id="Grupo_1104768" data-name="Grupo 1104768" transform="translate(19.266 22.698)" opacity="0.2" style="mix-blend-mode: overlay;isolation: isolate">
              <g id="Grupo_1104767" data-name="Grupo 1104767">
                <g id="Grupo_1104766" data-name="Grupo 1104766" clip-path="url(#clip-path-22)">
                  <path id="Trazado_991642" data-name="Trazado 991642" d="M115.169,142.784c4.228-3.057,9.236-4.827,14.234-6.327a8.568,8.568,0,0,1,2.569-.485,4.341,4.341,0,0,1,2.049.578c-.049-.078-.1-.156-.149-.233-.646-.979-1.459-1.818-2.616-1.629a1.283,1.283,0,0,0,.145-.115l-10.246,4.179c-1.2.491-2.407.982-3.639,1.4-.795.267-1.6.5-2.408.728a5.542,5.542,0,0,0-.882,2.663,11.259,11.259,0,0,1,.945-.753" transform="translate(-114.224 -134.572)" fill="#1e0202"/>
                </g>
              </g>
            </g>
            <g id="Grupo_1104771" data-name="Grupo 1104771" transform="translate(21.618 30.583)" opacity="0.2" style="mix-blend-mode: overlay;isolation: isolate">
              <g id="Grupo_1104770" data-name="Grupo 1104770">
                <g id="Grupo_1104769" data-name="Grupo 1104769" clip-path="url(#clip-path-23)">
                  <path id="Trazado_991643" data-name="Trazado 991643" d="M141.005,183.694a9.18,9.18,0,0,1,4.791-.608,1.588,1.588,0,0,1,1.328,1.134,4.958,4.958,0,0,1-.064,3.8,11.014,11.014,0,0,0,1.184.628,9.2,9.2,0,0,0-.4-4.947,3.867,3.867,0,0,0-1.821-2.392,70.5,70.5,0,0,0-12.784,4.429,15.667,15.667,0,0,0-5.071,3.314,1.356,1.356,0,0,0,.305.049,4.336,4.336,0,0,0-.006,2.256,7.963,7.963,0,0,1,2.2-2.936,17.848,17.848,0,0,1,4.8-2.682q2.727-1.133,5.536-2.051" transform="translate(-128.164 -181.314)" fill="#1e0202"/>
                </g>
              </g>
            </g>
            <g id="Grupo_1104774" data-name="Grupo 1104774" transform="translate(16.418 1.063)" opacity="0.2" style="mix-blend-mode: overlay;isolation: isolate">
              <g id="Grupo_1104773" data-name="Grupo 1104773">
                <g id="Grupo_1104772" data-name="Grupo 1104772" clip-path="url(#clip-path-24)">
                  <path id="Trazado_991644" data-name="Trazado 991644" d="M117.217,28.054A1.789,1.789,0,0,0,118,26.667a4.793,4.793,0,0,0-.21-1.632,9.853,9.853,0,0,0-1.156-2.941,3.186,3.186,0,0,0-2.156-1.639,3.656,3.656,0,0,0,.333-3.468,9.181,9.181,0,0,0-2.07-2.962c-.94-.994-1.659-2.041-3.028-2.025a6.184,6.184,0,0,0-4.238-5.7,8.342,8.342,0,0,1,2.592,6.776,7.256,7.256,0,0,1,4.781,2.745,4.471,4.471,0,0,1,.018,5.267c2.918,1.124,4.266,5.463,2.328,7.917a4.574,4.574,0,0,1,1.583,8.238,2.856,2.856,0,0,1-.113,2.629,6.5,6.5,0,0,1-1.839,2c-2.243,1.749-5.065,3-7.884,2.619-1.008-.137-2.166-.7-2.225-1.715-1.409.15-2.491-1.27-2.9-2.628a8.138,8.138,0,0,1,.937-6.527,2.228,2.228,0,0,1-2.128-.88,4.92,4.92,0,0,1-.878-2.235,5.8,5.8,0,0,1,.076-2.865,3.751,3.751,0,0,1,1.789-2.1A4.526,4.526,0,0,1,99.106,21.1a10.637,10.637,0,0,1,1.9-5.04c-2.159-.592-3.283-3.145-3.031-5.37a8.626,8.626,0,0,1,.65-2.379,8.285,8.285,0,0,0-1.134,6,2.943,2.943,0,0,0,1.855,2.465c-1.174.7-1.572,2.356-1.757,3.709a9.811,9.811,0,0,0-.09,3.157,3.322,3.322,0,0,0,1.77,2.482,9.007,9.007,0,0,0-.468,4.764,5.775,5.775,0,0,0,.484,2.186,1.966,1.966,0,0,0,1.79,1.148c-1.331,1.953-1.019,4.594-.392,6.872a5.145,5.145,0,0,0,.679,1.64,1.924,1.924,0,0,0,1.48.874,4.953,4.953,0,0,0,2.868,5.67c5.438-1.482,11.274-3.027,16.59-4.9a9.2,9.2,0,0,0-.087-6.171,3.58,3.58,0,0,0-2.073-2.489,3.511,3.511,0,0,0,.96-3.026,7.3,7.3,0,0,0-1.266-3.016c-.646-.979-1.459-1.818-2.616-1.629" transform="translate(-97.337 -6.303)" fill="#1e0202"/>
                </g>
              </g>
            </g>
            <path id="Trazado_991645" data-name="Trazado 991645" d="M121.319,204.858A41.49,41.49,0,0,1,121,218a21.7,21.7,0,0,1-6.113,11.466c-5.8,5.405-15.053,6.158-22.245,2.816S80.293,222.064,77.8,214.536a6.153,6.153,0,0,1,7.081-2.573,25.633,25.633,0,0,1,5.347-3.631,9.11,9.11,0,0,1,4.322-1.393A11.05,11.05,0,0,1,98.627,208a15.7,15.7,0,0,1,6.342-4.264,8.007,8.007,0,0,1,7.4.931c1.109-.435,2.58-.866,3.688-1.3a5.714,5.714,0,0,1,2.4-.558c.828.053,2.766,1.228,2.857,2.053" transform="translate(-64.676 -168.593)" fill="#994630"/>
            <path id="Trazado_991646" data-name="Trazado 991646" d="M111.914,259.691c-1.207-1.484-2.458-2.927-3.643-4.417a5.623,5.623,0,0,0-.851-.036,16.5,16.5,0,0,0,4.374,4.6c.094.065.185-.067.119-.147" transform="translate(-89.301 -212.184)" fill="#aa4e3c"/>
            <path id="Trazado_991647" data-name="Trazado 991647" d="M288.822,215.545c2.89-3.344,4.481-8.26,5.315-12.586a2.038,2.038,0,0,0-.527-.126c-.057,0-.114.006-.171.006a36.651,36.651,0,0,1-1.733,5.934c-.078.2-.173.394-.257.593a48.362,48.362,0,0,1-.546-5.864c-.229.086-.461.171-.708.256a13.329,13.329,0,0,0,.964,6.032.153.153,0,0,0,.076.07c-.832,1.854-1.856,3.585-2.733,5.427-.092.193.152.453.32.259" transform="translate(-239.823 -168.619)" fill="#aa4e3c"/>
            <path id="Trazado_991648" data-name="Trazado 991648" d="M125.7,224.5c-.364.5-.824.992-1.236,1.506.173-.305.34-.611.5-.912a25.432,25.432,0,0,0,2.847-10.9,35.722,35.722,0,0,0,.5-4.09q-.1-1.467-.257-2.927a.914.914,0,0,0-.145-.369,31.394,31.394,0,0,1-1.774,10.635,19.565,19.565,0,0,1-3.987,6.424,39.1,39.1,0,0,0-3.485,3.638c.152-3.282-1.47-6.3-2.713-9.243a47.3,47.3,0,0,1-2.335-7.4c-.171-1.577-.386-3.148-.687-4.689.756,1.491,1.764,2.827,2.691,4.45,1.86,3.257,2.867,6.757,4.164,10.247.007.019.025.028.037.043a4.682,4.682,0,0,0-.447,1.737c0,.031.042.031.047,0,.243-1.665,1.611-2.812,2.7-3.977a20.8,20.8,0,0,0,2.284-2.947,22.464,22.464,0,0,0,2.94-6.987c.163-.7.3-1.417.4-2.152a3.545,3.545,0,0,0-.494-.469,23.009,23.009,0,0,1-.839,3.917,21.992,21.992,0,0,1-3.589,6.992,33.681,33.681,0,0,0-2.769,3.436,21.031,21.031,0,0,0-1.24-4.96.089.089,0,0,0,.066-.1,31.04,31.04,0,0,0-2.312-8.01c-.248-.591-.517-1.171-.795-1.747-.214-.029-.429-.046-.646-.057.29.612.571,1.222.839,1.821a57.18,57.18,0,0,1,2.5,7.2c-.28-.684-.582-1.359-.9-2.025-1.116-2.348-2.974-4.565-4.325-6.9a9.316,9.316,0,0,0-1.539.367c-.314.107-.623.226-.926.355a14.366,14.366,0,0,1-.617,2.051,26.693,26.693,0,0,1-1.679,3.188,6.652,6.652,0,0,0-.23-3.841c-.206.142-.408.292-.607.444a16.832,16.832,0,0,1,.4,3.859.119.119,0,0,0,.131.113,6.71,6.71,0,0,0-.851,3.114.042.042,0,0,0,.078.024,42.546,42.546,0,0,0,4.138-8.566q.154.732.292,1.468c-.4,4.156-2.166,8.01-2.767,12.093a24.028,24.028,0,0,0-3.934-6.376c-1.677-1.84-3.882-2.9-5.613-4.451a9.4,9.4,0,0,0-1.051.374,17.366,17.366,0,0,0,2.787,2.118c3.626,2.382,5.618,5.492,7.715,9.056-.059.534-.1,1.071-.1,1.615a30.912,30.912,0,0,1-4.659-3.51,37.7,37.7,0,0,1-5.8-9.252l-.1.046c1.057,2.982,2.026,5.763,4.09,8.344,2.448,3.062,6.1,4.4,8.916,7.056.091.085.265-.021.187-.137a9.731,9.731,0,0,0-2.254-2.268.185.185,0,0,0,.039-.084c.122-.665.139-.548.079-.914.033.01.071-.01.111-.043l.114.2a.112.112,0,0,0,.2-.108c-.043-.1-.089-.209-.132-.314a18.616,18.616,0,0,0,1.132-2.93c.519-1.862,1.043-3.727,1.5-5.606a49.257,49.257,0,0,1-.222,10.645,33.294,33.294,0,0,0-.4,7.064,26.5,26.5,0,0,0-4.155-3.834,26.561,26.561,0,0,1-6.746-8.884c-.023-.05-.076-.038-.1,0a62.781,62.781,0,0,1-2.279-6.633c-.1-.479-.222-.951-.363-1.418q-.25.118-.5.245c.154.83.321,1.657.519,2.472.3,2.87.29,5.765.6,8.676a15.824,15.824,0,0,0,2.424,7.481c-1.948-.926-4.2-1.5-6.155-2.288a22.634,22.634,0,0,1-6.629-3.844,19.31,19.31,0,0,1-2.38-2.537q.656,1.438,1.445,2.811c.053.05.1.1.155.152a20.206,20.206,0,0,0,6.227,3.747c1.3.519,2.638.961,3.973,1.4a37.672,37.672,0,0,0,3.927,1.284c.025.029.045.061.07.089a3.314,3.314,0,0,0,.921,1.694c-.151-.02-.3-.04-.453-.058A24.324,24.324,0,0,1,95.5,230.09a23.43,23.43,0,0,1-6.135-3.863,29.71,29.71,0,0,0,2.3,2.737,24.064,24.064,0,0,0,2.076,1.229,17.632,17.632,0,0,0,4.194,1.554c0,.008,0,.016.006.022,1.643,1.277,3.225,2.794,4.918,4.075q.848.226,1.711.386a12.433,12.433,0,0,1-1.094-.737c-1.687-1.288-3.143-2.895-5.143-3.665.369.074.74.139,1.115.186,2.23.277,4.276.28,6.3,1.305a7.683,7.683,0,0,0,3.411,3c.1.044.144-.1.072-.16a10.99,10.99,0,0,1-3.991-5.547c-.288-.942-.481-1.846-.795-2.694a58.681,58.681,0,0,0,6.289,8.575c.553-.055,1.1-.128,1.647-.226-.362-.356-.718-.72-1.063-1.1q-1.376-1.5-2.633-3.1a9.5,9.5,0,0,0,3.876,1.65.165.165,0,0,0,.124-.276c-.046-.044-.1-.078-.146-.119a.229.229,0,0,0,.111-.155c0-.014,0-.027,0-.041a.127.127,0,0,0,.043-.135c-.007-.025-.016-.048-.023-.073.194-1.843-.05-3.754.047-5.616.1-1.982.352-3.952.5-5.93.006-.084.011-.166.017-.249,0,.088.012.176.016.264a130.18,130.18,0,0,1,.21,14.639q.67-.159,1.326-.365a75.177,75.177,0,0,0-.335-12.578c.122.855.262,1.71.445,2.568.483,2.269,1.017,5.071,2.379,7.055l-.031.027c-.105.09,0,.3.135.249.023-.009.046-.02.069-.029.048.064.088.135.138.2.083.1.237,0,.214-.116-.014-.069-.038-.136-.054-.205a14.006,14.006,0,0,0,5.855-5.424c-.024.063-.053.124-.073.189-.006.018.012.043.033.035a6.257,6.257,0,0,0,2.454-2.341c.09-.116.173-.237.261-.354a24.7,24.7,0,0,0,1.044-2.993A29.74,29.74,0,0,1,125.7,224.5m-24.213,2.68c-.005.475,0,.987.034,1.5a20.112,20.112,0,0,1-2.448-9.155c-.077-1.19-.118-2.4-.188-3.613a49.415,49.415,0,0,0,1.926,5.157,24.122,24.122,0,0,1,.676,6.113m1.858,4.427a5.362,5.362,0,0,1-.462-.679l.027.022c.118.092.256-.094.16-.2-.2-.213-.382-.431-.56-.653-.614-1.747-.277-3.638-.473-5.609-.041-.409-.1-.8-.174-1.185q.655,1.314,1.4,2.607c-.018-.019-.03-.039-.048-.058a.044.044,0,0,0-.071.052c1.055,2.016,1.163,4.349,2.082,6.4a5.352,5.352,0,0,0-1.877-.7m4.771-.274a55.41,55.41,0,0,1-3.806-5.691c-.327-.561-.641-1.133-.95-1.709a11.767,11.767,0,0,0,1.854,2.2c2.411,2.225,4.864,3.689,6.768,6.354.056.183.125.36.193.538a15.225,15.225,0,0,0-4.059-1.7m9.529,1.074c-.3-1.044-.751-2.048-1.084-3.081a39.711,39.711,0,0,1-1.065-4.1c-.488-2.344-.9-4.708-1.343-7.062-.064-1.143-.131-2.3-.211-3.464a23.577,23.577,0,0,0,.891,2.866c1.323,3.421,3.212,6.514,3.626,10.226a7.733,7.733,0,0,0-.7,1.225c-.068.153.169.292.277.171,1.731-1.968,3.931-3.428,5.629-5.418a16.942,16.942,0,0,0,3.006-5.268,26.071,26.071,0,0,1-2.089,6.082c-1.67,3.3-4.2,5.489-6.934,7.821" transform="translate(-71.409 -170.911)" fill="#aa4e3c"/>
            <path id="Trazado_991649" data-name="Trazado 991649" d="M100.143,235.591h0l-.57.321c-.186,2.329-.483,4.659-.439,6.989a15.635,15.635,0,0,0,.9,5.326,32.054,32.054,0,0,1-3.921-2.337,25.731,25.731,0,0,1-3.768-3.775c-.706-.843-1.379-1.714-2.051-2.585a6.47,6.47,0,0,0-.571.322c1.008,1.348,2.03,2.69,3.164,3.935,1.823,2,4.476,4.559,7.323,4.863a7.081,7.081,0,0,0,1.986,2.655c.089.072.255-.014.179-.131a16,16,0,0,1-2.491-9.738c.077-1.989.26-3.915.258-5.845" transform="translate(-74.591 -195.853)" fill="#aa4e3c"/>
            <path id="Trazado_991650" data-name="Trazado 991650" d="M263.335,209.042c-.446.152-.884.3-1.272.456a6.387,6.387,0,0,0-1.568-.885c.1.573.179,1.157.238,1.763a79.762,79.762,0,0,1,.334,11.892c-.283,5.5-.811,11.113-3.2,15.882a18.643,18.643,0,0,0,3.057-1.266c1.617-4.235,2.115-9.359,2.712-12.884a37.358,37.358,0,0,0-.3-14.958" transform="translate(-214.369 -173.426)" fill="#7f2422"/>
            <path id="Trazado_991651" data-name="Trazado 991651" d="M200.9,254.775c-.53-1.648-1.165-3.285-1.546-4.827-.892-3.612-1.994-7.156-2.944-10.752a70.981,70.981,0,0,0-2.719-9.415c-.2-.488-.419-.975-.64-1.46-.308.289-.61.584-.9.894-.608-.245-1.225-.488-1.853-.682.073.408.148.817.219,1.225.617,3.5,2.332,6.863,3.575,10.167s2.331,6.641,3.526,9.948c.574,1.589.992,3.476,1.522,5.3q.89-.159,1.76-.4" transform="translate(-158.204 -189.811)" fill="#7f2422"/>
            <path id="Trazado_991652" data-name="Trazado 991652" d="M137.53,273.576c-4.064-1.165-7.49-4.289-9.921-7.656a89.8,89.8,0,0,1-6.237-10.469c-.891-1.673-1.874-3.336-2.826-5.016a15.026,15.026,0,0,0-1.337,1.129c-.173-.061-.347-.112-.521-.156a26.3,26.3,0,0,0,2.641,7.007,48.061,48.061,0,0,0,8.244,10.152,25.666,25.666,0,0,0,7.437,5.3,21.413,21.413,0,0,0,2.622-.268c-.034-.009-.067-.016-.1-.026" transform="translate(-97.006 -208.195)" fill="#7f2422"/>
            <g id="Grupo_1104777" data-name="Grupo 1104777" transform="translate(13.122 34.659)" opacity="0.2" style="mix-blend-mode: overlay;isolation: isolate">
              <g id="Grupo_1104776" data-name="Grupo 1104776">
                <g id="Grupo_1104775" data-name="Grupo 1104775" clip-path="url(#clip-path-25)">
                  <path id="Trazado_991653" data-name="Trazado 991653" d="M121.319,207.089c-.052-.471-.708-1.056-1.414-1.481a28.834,28.834,0,0,1-1,13.992c-.857,2.58-2.384,5.3-5.011,6a.927.927,0,0,1-.786-.05,1.024,1.024,0,0,1-.261-.9c.057-1.332.139-2.663.228-3.993q.487-7.243,1.286-14.46c-.694.233-1.4.467-1.993.7a7.265,7.265,0,0,0-4.73-1.408,68.246,68.246,0,0,1,1.813,8.682,32.057,32.057,0,0,1-1.106,14.668c-.31.893-.845,1.9-1.786,1.992-1.224.114-1.9-1.357-2.206-2.548q-2.436-9.556-4.562-19.188c-.4.363-.792.74-1.164,1.136-.654-.263-1.318-.528-1.994-.727l1.615,4.145c2.034,5.222,4.089,10.525,4.644,16.1.078.788.033,1.758-.666,2.129a1.876,1.876,0,0,1-1.185.089,11.945,11.945,0,0,1-6.78-4.1,35.541,35.541,0,0,1-4.36-6.784l-4.136-7.656c-.3.247-.6.5-.886.772a5.62,5.62,0,0,0-1.339-.292,29.893,29.893,0,0,0,3.033,7.384,76.445,76.445,0,0,0,8.26,11.161c-3.484-.59-6.251-3.2-8.6-5.838a36.637,36.637,0,0,1-7.224-11.2,6.963,6.963,0,0,0-1.214,1.354c2.495,7.528,7.655,14.4,14.847,17.743s16.441,2.589,22.245-2.816A21.705,21.705,0,0,0,121,220.228a41.49,41.49,0,0,0,.316-13.14" transform="translate(-77.798 -205.483)" fill="#1e0202"/>
                </g>
              </g>
            </g>
            <g id="Grupo_1104780" data-name="Grupo 1104780" transform="translate(13.122 34.207)" opacity="0.2" style="mix-blend-mode: overlay;isolation: isolate">
              <g id="Grupo_1104779" data-name="Grupo 1104779">
                <g id="Grupo_1104778" data-name="Grupo 1104778" clip-path="url(#clip-path-26)">
                  <path id="Trazado_991654" data-name="Trazado 991654" d="M114.89,229.464A21.7,21.7,0,0,0,121,218a41.49,41.49,0,0,0,.316-13.14c-.092-.825-2.029-2-2.857-2.052a5.712,5.712,0,0,0-2.4.558c-1.109.435-2.58.866-3.688,1.3a7.823,7.823,0,0,0-6.707-1.126q.955,3.9,1.65,7.862c.9,5.163,1.439,10.606-.331,15.539a3.816,3.816,0,0,1-1.85,2.422c-1.5.614-3.081-.6-4.193-1.781-4.894-5.186-8.582-11.333-12-17.549-.144-.261-.282-.5-.418-.722a19.833,19.833,0,0,0-3.639,2.652,6.152,6.152,0,0,0-7.081,2.573c2.495,7.528,7.655,14.4,14.847,17.743s16.441,2.589,22.245-2.816" transform="translate(-77.798 -202.8)" fill="#1e0202"/>
                </g>
              </g>
            </g>
            <path id="Trazado_991655" data-name="Trazado 991655" d="M113.893,19.691c.792-.567,2.112-1.43,1.9-2.575a1.423,1.423,0,0,0-2.074-1.019c-1.987,1.122-2.9,5.792.171,3.595" transform="translate(-93.028 -13.235)" fill="#f4c6a6"/>
            <path id="Trazado_991656" data-name="Trazado 991656" d="M137.533,15.373A.86.86,0,0,0,137.051,17c1.119.6,1.917-1.5.482-1.631" transform="translate(-113.521 -12.776)" fill="#f4c6a6"/>
            <path id="Trazado_991657" data-name="Trazado 991657" d="M128.545,74.574c1.024-.627,3.945-1.618,2.681-3.274-1.786-2.34-6.14.872-6.243,3.154-.109,2.424,2.485.78,3.562.12" transform="translate(-103.9 -58.597)" fill="#f4c6a6"/>
            <path id="Trazado_991658" data-name="Trazado 991658" d="M139.5,118.926c.847-.41,5.062-2.895,2.085-3.757-2.551-.739-10.069,4.981-7.241,6.095,1.324.521,3.994-1.776,5.156-2.338" transform="translate(-111.167 -95.688)" fill="#f4c6a6"/>
            <path id="Trazado_991659" data-name="Trazado 991659" d="M152.564,163.03c-1.909-.645-4.071.658-5.643,1.633-1.1.681-3.476,2.559-1.144,3.124,1.622.393,4.769-1.25,6.244-1.863,1.14-.474,2.553-2.215.542-2.894" transform="translate(-120.366 -135.389)" fill="#f4c6a6"/>
            <path id="Trazado_991660" data-name="Trazado 991660" d="M168.256,209.5c-2.461.82-1.581,3.1.76,2.338,1.994-.645,1.28-3.017-.76-2.338" transform="translate(-138.653 -174.064)" fill="#f4c6a6"/>
            <path id="Trazado_991661" data-name="Trazado 991661" d="M191.247,206.841a.878.878,0,0,0,.018.23c-.01-.016-.013-.019,0,0,.233,1.058,2.55.2,1.531-.839-.437-.129-1.5-.344-1.549.605" transform="translate(-158.988 -171.353)" fill="#f4c6a6"/>
            <path id="Trazado_991662" data-name="Trazado 991662" d="M184.994,14.471c1.083,1.469,3.557-.515,1.858-1.662-1.163-.785-2.8.39-1.858,1.662" transform="translate(-153.559 -10.438)" fill="#edbb9f"/>
            <path id="Trazado_991663" data-name="Trazado 991663" d="M212.782,46.92c-.574-1.386-3.039-1.068-2.761.564.3,1.777,3.627,1.526,2.761-.564" transform="translate(-174.578 -38.279)" fill="#edbb9f"/>
            <path id="Trazado_991664" data-name="Trazado 991664" d="M233.181,87.612c-2.235-2.525-4.136,1.531-1.424,2.8,1.863.87,2.564-1.509,1.424-2.8" transform="translate(-191.556 -72.159)" fill="#edbb9f"/>
            <path id="Trazado_991665" data-name="Trazado 991665" d="M250.81,138.559c-.837-2.178-3.907-1.392-2.478.817.957,1.479,3.257,1.21,2.478-.817" transform="translate(-206.135 -114.115)" fill="#edbb9f"/>
            <g id="Grupo_1104783" data-name="Grupo 1104783" transform="translate(27.102 41.464)" opacity="0.4" style="mix-blend-mode: overlay;isolation: isolate">
              <g id="Grupo_1104782" data-name="Grupo 1104782">
                <g id="Grupo_1104781" data-name="Grupo 1104781" clip-path="url(#clip-path-27)">
                  <path id="Trazado_991666" data-name="Trazado 991666" d="M165.51,249.529c-.7-1.217-2.037-4.259-3.9-3.616-1.957.675-.325,3.384.288,4.461.6,1.06,1.938,3.758,3.412,3.655,2.072-.145.762-3.519.2-4.5" transform="translate(-160.678 -245.824)" fill="#fff"/>
                </g>
              </g>
            </g>
            <g id="Grupo_1104786" data-name="Grupo 1104786" transform="translate(38.971 40.472)" opacity="0.4" style="mix-blend-mode: overlay;isolation: isolate">
              <g id="Grupo_1104785" data-name="Grupo 1104785">
                <g id="Grupo_1104784" data-name="Grupo 1104784" clip-path="url(#clip-path-28)">
                  <path id="Trazado_991667" data-name="Trazado 991667" d="M233.565,240.638a1.363,1.363,0,0,0-2.507.966c.309,2.985,1.416,5.821,2.208,8.7a.212.212,0,0,0,.405.013c.828-3.226,1.744-6.633-.107-9.678" transform="translate(-231.05 -239.944)" fill="#fff"/>
                </g>
              </g>
            </g>
          </g>
        </g>
      </g>
    </g>
  </g>
</svg>
