<svg xmlns="http://www.w3.org/2000/svg" xmlns:xlink="http://www.w3.org/1999/xlink" width="112" height="112" viewBox="0 0 112 112">
  <defs>
    <clipPath id="clip-path">
      <rect id="Rectángulo_403969" data-name="Rectángulo 403969" width="91.697" height="84.926" fill="none"/>
    </clipPath>
    <clipPath id="clip-path-3">
      <rect id="Rectángulo_403941" data-name="Rectángulo 403941" width="34.642" height="63.418" fill="none"/>
    </clipPath>
    <clipPath id="clip-path-4">
      <rect id="Rectángulo_403942" data-name="Rectángulo 403942" width="25.46" height="63.418" fill="none"/>
    </clipPath>
    <clipPath id="clip-path-5">
      <rect id="Rectángulo_403943" data-name="Rectángulo 403943" width="13.044" height="52.412" fill="none"/>
    </clipPath>
    <clipPath id="clip-path-6">
      <rect id="Rectángulo_403944" data-name="Rectángulo 403944" width="16.234" height="34.917" fill="none"/>
    </clipPath>
    <clipPath id="clip-path-7">
      <rect id="Rectángulo_403945" data-name="Rectángulo 403945" width="40.814" height="16.905" fill="none"/>
    </clipPath>
    <clipPath id="clip-path-8">
      <rect id="Rectángulo_403946" data-name="Rectángulo 403946" width="4.668" height="11.248" fill="none"/>
    </clipPath>
    <clipPath id="clip-path-9">
      <rect id="Rectángulo_403947" data-name="Rectángulo 403947" width="4.58" height="11.723" fill="none"/>
    </clipPath>
    <clipPath id="clip-path-10">
      <rect id="Rectángulo_403948" data-name="Rectángulo 403948" width="22.709" height="59.293" fill="none"/>
    </clipPath>
    <clipPath id="clip-path-11">
      <rect id="Rectángulo_403949" data-name="Rectángulo 403949" width="32.906" height="59.354" fill="none"/>
    </clipPath>
    <clipPath id="clip-path-12">
      <rect id="Rectángulo_403950" data-name="Rectángulo 403950" width="5.167" height="25.143" fill="none"/>
    </clipPath>
    <clipPath id="clip-path-13">
      <rect id="Rectángulo_403951" data-name="Rectángulo 403951" width="6.513" height="12.613" fill="none"/>
    </clipPath>
    <clipPath id="clip-path-14">
      <rect id="Rectángulo_403952" data-name="Rectángulo 403952" width="31.649" height="65.737" fill="none"/>
    </clipPath>
    <clipPath id="clip-path-15">
      <rect id="Rectángulo_403953" data-name="Rectángulo 403953" width="35.436" height="66.31" fill="none"/>
    </clipPath>
    <clipPath id="clip-path-16">
      <rect id="Rectángulo_403954" data-name="Rectángulo 403954" width="11.03" height="31.877" fill="none"/>
    </clipPath>
    <clipPath id="clip-path-17">
      <rect id="Rectángulo_403955" data-name="Rectángulo 403955" width="21.035" height="8.046" fill="none"/>
    </clipPath>
    <clipPath id="clip-path-18">
      <rect id="Rectángulo_403956" data-name="Rectángulo 403956" width="30.032" height="65.108" fill="none"/>
    </clipPath>
    <clipPath id="clip-path-19">
      <rect id="Rectángulo_403957" data-name="Rectángulo 403957" width="19.853" height="14.934" fill="none"/>
    </clipPath>
    <clipPath id="clip-path-20">
      <rect id="Rectángulo_403958" data-name="Rectángulo 403958" width="60.786" height="33.514" fill="none"/>
    </clipPath>
    <clipPath id="clip-path-21">
      <rect id="Rectángulo_403959" data-name="Rectángulo 403959" width="60.786" height="25.193" fill="none"/>
    </clipPath>
    <clipPath id="clip-path-22">
      <rect id="Rectángulo_403960" data-name="Rectángulo 403960" width="45.224" height="25.193" fill="none"/>
    </clipPath>
    <clipPath id="clip-path-23">
      <rect id="Rectángulo_403961" data-name="Rectángulo 403961" width="33.955" height="14.662" fill="none"/>
    </clipPath>
    <clipPath id="clip-path-24">
      <rect id="Rectángulo_403962" data-name="Rectángulo 403962" width="14.287" height="52.784" fill="none"/>
    </clipPath>
    <clipPath id="clip-path-25">
      <rect id="Rectángulo_403963" data-name="Rectángulo 403963" width="15.85" height="48.672" fill="none"/>
    </clipPath>
    <clipPath id="clip-path-26">
      <rect id="Rectángulo_403964" data-name="Rectángulo 403964" width="14.818" height="43.603" fill="none"/>
    </clipPath>
    <clipPath id="clip-path-27">
      <rect id="Rectángulo_403965" data-name="Rectángulo 403965" width="9.692" height="3.546" fill="none"/>
    </clipPath>
    <clipPath id="clip-path-28">
      <rect id="Rectángulo_403966" data-name="Rectángulo 403966" width="6.267" height="3.561" fill="none"/>
    </clipPath>
    <clipPath id="clip-path-29">
      <rect id="Rectángulo_403967" data-name="Rectángulo 403967" width="11.3" height="3.578" fill="none"/>
    </clipPath>
  </defs>
  <g id="Grupo_1105925" data-name="Grupo 1105925" transform="translate(-1169.5 -86)">
    <g id="Elipse_11668" data-name="Elipse 11668" transform="translate(1169.5 86)" fill="#e5a32c" stroke="#5b2b0e" stroke-width="5">
      <circle cx="56" cy="56" r="56" stroke="none"/>
      <circle cx="56" cy="56" r="53.5" fill="none"/>
    </g>
    <g id="Grupo_1103954" data-name="Grupo 1103954" transform="translate(1183.803 102)">
      <g id="Grupo_1103953" data-name="Grupo 1103953" clip-path="url(#clip-path)">
        <g id="Grupo_1103952" data-name="Grupo 1103952">
          <g id="Grupo_1103951" data-name="Grupo 1103951" clip-path="url(#clip-path)">
            <path id="Trazado_989458" data-name="Trazado 989458" d="M148.82,102.506c-1.766-3.47-5.09-5.853-8.43-7.854-4.647-2.785-9.635-5.153-13.562-8.885a25.424,25.424,0,0,1-3.5-32.744c1.48-2.173,3.3-4.115,4.615-6.39s2.11-5.043,1.3-7.544c.992.7,1.021,1.248,1.641,2.293,2.654,4.47,7.931,6.508,12.079,9.64,7.475,5.643,11.326,15.182,11.7,24.54s-2.171,18.33-5.847,26.945" transform="translate(-97.27 -31.972)" fill="#4c5900"/>
            <path id="Trazado_989459" data-name="Trazado 989459" d="M143.582,94.52a30.316,30.316,0,0,1,2.185-2.514c.18-.185.943-.771,1.024-1.006.087-.253-.062-.788-.437-.437a29.585,29.585,0,0,0-9.282,20.182,30.425,30.425,0,0,1,3.243-11.021,30.944,30.944,0,0,1,3.268-5.2" transform="translate(-112.116 -73.98)" fill="#779300"/>
            <path id="Trazado_989460" data-name="Trazado 989460" d="M136.933,201.934c-.016.272-.028.543-.031.81,0-.271.02-.54.031-.81" transform="translate(-111.977 -165.17)" fill="#779300"/>
            <path id="Trazado_989461" data-name="Trazado 989461" d="M163.728,124.332q.649-1.414,1.387-2.785c.229-.425,1.793-2.639,1.554-2.966,6.925,2.045,15.235,5.094,18.69,11.885a19.505,19.505,0,0,0-7.968-8.225,50.041,50.041,0,0,0-6.29-3.088c-1.231-.483-3.99-1.642-4.9-.57a23.523,23.523,0,0,0-2.911,5.444,45.442,45.442,0,0,0-4.022,18A45.713,45.713,0,0,1,161.42,130.4a49.05,49.05,0,0,1,2.308-6.064" transform="translate(-130.271 -96.633)" fill="#779300"/>
            <path id="Trazado_989462" data-name="Trazado 989462" d="M159.2,249.341c-.009.291-.014.58-.014.867,0-.289.009-.578.014-.867" transform="translate(-130.208 -203.946)" fill="#779300"/>
            <path id="Trazado_989463" data-name="Trazado 989463" d="M187.275,174.561c-.016-.177-.142-.588-.407-.238-4.033,5.336-4.581,12.273-5.077,18.708a54.383,54.383,0,0,1,1.738-10.1,31.3,31.3,0,0,1,1.734-4.786,26,26,0,0,1,1.317-2.489c.117-.2.709-.926.695-1.091" transform="translate(-148.694 -142.473)" fill="#779300"/>
            <path id="Trazado_989464" data-name="Trazado 989464" d="M208.914,214.737c-.067-.087-.236-.342-.386-.072-2.561,4.611-3.488,10.743-3.362,15.952a46.8,46.8,0,0,1,2.664-12.928c.273-.715.579-1.417.847-2.134.055-.147.346-.677.237-.819" transform="translate(-167.804 -175.484)" fill="#779300"/>
            <path id="Trazado_989465" data-name="Trazado 989465" d="M227.5,256.52a20.506,20.506,0,0,0-2.032,9.906,19.736,19.736,0,0,1,.8-5.731,20.244,20.244,0,0,1,.953-2.611c.122-.274.725-1.128.663-1.34-.033-.113-.177-.627-.383-.224" transform="translate(-184.413 -209.693)" fill="#779300"/>
            <path id="Trazado_989466" data-name="Trazado 989466" d="M245.782,297.257c-1.211,1.474-1.552,4.113-1.4,5.938a11.744,11.744,0,0,1,.667-3.358c.168-.537.416-1.039.616-1.564.009-.024.4-1.359.113-1.016" transform="translate(-199.864 -243.092)" fill="#779300"/>
            <path id="Trazado_989467" data-name="Trazado 989467" d="M195.521,90.221a21.378,21.378,0,0,1,3.171,1.3c1.1.545,2.166,1.172,3.228,1.8.642.377,2.02.939,2.363,1.216a32.8,32.8,0,0,0-5.993-3.856c-.649-.323-5.72-2.435-5.764-1.3-.011.274,2.574.717,3,.846" transform="translate(-157.474 -72.834)" fill="#779300"/>
            <path id="Trazado_989468" data-name="Trazado 989468" d="M216.5,170.66c-.318-.087-4.095-.939-3.886-.331.214.624,3.366.871,3.969,1.026a31.208,31.208,0,0,1,4.218,1.435,29.174,29.174,0,0,1,7.523,4.178,28.287,28.287,0,0,0-7.541-4.826,32,32,0,0,0-4.283-1.482" transform="translate(-173.897 -139.141)" fill="#779300"/>
            <path id="Trazado_989469" data-name="Trazado 989469" d="M236.76,211.841a16.958,16.958,0,0,0-4.281-1.258,9.522,9.522,0,0,0-1.824-.188,9.269,9.269,0,0,0-1.448.416c1.091.5,2.712.243,3.9.478a15.534,15.534,0,0,1,4.368,1.565,16.328,16.328,0,0,1,3.267,2.366,18.621,18.621,0,0,1,2.423,2.355,12.979,12.979,0,0,0-6.408-5.735" transform="translate(-187.476 -172.089)" fill="#779300"/>
            <path id="Trazado_989470" data-name="Trazado 989470" d="M245.687,254.619c-.673-.326-6.537-2.454-6.7-1.372.006-.037,6.365,1.869,7.089,2.249a12.57,12.57,0,0,1,2.566,1.785,13.39,13.39,0,0,1,1.245,1.286c.019.022.828.935.695.64a9.917,9.917,0,0,0-4.892-4.587" transform="translate(-195.475 -206.892)" fill="#779300"/>
            <path id="Trazado_989471" data-name="Trazado 989471" d="M256.718,296.269c-.507-.381-3.176-2.024-3.772-1.282-.279.347,1.1.657,1.4.77a8.982,8.982,0,0,1,2.128,1.092,9.332,9.332,0,0,1,1.784,1.784c.141.179,1.206,1.48,1.1,1.149a7.392,7.392,0,0,0-2.638-3.514" transform="translate(-206.864 -241.126)" fill="#779300"/>
            <g id="Grupo_1103872" data-name="Grupo 1103872" transform="translate(22.792 7.116)" opacity="0.15" style="mix-blend-mode: overlay;isolation: isolate">
              <g id="Grupo_1103871" data-name="Grupo 1103871">
                <g id="Grupo_1103870" data-name="Grupo 1103870" clip-path="url(#clip-path-3)">
                  <path id="Trazado_989472" data-name="Trazado 989472" d="M133.133,46.515A4.666,4.666,0,0,1,133,48.262a14.286,14.286,0,0,1-2.337,4.111,32,32,0,0,0-4.842,24.262A25.979,25.979,0,0,0,127,79.192a62,62,0,0,1,5.445-21.811c.361-.792.9-1.688,1.764-1.739.006,2.173-1.014,4.2-1.846,6.2a39.187,39.187,0,0,0-2.778,18.838,17.515,17.515,0,0,0,.573,3.178q.7.825,1.475,1.586c.081-7.11.522-14.392,3.652-20.747.484-.982,1.436-2.094,2.449-1.68.275,1.47-.378,2.934-.951,4.315-2.679,6.455-3.817,13.875-2.273,20.579q.844.636,1.725,1.226a41.431,41.431,0,0,1,1.705-17.506c.412-1.262,1.393-2.778,2.66-2.384.527,4.259-.581,8.524-1.363,12.743a28.405,28.405,0,0,0-.523,8.718q.8.483,1.617.952a36.3,36.3,0,0,1,1.335-12.977,1.332,1.332,0,0,1,.553-.88.93.93,0,0,1,1.185.625,2.723,2.723,0,0,1-.067,1.5c-.983,4.2-1.764,8.678-1.048,12.854l.971.554a31,31,0,0,1,.572-7.9c.176-.769.653-1.708,1.433-1.59.736.11.958,1.058.951,1.8-.023,2.486-.678,4.923-.875,7.4-.038.484-.056.976-.047,1.468l.22.13c.519.311,1.036.632,1.549.964a19.134,19.134,0,0,1,.817-3.985,28.94,28.94,0,0,1,4.138,8.079,13.474,13.474,0,0,1,1.927,2.8,86.2,86.2,0,0,0,3.629-10.075,11.774,11.774,0,0,0-6.255-8.071c-1.277-.618-2.974-1.586-2.515-2.928a14.011,14.011,0,0,1,9.682,7.436c.348-1.541.641-3.093.859-4.656a12.353,12.353,0,0,0-1.128-1.353,16.285,16.285,0,0,0-4.615-3.375,46.215,46.215,0,0,1-4.666-2.19,5.416,5.416,0,0,1-2.766-4.114c1.629-.791,3.536.213,4.992,1.29a37.39,37.39,0,0,1,7.959,8.015c.119.163.245.331.376.5a47.775,47.775,0,0,0,.3-7.42c-.005-.129-.013-.258-.02-.387a20.111,20.111,0,0,0-10.012-4.678,9.6,9.6,0,0,1-2.886-.746,2.612,2.612,0,0,1-1.535-2.369,27.056,27.056,0,0,1,14.318,6.186q-.133-1.431-.375-2.853a38.466,38.466,0,0,0-8.069-5.447c-2.522-1.27-5.255-2.311-7.229-4.331-.608-.623-1.15-1.585-.674-2.314.515-.789,1.716-.58,2.588-.222,5.175,2.123,9.262,6.082,12.992,10.328a34.658,34.658,0,0,0-2.987-8.266,22.449,22.449,0,0,0-10.828-6.441c-1.555-.385-3.5-.948-3.723-2.534A36.094,36.094,0,0,1,152.925,55.8a26.228,26.228,0,0,0-4.479-4.5c-2.7-.982-5.507-1.826-7.592-3.766a3.683,3.683,0,0,1-1.306-2.25,14.547,14.547,0,0,1-3.539-3.9c-.62-1.045-.649-1.59-1.641-2.293.8,2.459.044,5.176-1.234,7.428" transform="translate(-125.185 -39.087)" fill="#1e0202"/>
                </g>
              </g>
            </g>
            <path id="Trazado_989473" data-name="Trazado 989473" d="M191.933,93.3c-.743-2.594-1.887-5.095-2.814-7.633-.89-2.439-1.67-4.932-2.473-7.4C185,73.2,183.457,68.1,181.966,62.988c-1.47-5.043-2.837-10.117-4.171-15.2q-1.044-3.976-2.04-7.965c-.386-1.55-.672-3.226-1.135-4.815L174.6,35a1.116,1.116,0,0,0-1.389.48c.311,1.6.817,3.2,1.191,4.716q.985,3.992,2.029,7.968c1.369,5.191,2.85,10.349,4.371,15.5,1.511,5.111,3.115,10.191,4.9,15.215.912,2.571,1.912,5.095,2.9,7.635a53.041,53.041,0,0,0,2.985,6.933.187.187,0,0,0,.34-.143" transform="translate(-141.678 -28.553)" fill="#738e10"/>
            <g id="Grupo_1103875" data-name="Grupo 1103875" transform="translate(31.974 7.116)" opacity="0.2" style="mix-blend-mode: overlay;isolation: isolate">
              <g id="Grupo_1103874" data-name="Grupo 1103874">
                <g id="Grupo_1103873" data-name="Grupo 1103873" clip-path="url(#clip-path-4)">
                  <path id="Trazado_989474" data-name="Trazado 989474" d="M189.344,51.02c-4.149-3.132-9.426-5.17-12.079-9.64-.62-1.045-.649-1.59-1.641-2.293a7.345,7.345,0,0,1,.238,3.339c.46,1.519.95,2.882,1.164,3.653Q182.968,67.537,189.9,88.7q1.908,5.826,3.891,11.626A13.045,13.045,0,0,1,195.2,102.5c3.676-8.614,6.224-17.586,5.847-26.945s-4.228-18.9-11.7-24.54" transform="translate(-175.624 -39.087)" fill="#1e0202"/>
                </g>
              </g>
            </g>
            <g id="Grupo_1103878" data-name="Grupo 1103878" transform="translate(44.39 18.122)" opacity="0.15" style="mix-blend-mode: overlay;isolation: isolate">
              <g id="Grupo_1103877" data-name="Grupo 1103877">
                <g id="Grupo_1103876" data-name="Grupo 1103876" clip-path="url(#clip-path-5)">
                  <path id="Trazado_989475" data-name="Trazado 989475" d="M256.828,125.005c-.377-9.358-4.228-18.9-11.7-24.54-.424-.32-.861-.626-1.3-.927l.033.056c4.7,8.531,4.716,18.777,4.389,28.509a21.187,21.187,0,0,1-.88,6.374,14.412,14.412,0,0,0-.93,2.84,8.652,8.652,0,0,0,.506,3.488l2.342,8.107c.1.288.194.577.292.865a13.041,13.041,0,0,1,1.408,2.174c3.676-8.614,6.224-17.587,5.847-26.945" transform="translate(-243.821 -99.538)" fill="#1e0202"/>
                </g>
              </g>
            </g>
            <g id="Grupo_1103881" data-name="Grupo 1103881" transform="translate(24.319 22.072)" opacity="0.15" style="mix-blend-mode: overlay;isolation: isolate">
              <g id="Grupo_1103880" data-name="Grupo 1103880">
                <g id="Grupo_1103879" data-name="Grupo 1103879" clip-path="url(#clip-path-6)">
                  <path id="Trazado_989476" data-name="Trazado 989476" d="M149.812,156.149a23.712,23.712,0,0,1-15.159-15.619c-1.82-6.231-1.742-14.664,3.506-19.3-.156,12.32,2.085,26.219,11.653,34.917" transform="translate(-133.578 -121.232)" fill="#fff"/>
                </g>
              </g>
            </g>
            <path id="Trazado_989477" data-name="Trazado 989477" d="M47.667,20.544A49.234,49.234,0,0,0,41.754,8.5c-2.063-3.06-4.6-5.983-7.993-7.433C29.5-.759,24.628.031,20.362,1.412c-4.7,1.519-9.257,3.57-14.156,4.375-.291.048-.582.088-.873.124-.165,1.006-.277,2.016-.346,3.017-.083,1.2-.11,2.4-.085,3.606a52.847,52.847,0,0,0,8.6-1.881c5.4-1.614,10.958-4.887,16.764-3.3a19.827,19.827,0,0,1,9.449,5.256c2.755,2.816,5.3,6.98,8.057,9.8a3.092,3.092,0,0,0-.109-1.865" transform="translate(-4.002 0)" fill="#ae603c"/>
            <g id="Grupo_1103884" data-name="Grupo 1103884" transform="translate(0.891 3.138)" opacity="0.2" style="mix-blend-mode: overlay;isolation: isolate">
              <g id="Grupo_1103883" data-name="Grupo 1103883">
                <g id="Grupo_1103882" data-name="Grupo 1103882" clip-path="url(#clip-path-7)">
                  <path id="Trazado_989478" data-name="Trazado 989478" d="M38.72,23.061A17.5,17.5,0,0,0,33.9,18.594c-3.256-1.8-7.244-1.517-10.9-.817a55.282,55.282,0,0,0-10.252,3.017,37.5,37.5,0,0,1-7.027,2.479c-.253.047-.507.086-.761.119q-.1,1.616-.064,3.241a52.858,52.858,0,0,0,8.6-1.881c5.4-1.614,10.958-4.887,16.764-3.3a19.827,19.827,0,0,1,9.449,5.256c2.055,2.1,3.993,4.949,5.989,7.43a42.04,42.04,0,0,0-6.99-11.082" transform="translate(-4.895 -17.237)" fill="#1e0202"/>
                </g>
              </g>
            </g>
            <path id="Trazado_989479" data-name="Trazado 989479" d="M221.476,85.667c.727-1.444,2.538-1.72,4.181-1.37a4.492,4.492,0,0,1,.993.734,19.84,19.84,0,0,1,1.923,10.549,2.777,2.777,0,0,1-3.5.053,18.8,18.8,0,0,0-3.6-9.965" transform="translate(-181.154 -68.838)" fill="#ae603c"/>
            <g id="Grupo_1103887" data-name="Grupo 1103887" transform="translate(40.322 16.047)" opacity="0.3" style="mix-blend-mode: overlay;isolation: isolate">
              <g id="Grupo_1103886" data-name="Grupo 1103886">
                <g id="Grupo_1103885" data-name="Grupo 1103885" clip-path="url(#clip-path-8)">
                  <path id="Trazado_989480" data-name="Trazado 989480" d="M221.476,88.924a2.458,2.458,0,0,1,.617-.782c.153.229.3.46.443.695a25.12,25.12,0,0,1,3.608,10.554,3.123,3.123,0,0,1-1.072-.5,18.8,18.8,0,0,0-3.6-9.965" transform="translate(-221.476 -88.142)" fill="#1e0202"/>
                </g>
              </g>
            </g>
            <g id="Grupo_1103890" data-name="Grupo 1103890" transform="translate(42.929 15.323)" opacity="0.3" style="mix-blend-mode: overlay;isolation: isolate">
              <g id="Grupo_1103889" data-name="Grupo 1103889">
                <g id="Grupo_1103888" data-name="Grupo 1103888" clip-path="url(#clip-path-9)">
                  <path id="Trazado_989481" data-name="Trazado 989481" d="M235.792,84.174a5.877,5.877,0,0,1,1.579.126,4.464,4.464,0,0,1,.989.733,19.84,19.84,0,0,1,1.923,10.549,2.256,2.256,0,0,1-.4.3,5.809,5.809,0,0,0-.006-1.418,21.448,21.448,0,0,0-2.8-8.593,10.318,10.318,0,0,0-1.284-1.7" transform="translate(-235.792 -84.164)" fill="#1e0202"/>
                </g>
              </g>
            </g>
            <path id="Trazado_989482" data-name="Trazado 989482" d="M226.442,185.447a57.175,57.175,0,0,0,2.13-10.479,35.351,35.351,0,0,0-3.3-19,55.892,55.892,0,0,0-4.806-8.43,51.725,51.725,0,0,0-4.355-5.85c-.988-1.071-3.471-2.048-4.245-.162a2.862,2.862,0,0,0-4.576.281,3.623,3.623,0,0,0-2.644-.983A2.422,2.422,0,0,0,202.5,142.5a3.432,3.432,0,0,0-3.958.958c-1.468,1.6-1.726,4.034-2.052,6.088a53.329,53.329,0,0,0,11.671,41.7c3.208,3.758,10.221,9.3,12.143,8.482.912-.386,5.124-11.186,6.133-14.284" transform="translate(-160.236 -114.885)" fill="#ddb32c"/>
            <path id="Trazado_989483" data-name="Trazado 989483" d="M204.439,186.468q-.409-.832-.778-1.685c.592.7,1.166,1.422,1.712,2.165,1,1.366,1.7,2.933,2.709,4.279a.081.081,0,0,0,.048.032c.033.1.068.2.1.306.393.457.84.939,1.327,1.433-.466-1.209-.9-2.43-1.272-3.685-.222-.76-.43-1.523-.632-2.288a51.331,51.331,0,0,1,4.878,5.709.114.114,0,0,0,.129.038c.083.237.164.474.248.71.419,1.176.825,2.358,1.237,3.541.339.258.677.508,1.01.744-.573-1.588-1.162-3.169-1.726-4.753-1.137-3.2-1.982-6.626-4.3-9.2-1.051-1.166-2.108-2.318-3.135-3.492-.01-.042-.02-.085-.031-.127A71.032,71.032,0,0,0,203.186,171l-.213-.536c.989,1.28,2.048,2.5,3.054,3.771.3.38.584.764.856,1.151.151.409.3.824.428,1.25a.122.122,0,0,0,.239-.031c0-.078,0-.156,0-.233.435.683.836,1.381,1.207,2.1,1.885,5.011,4.324,9.853,6.5,14.717.932,2.082,1.833,4.194,2.739,6.308a6.7,6.7,0,0,0,1.266.482l-.72-1.538a36.038,36.038,0,0,1,.571-6.714c.031-.2.053-.4.078-.593.323,2.97.586,5.946.767,8.928a1.1,1.1,0,0,0,.369-.075,6.693,6.693,0,0,0,1.3-2.172c.028-.087.053-.176.082-.263q.5-1.523,1-3.047c.082-.048.163-.1.244-.146.01.017.018.034.028.05a.179.179,0,0,0,.117.079c.234-.561.471-1.137.7-1.716q-.314.223-.635.437c0-.025-.008-.051-.013-.076.147-.458.289-.919.433-1.378.472-1.131,1.036-2.234,1.5-3.362a6.926,6.926,0,0,0,.768-.942c.255-.7.466-1.305.61-1.747.075-.231.142-.465.212-.7-.223.3-.439.6-.654.893-.083.113-.17.225-.257.339.038-.182.068-.366.093-.551a48.074,48.074,0,0,1,1.964-5.436c.245-1.307.448-2.623.628-3.94q-.455,1.153-.894,2.316c-.527,1.4-1.048,2.8-1.542,4.216-.066.188-.137.376-.209.565a49.555,49.555,0,0,0,.892-6.742,33.484,33.484,0,0,0,1.669-7.975c.063-.55.109-1.1.148-1.643q-.226-1.622-.6-3.221c-.078,1.432-.186,2.861-.334,4.276-.176,1.687-.492,3.343-.821,5,0-.168,0-.336-.01-.5-.055-1.336-.172-2.668-.34-3.993-.049-2.981-.417-5.946-.742-8.908-.13-1.188-.262-2.377-.411-3.562q-.441-.965-.924-1.91c.15,2.039.372,4.074.578,6.11q.064.637.127,1.275-.512-1.951-1.145-3.866c-.276-1.581-.746-3.15-1.129-4.685-.265-1.06-.568-2.1-.88-3.144q-.421-.671-.86-1.331c.188,1.045.375,2.089.586,3.13-1.039-2.451-2.186-4.857-3.409-7.22a29.087,29.087,0,0,0-2.061-2.55,3.253,3.253,0,0,0-.309-.292l.192.354c1.529,2.8,2.969,5.646,4.25,8.565q.722,1.643,1.379,3.32a30.658,30.658,0,0,0-2.967-4.572,30.11,30.11,0,0,0-4.788-4.861c-.814-.661-1.657-1.288-2.433-1.993-.583-.529-1.083-1.147-1.649-1.69a2.735,2.735,0,0,0-.279,0,2.763,2.763,0,0,0-.479.077q.186.776.4,1.548a15.875,15.875,0,0,0-.32,8.443.158.158,0,0,0,.31-.04,38.358,38.358,0,0,1,.216-4.854c.071-.659.168-1.315.24-1.972.212.734.426,1.467.631,2.2.248,4.083-.7,8.312-.751,12.363-.024,1.762.012,3.526.123,5.285-1.66-4.6-4.385-8.921-5.013-13.814-.072-1.4-.123-2.8-.136-4.194a13.388,13.388,0,0,0,4.781,7.2c.117.081.26-.078.19-.192-1.008-1.635-2.258-3.084-3.162-4.79a30.625,30.625,0,0,1-1.8-4.386q.026-1.284.106-2.57c-.065,0-.131,0-.2,0a2.538,2.538,0,0,0-.539.113c-.935,4.673-.118,9.852.234,14.468a87.418,87.418,0,0,0,3.166,19.243c.015.05.032.1.048.149-.079-.107-.156-.214-.236-.32-.828-3.505-3.883-6.447-5.7-9.407a27.764,27.764,0,0,1-3.1-7.173,53.385,53.385,0,0,1-.9-5.63q.238-1.661.632-3.266a26.712,26.712,0,0,0,1.765,8.664,57.912,57.912,0,0,0,2.76,5.88c1.049,2.07,1.907,4.216,2.9,6.309.049.1.235.056.221-.06-.482-4.02-3.175-7.574-4.7-11.252a28.254,28.254,0,0,1-1.809-6.345,47.217,47.217,0,0,1-.348-5.987q.4-1.267.866-2.526a18.548,18.548,0,0,0,.228,2.2c.211,1.623.5,3.238.838,4.839.714,3.352,1.5,7.132,3.29,10.089a.13.13,0,0,0,.236-.1c-.6-3.127-1.864-6.132-2.571-9.252a44.083,44.083,0,0,1-1.3-9.191,3.75,3.75,0,0,0-.96.338,32.334,32.334,0,0,0-3.134,13.454c0,.024,0,.048,0,.072-.05-.179-.1-.356-.137-.529-.136-.59-.267-1.179-.382-1.77q-.121,1.808-.109,3.633a4.069,4.069,0,0,0,.657,1.421,48.466,48.466,0,0,0,.575,5.489,14.094,14.094,0,0,0,.786,4.073c.073.328.152.654.229.981-.389-.558-.815-1.1-1.172-1.673l-.005-.009q.222,1.1.49,2.187a6.583,6.583,0,0,0,1.032.918c.09.36.179.721.272,1.079.45,1.726.9,3.468,1.4,5.2-.319-.448-.627-.9-.931-1.364q.651,1.778,1.424,3.5c.078.093.155.186.233.278.082.259.168.516.253.774a51.352,51.352,0,0,0,3.275,5.888m3.126-20.332c1.646,3.365,3.5,6.549,5.015,9.962a29.777,29.777,0,0,0,.083,3.85c-.935-1.671-2-3.283-2.907-4.993a36.934,36.934,0,0,1-3.415-9.315q-.37-2.423-.623-4.864a20.42,20.42,0,0,0,1.848,5.362m5.908,11.4a.186.186,0,0,0,.023-.122c-.007-.055-.018-.108-.026-.163-.009-.786-.007-1.573.029-2.36.12-2.6.388-5.195.561-7.793.118-1.771.2-3.548.178-5.324q.383,1.751.749,3.507c-.052,3.207.159,6.345-.447,9.567-.427,2.274-1.083,4.733-.868,7.08-.051-.111-.1-.223-.153-.333.022-1.352-.025-2.7-.046-4.059m-3.35-11.06q.181,1.666.465,3.319c-2.351-4.221-5.17-8.287-4.9-13.36,0-.078-.111-.075-.119,0a15.162,15.162,0,0,0-.091,1.868q-.089-1-.168-1.994c-.1-1.3-.2-2.591-.289-3.881a30.375,30.375,0,0,0,1.994,6.244c1.1,2.588,2.232,5.147,3.108,7.8m1.314-16.706q.493,1.988.967,3.981a9.483,9.483,0,0,0,.7,3.208,58.246,58.246,0,0,1-.032,10.965c-.15,2.068-.32,4.135-.42,6.206a26.523,26.523,0,0,0-1.428-3.153c-.042-.522-.085-1.043-.124-1.565a.082.082,0,0,0,.049-.08c-.032-.43-.081-.856-.145-1.277a105.67,105.67,0,0,1-.276-10.725c.083-2.512.362-5,.533-7.507.012-.172.021-.342.03-.512.047.153.091.307.142.46m13.484,15.052c-1.371-3.291-3.883-6.273-6.01-8.944-1.64-2.06-3.319-4.1-4.805-6.271-1.392-2.037-2.275-4.332-3.6-6.385a.078.078,0,0,0-.132-.007c-.076-.3-.148-.59-.226-.885a21.027,21.027,0,0,0,2.376,2.025,33.946,33.946,0,0,1,4.836,4.558c3.179,3.767,5.047,8.18,6.56,12.822.038.115.239.1.223-.029s-.037-.267-.055-.4q.468,1.746.828,3.518m.968,9.735c-1.106-4.393-3.489-8.367-6.033-12.114-1.691-2.491-3.448-4.939-4.989-7.53a49.324,49.324,0,0,1-3.346-7.3q-.148-.545-.295-1.09l-.024-.091a8.593,8.593,0,0,0-.215-1,27.078,27.078,0,0,0,2.328,4.028c1.275,1.951,2.707,3.794,4.138,5.631,1.613,2.07,3.253,4.128,4.685,6.33A66.041,66.041,0,0,1,225.4,167.5c.094.625.177,1.251.246,1.88a42.206,42.206,0,0,1,.247,5.175m-.8.154a79.553,79.553,0,0,0-5.819-9.544c-1.321-1.847-2.734-3.634-3.924-5.571a18.629,18.629,0,0,1-1.463-2.988q-.3-1.179-.6-2.357c-.063-.246-.13-.49-.194-.736,1.489,2.765,3.4,5.378,5.021,7.8,2.82,4.218,5.691,8.493,6.976,13.4m-.206,8.954a53.861,53.861,0,0,0-6.825-19.019l.1.137a72.838,72.838,0,0,1,7.522,12.85.3.3,0,0,0,.06.081,51.326,51.326,0,0,1-.858,5.95m-9.146-21.109a60.211,60.211,0,0,1,5.216,9.821,55.391,55.391,0,0,1,3.351,12.365,98.151,98.151,0,0,1-8.567-22.186m3.09,17.7c-.023-.066-.042-.133-.064-.2q-.409-2.621-.879-5.232a31.367,31.367,0,0,0-.759-4.246.056.056,0,0,0-.055-.041c-.007-.036-.014-.072-.021-.108-.6-2.977-1.264-5.94-1.964-8.895l.183.282a82.76,82.76,0,0,0,9.034,24.427c-.16.646-.328,1.291-.509,1.936q-.261.929-.542,1.851-.29.665-.54,1.34c-.626-2.131-1.558-4.253-2.236-6.265q-.818-2.427-1.648-4.85m.551,4.038.035.106q.9,2.735,1.816,5.467c.33.994.617,2.015,1,2.992-.111.41-.2.824-.276,1.242a.452.452,0,0,0,0,.056q-.517,1.592-1.036,3.182-.094.288-.194.578c-.276-4.557-.736-9.1-1.345-13.624m-3.724,7.875a.191.191,0,0,0,.244-.076c.16-.315.3-.641.439-.973.027.066.055.13.081.2.052.134.275.131.269-.035a6.208,6.208,0,0,0-.095-.834,33.208,33.208,0,0,0,1.4-8.546q.48,3.2.874,6.416c-.182,1.555-.415,3.1-.7,4.637a18.467,18.467,0,0,0-.384,3.866c-.44-.947-.877-1.894-1.3-2.842q-.407-.9-.824-1.809m-4.594-10.122c1.5,2.736,3.465,5.2,4.81,8.013a18.236,18.236,0,0,0-.326,1.871c-1.509-3.275-3.077-6.553-4.485-9.884m-3.241-9.176q-.14-.525-.27-1.052c.3.811.641,1.617,1.031,2.42,1.312,2.7,3,5.193,4.459,7.815.053.2.106.4.171.59a.144.144,0,0,0,.2.088c.4.75.776,1.512,1.114,2.295.051.117.224.03.2-.083-.078-.341-.173-.673-.275-1a.176.176,0,0,0,.017-.087c-.233-3.617.544-6.9,1.067-10.451a27.5,27.5,0,0,0,.289-4q.774,3.951,1.439,7.921a4.071,4.071,0,0,0,.1.655c0,1.13-.024,2.26-.1,3.387a47.451,47.451,0,0,1-.777,5.985c-.1.512-.218,1.02-.337,1.528-.91-2.254-2.745-4.29-3.9-6.3a48.173,48.173,0,0,1-2.559-5.147c-.639-1.5-1.1-3.115-1.859-4.562m-.485,12.928c-.334-1.315-.652-2.635-.971-3.954.255.278.511.556.77.829a16.532,16.532,0,0,1,3.677,5.016c.541,1.3,1,2.639,1.465,3.975a19.669,19.669,0,0,0-3-3.75l-1.938-2.116m-7.518-21.749c-.995-2.062-1.466-4.4-2.483-6.429-.008-.5-.009-1,0-1.494.121.563.255,1.114.387,1.639a28.781,28.781,0,0,0,2.309,6.122,51.467,51.467,0,0,0,3.972,6.056,24.42,24.42,0,0,1,1.687,2.76c-.6-.711-1.193-1.406-1.737-2.093a35.153,35.153,0,0,1-4.137-6.561M204.863,179a41.06,41.06,0,0,1-3.344-4.536,29.477,29.477,0,0,1-2.534-5.01,60.857,60.857,0,0,1-1.536-9.327,32.629,32.629,0,0,0,1.265,3.164c.142.326.291.648.444.969,1.126,2.725,2.716,5.206,3.716,8.017.783,2.2,1.411,4.457,1.991,6.722m1.4,5.63q-.89-.972-1.78-1.944c-1.008-1.1-1.947-2.214-2.838-3.346-.66-2.1-1.231-4.227-1.776-6.341.146.268.294.532.442.79a43.594,43.594,0,0,0,4.96,6.84q.078.313.156.627c.278,1.125.553,2.251.835,3.375m-3.222-1.658-.232-.266q-.237-.624-.46-1.255l.4.44c1.237,1.371,2.548,2.7,3.851,4.041q.356,1.373.746,2.737a30.217,30.217,0,0,0-4.3-5.7" transform="translate(-160.251 -115.144)" fill="#efc348"/>
            <path id="Trazado_989484" data-name="Trazado 989484" d="M259.422,179.015c-1.39-6.243-2.555-12.536-3.675-18.832-.569-3.2-1.123-6.4-1.618-9.613-.207-1.343-.411-2.689-.583-4.038-.089-.7-.133-1.4-.167-2.106a4.237,4.237,0,0,1,.925.626c.042-.064.091-.124.138-.185.137.5.267.995.372,1.5.31,1.48.587,2.968.867,4.453.6,3.189,1.181,6.381,1.777,9.571,1.154,6.185,2.377,12.358,3.488,18.552,1.422,7.922,2.951,15.822,4.45,23.729-.3-.127-.613-.283-.944-.463-1.67-7.733-3.311-15.472-5.03-23.195" transform="translate(-207.248 -118.132)" fill="#c99a14"/>
            <path id="Trazado_989485" data-name="Trazado 989485" d="M292.634,173.776a82.721,82.721,0,0,0-3.253-17.56,126.794,126.794,0,0,0-5.519-14.37,1.577,1.577,0,0,1,.934-.866c5.651,9.385,8.31,20.716,8.926,31.559.345,6.084-.088,12.238-.189,18.327-.042,2.49-.1,4.981-.145,7.473a13.387,13.387,0,0,1-.785,1.436c.043-2.644.078-5.287.125-7.929.106-6.014.377-12.066-.094-18.07" transform="translate(-232.182 -115.313)" fill="#c99a14"/>
            <path id="Trazado_989486" data-name="Trazado 989486" d="M230.982,182.929c-1.705-6.415-2.947-12.942-4.076-19.48-.823-4.77-1.742-10.043-1.129-14.973a2.585,2.585,0,0,1,1,.287,1.989,1.989,0,0,1,.3-.647,64.009,64.009,0,0,0,.022,7.07c.225,3.05.652,6.083,1.135,9.1a182.962,182.962,0,0,0,4.056,19.292,143.007,143.007,0,0,0,7,19.358c.156.359.31.718.465,1.077-.535-.368-1.083-.771-1.634-1.2l-.5-1.135a125.68,125.68,0,0,1-6.642-18.752" transform="translate(-184.509 -121.15)" fill="#c99a14"/>
            <g id="Grupo_1103893" data-name="Grupo 1103893" transform="translate(39.004 25.633)" opacity="0.3" style="mix-blend-mode: overlay;isolation: isolate">
              <g id="Grupo_1103892" data-name="Grupo 1103892">
                <g id="Grupo_1103891" data-name="Grupo 1103891" clip-path="url(#clip-path-10)">
                  <path id="Trazado_989487" data-name="Trazado 989487" d="M214.63,155.777a46.68,46.68,0,0,1-.295-8.857,21.366,21.366,0,0,1,.629-4.175,2.985,2.985,0,0,1,2.538.029,2.137,2.137,0,0,1,.754-1.116c.041,1.661-.257,3.368-.331,5a54.239,54.239,0,0,0,.184,7.137,120.423,120.423,0,0,0,2.479,15.335,72.38,72.38,0,0,0,5.018,15.5,140.7,140.7,0,0,0,7.35,13.325,103.974,103.974,0,0,1-3.508-9.938q-2.451-8.46-4.486-17.037c-1.313-5.534-2.65-11.116-3.541-16.737a70.09,70.09,0,0,1-.906-8.21,25.683,25.683,0,0,1,.1-4.848,3.986,3.986,0,0,1,1.669.9,2.9,2.9,0,0,1,1.3-1.068c.2,1.775.085,3.7.215,5.337.219,2.757.6,5.483,1.045,8.211q1.34,8.184,3.052,16.3c1.157,5.54,2.438,11.051,3.922,16.513.8,2.937,1.519,5.89,2.25,8.84.169-1.617.32-3.234.409-4.855a101.336,101.336,0,0,0-4.215-35.865c-.825-2.8-1.785-5.565-2.861-8.275a53.383,53.383,0,0,1-2.591-6.427,2.915,2.915,0,0,1,2.05,1.006,1.6,1.6,0,0,1,1.064-1,31.158,31.158,0,0,1,2.356,4.53,70.559,70.559,0,0,1,3.237,8.636,83,83,0,0,1,3.166,18.611,139.7,139.7,0,0,1-.1,18.485c-.18,2.68-.353,5.415-.67,8.129a2.246,2.246,0,0,1-.608.811c-.908.384-2.952-.649-5.194-2.242a98.561,98.561,0,0,1-6.6-10.1c-5.443-9.661-7.6-20.98-8.882-31.888" transform="translate(-214.237 -140.793)" fill="#1e0202"/>
                </g>
              </g>
            </g>
            <g id="Grupo_1103896" data-name="Grupo 1103896" transform="translate(35.666 25.572)" opacity="0.3" style="mix-blend-mode: overlay;isolation: isolate">
              <g id="Grupo_1103895" data-name="Grupo 1103895">
                <g id="Grupo_1103894" data-name="Grupo 1103894" clip-path="url(#clip-path-11)">
                  <path id="Trazado_989488" data-name="Trazado 989488" d="M208.165,191.249c3.207,3.757,10.221,9.3,12.143,8.482.912-.386,5.124-11.186,6.133-14.284a57.177,57.177,0,0,0,2.13-10.48,35.347,35.347,0,0,0-3.3-19,55.853,55.853,0,0,0-4.806-8.43,51.684,51.684,0,0,0-4.355-5.85c-.988-1.071-3.471-2.048-4.246-.162a2.862,2.862,0,0,0-4.576.281,3.623,3.623,0,0,0-2.644-.983A2.422,2.422,0,0,0,202.5,142.5a3.433,3.433,0,0,0-3.958.958c-1.468,1.6-1.726,4.034-2.053,6.089a53.33,53.33,0,0,0,11.672,41.7m1.043-3.793a14.544,14.544,0,0,1-3.767-4.45c-3.743-6.08-6.493-13.13-5.745-20.231.182-1.732.824-3.734,2.488-4.244a2.9,2.9,0,0,0,1.1-.406c.528-.451.382-1.279.453-1.97a2.816,2.816,0,0,1,2.533-2.44,6.843,6.843,0,0,0,2.152-.084c1.8-.73.84-3.779,2.232-5.133a2.592,2.592,0,0,1,3.048-.138,7.59,7.59,0,0,1,2.214,2.383,1.876,1.876,0,0,0,.368-2.572c.266-.31.76-.009,1.036.292a40.748,40.748,0,0,1,10.08,32.172,23.784,23.784,0,0,1-5.722,5.995c-3.645,2.529-8.838,3.379-12.465.825" transform="translate(-195.902 -140.457)" fill="#1e0202"/>
                </g>
              </g>
            </g>
            <g id="Grupo_1103899" data-name="Grupo 1103899" transform="translate(51.794 37.736)" opacity="0.4" style="mix-blend-mode: overlay;isolation: isolate">
              <g id="Grupo_1103898" data-name="Grupo 1103898">
                <g id="Grupo_1103897" data-name="Grupo 1103897" clip-path="url(#clip-path-12)">
                  <path id="Trazado_989489" data-name="Trazado 989489" d="M284.562,212.984a182.849,182.849,0,0,0,4.954,19.43,63.785,63.785,0,0,0-.756-14.769,65.277,65.277,0,0,0-1.506-6.72c-.386-1.38-.877-3.209-2.451-3.655.334,1.909-.582,3.8-.241,5.713" transform="translate(-284.485 -207.271)" fill="#fff"/>
                </g>
              </g>
            </g>
            <path id="Trazado_989490" data-name="Trazado 989490" d="M121.945,22.467a4.668,4.668,0,0,0-2.851,1.225,71.98,71.98,0,0,0-1.069,11.975c1.07.9,2.557,1.363,3.664.5,1.164-4.313,2.04-8.405,2.85-12.722a5.621,5.621,0,0,0-2.594-.982" transform="translate(-96.536 -18.376)" fill="#ae603c"/>
            <g id="Grupo_1103902" data-name="Grupo 1103902" transform="translate(21.49 4.249)" opacity="0.3" style="mix-blend-mode: overlay;isolation: isolate">
              <g id="Grupo_1103901" data-name="Grupo 1103901">
                <g id="Grupo_1103900" data-name="Grupo 1103900" clip-path="url(#clip-path-13)">
                  <path id="Trazado_989491" data-name="Trazado 989491" d="M122.849,23.338,121.41,32c-.035.208-.09.446-.28.539a.677.677,0,0,1-.471-.012l-1.451-.394s1.176-7.028,1.264-7.683c.044-.328.094-.658.14-.989a6.71,6.71,0,0,0-1.509.939,73.212,73.212,0,0,0-1.068,11.547q1.991-.065,3.975-.257c1.01-3.88,1.8-7.615,2.537-11.533a8.448,8.448,0,0,0-1.7-.824" transform="translate(-118.036 -23.338)" fill="#1e0202"/>
                </g>
              </g>
            </g>
            <path id="Trazado_989492" data-name="Trazado 989492" d="M34.492,91.887a49.176,49.176,0,0,0,.883-12.118,56.169,56.169,0,0,0-1.036-8.829A39.534,39.534,0,0,0,32.4,64.748c-.592-1.521-1.035-3.693-2.534-4.593a2.844,2.844,0,0,0-2.488-.233,2.25,2.25,0,0,0-.675.447,2.2,2.2,0,0,0-1.367-1.133,1.761,1.761,0,0,0-1.859.478,2.087,2.087,0,0,0-1.226-.706,2.044,2.044,0,0,0-1.64.447A2.649,2.649,0,0,0,17.4,57.894c-1.6.437-2.785,1.733-3.894,2.889a23.39,23.39,0,0,0-3.317,4.306C4.075,75.39-2.417,87.415.9,99.627c1.557,5.736,4.977,10.664,6.671,16.292a12.768,12.768,0,0,1,.33,6.3,1.646,1.646,0,0,0,1.36,2c4.952.6,10.621-6.714,13.1-9.72,1.112-1.35,2.212-2.755,3.273-4.207,4.051-5.546,7.525-11.79,8.865-18.41" transform="translate(0 -47.265)" fill="#909917"/>
            <path id="Trazado_989493" data-name="Trazado 989493" d="M35.173,93.494a47.586,47.586,0,0,0,.857-6.741,13.151,13.151,0,0,1-.308-2.315c-.033-1.468.146-2.932.259-4.4a53.417,53.417,0,0,0-.921-7.293q-.182-.527-.38-1.049c.067.064.129.131.194.2q-.187-.8-.417-1.58c-.151-.119-.306-.235-.463-.35-.315-.775-.631-1.546-.922-2.318a24.9,24.9,0,0,0-1.535-3.567c-.532-.938-1.431-1.76-2.026-2.7a2.85,2.85,0,0,0-.707-.03c.268,1.333,1.621,2.487,2.211,3.658.172.342.333.691.487,1.043a17.2,17.2,0,0,1,.009,2.252C29.4,66.944,27.356,65.5,26.6,63.046a.055.055,0,0,0-.1,0c-.592,3.037,2.837,4.7,4.916,6.076l.023.016a13.722,13.722,0,0,1-.8,3.264,8.448,8.448,0,0,0-.452,1.489c-.685-.978-1.592-1.769-2.3-2.718-.2-.626-.421-1.26-.645-1.914a35.658,35.658,0,0,1-1.688-8.5,1.692,1.692,0,0,0-.663.087,35.015,35.015,0,0,0,.247,4.137c-.556,1.095-1.095,2.184-1.7,3.262-.09.161-.179.326-.265.492a6.343,6.343,0,0,0-1.49-3.729,13.393,13.393,0,0,0,1.481-4.34,2.051,2.051,0,0,0-.221-.06c-.042-.007-.082-.01-.124-.014a16.777,16.777,0,0,1-1.763,3.9L21,64.464a.063.063,0,0,0-.093.055c.008.055.021.109.031.163-.358.606-.727,1.2-1.08,1.773a32.353,32.353,0,0,0-1.869,3.438c-1.335,1.159-2.819,2.181-4.064,3.433a26.446,26.446,0,0,0-3.935,5.1,23.326,23.326,0,0,0-3.433,9.8A13.447,13.447,0,0,0,3.824,91.41,25.845,25.845,0,0,1,4.307,88a17.8,17.8,0,0,1,2.279-5.349c-.011.3-.015.593-.011.889a.171.171,0,0,0,.336.039c.365-1.019.685-2.049.986-3.085.155-.256.31-.513.464-.774,1.384-2.355,1.858-4.94,2.806-7.467,1.068-2.847,3.111-5.037,5.2-7.176a25.248,25.248,0,0,0,4.058-5.15,2.594,2.594,0,0,0-.268-.181,55.791,55.791,0,0,1-4.281,4.478,31.54,31.54,0,0,0-4.389,5.116c1.229-2.849,2.641-5.681,4.15-8.4-.514.459-.993.963-1.455,1.445-.064.067-.126.134-.189.2a44.252,44.252,0,0,0-4.126,7.852,45.735,45.735,0,0,0-3.03,9.7c-.567.908-1.159,1.8-1.69,2.73.407-1.933.864-3.856,1.433-5.747A58.391,58.391,0,0,1,9.24,70.163c.326-.732.618-1.449.863-2.175-1.428,2.436-2.853,4.961-4.148,7.558-.218.632-.428,1.268-.619,1.911A68.979,68.979,0,0,0,3.73,84.242a38.955,38.955,0,0,0-.7,4.561,32.876,32.876,0,0,0-.525,5.084c-.224-.9-.428-1.8-.573-2.706A26.594,26.594,0,0,1,1.6,87.035a33.9,33.9,0,0,0-.764,4.481A31.449,31.449,0,0,0,2.55,98.379c.027.645.06,1.283.1,1.911a23.622,23.622,0,0,0,.361,3.025,10.351,10.351,0,0,1-1.5-2.38c.026.1.047.2.074.3a31.15,31.15,0,0,0,.987,2.985c.3.338.606.667.912,1a14.476,14.476,0,0,0,.775,2,62.427,62.427,0,0,1,3.313,6.76,14.172,14.172,0,0,0-1.507-2.014,42.909,42.909,0,0,1,2.191,5.566,12.768,12.768,0,0,1,.33,6.3,1.7,1.7,0,0,0,.644,1.717,22.556,22.556,0,0,0,.408-6.8,22.135,22.135,0,0,0-1.615-6.611A34.809,34.809,0,0,0,6.17,108.6a.179.179,0,0,0,.031-.1,5.1,5.1,0,0,0-1.775-3.7,16.488,16.488,0,0,1-.6-3.04.211.211,0,0,0,.232-.2c.141-1.775-.271-3.438.449-5.16s2.187-2.94,3.405-4.3a21.633,21.633,0,0,0,2.515-3.458,14.076,14.076,0,0,0-.151,6.645,16.112,16.112,0,0,0-.483,2.942c-1.2,2.031-3.058,4.742-3.471,7.238a5.338,5.338,0,0,1-.269-2.929,13.521,13.521,0,0,1,2.062-4.254c.991-1.614,2.6-4.138,1.534-6.047a.106.106,0,0,0-.191.027A22.65,22.65,0,0,1,7.845,97.1a32.347,32.347,0,0,0-2.333,4.227c-.653,1.7-.9,4.319.743,5.493a4.025,4.025,0,0,0,1.444,2.8c.083.072.221-.021.157-.123-2.748-4.422,2.482-7.84,2.672-12.064a.109.109,0,0,0-.021-.062c.029-.079.058-.159.085-.238.156.9.306,1.82.4,2.758a11.887,11.887,0,0,1-.126,3.457,17.054,17.054,0,0,0-.617,3.608c.05,1.968,1.182,3.64,1.9,5.407,1.868,4.6-.628,9.034-2.12,13.471a5.691,5.691,0,0,0,2.266-.257,28.767,28.767,0,0,0,3.766-5.527c1.166-2.354,1.226-5.074,2.409-7.4.138-.272.294-.534.458-.791a31.331,31.331,0,0,0-.977,3.168,11.741,11.741,0,0,0-.357,6.224.215.215,0,0,0,.411-.006c.393-2.084.461-4.185.985-6.254.5-1.981,1.329-3.863,1.65-5.88a15.141,15.141,0,0,0,.981-2.947c.141-.592.26-1.191.376-1.793-.344,3.614.066,7.042-1.147,10.556a.164.164,0,0,0,.273.155c2.043-2.3,1.7-5.63,1.753-8.494a23.922,23.922,0,0,1,.726-5.578c.461-1.77,1.4-3.4,1.816-5.168l.064-.093a38.015,38.015,0,0,0-.024,4.539c.035,1.946-1.024,4.484-.151,6.3.084.175.323.1.376-.054.071-.207.135-.422.2-.641,1.684-1.838,3.994-3.057,5.772-4.792a6.886,6.886,0,0,0,1.512-2.238,8.28,8.28,0,0,1-.994,2.5c-.687,1.028-1.881,1.58-2.632,2.561a10.016,10.016,0,0,0-1.41,2.826,6.98,6.98,0,0,1-3.006,2.752c-1.19.587-2.226,1.181-2.24,2.613a.047.047,0,0,0,.087.022c.742-1.365,2.265-1.826,3.589-2.558-.985,1.048-1.914,2.159-2.9,3.185-1.639,1.7-3.377,3.3-4.969,5.039-.066.072.02.2.109.139a32.865,32.865,0,0,0,5.493-4.552c.554-.548,1.119-1.107,1.669-1.682-1.568,2.313-3.5,4.43-5.255,6.588a52.365,52.365,0,0,1-3.965,4.613,52.3,52.3,0,0,0,6.3-6.807c1.112-1.351,2.212-2.755,3.273-4.207.964-1.319,1.893-2.679,2.77-4.073.125-.338.248-.681.37-1.033a6.819,6.819,0,0,1,1.95-3,39.4,39.4,0,0,0,3.776-10.3M32.615,69.022l-.392-.253a9.189,9.189,0,0,0-.149-1.28q.283.761.542,1.534M21.222,65.878l.033-.063a21.659,21.659,0,0,1,.781,2.174,20.333,20.333,0,0,1,.421,4.449.164.164,0,0,0,.32.038c.059-.16.111-.331.159-.507a.327.327,0,0,0,.218-.238,20.978,20.978,0,0,1,1.676-4.1c.184-.352.362-.693.515-1.036.022.144.043.289.066.433.075.46.175.917.283,1.372a12.236,12.236,0,0,1-.943,2.591c-.6,1.053-1.387,1.984-2.052,2.994-.217.33-.422.67-.614,1.017a14.651,14.651,0,0,0-.021-1.643c-.1-1.5-.466-4.479-1.791-5.606.3-.624.608-1.248.947-1.876m-1.288,2.595c.178.453.445.883.622,1.364a12.343,12.343,0,0,1,.733,3.538c.134,2.288-.56,4.264-1.123,6.435-.046.176.207.35.332.188.081-.105.157-.214.231-.324a7.418,7.418,0,0,0,.058,1.023.2.2,0,0,0,.381.045,30.965,30.965,0,0,1,1.32-4.476,17.842,17.842,0,0,1,2.157-3.408,14.705,14.705,0,0,0,1.579-2.44,24.78,24.78,0,0,1,.831,3.755,24,24,0,0,1-.554,5.91,12.309,12.309,0,0,1-1.117,3.51,18.972,18.972,0,0,1-3.631,3.644,11.824,11.824,0,0,0-3.492,5.124c.135-.876.253-1.754.385-2.625.318-2.11.735-4.223.949-6.346a15.082,15.082,0,0,0-.768-5.665,9.64,9.64,0,0,1-.4-3.22c.084-1.154.424-2.22.442-3.371.315-.9.669-1.785,1.064-2.661M23,88.57c-.883.623-1.83,1.152-2.675,1.829-.085.068-.169.139-.253.21a9.965,9.965,0,0,1,.715-1.03A35.261,35.261,0,0,1,24.333,86.2a9.867,9.867,0,0,0,2.019-2.594c.011.536.028,1.072.044,1.608C25.177,86.269,24.345,87.622,23,88.57m3.415-2.622c.028,1.073.038,2.147-.037,3.218-.009.137-.023.27-.038.4a9.59,9.59,0,0,1-3.169,2.691c-1.55.8-3.2,1.07-4.657,1.918.055-.171.109-.342.167-.511a10.03,10.03,0,0,1,.758-1.071,13.876,13.876,0,0,1,3.174-2.639,8.976,8.976,0,0,0,3.8-4.009M15.758,81.7a23.453,23.453,0,0,0,1.633-4.931c.362,1.952,1.19,3.734,1.128,5.778-.134,4.379-1.543,8.668-1.68,13.049a20.13,20.13,0,0,0-1.679-2.969A11.485,11.485,0,0,1,13.773,85,30.933,30.933,0,0,0,15.758,81.7M12.51,83.976c-1.774,3.64-4.628,6.539-7.278,9.527a9.937,9.937,0,0,0-.939,1.252c-.411-2.144.7-3.811,2.218-5.294,0,.3.008.61.029.914a.187.187,0,0,0,.366.043q.2-.85.4-1.69c1.268-1.116,2.67-2.15,3.677-3.241a21.162,21.162,0,0,0,5.264-10.582.039.039,0,0,0-.075-.019A27.278,27.278,0,0,1,7.655,87.3a30.675,30.675,0,0,1,3.478-8.856,26.31,26.31,0,0,1,4.058-5.027c.817-.791,1.578-1.518,2.283-2.3a17.912,17.912,0,0,0-.566,1.74c-.734,2.732-1.134,5.57-2.359,8.147a41.676,41.676,0,0,1-2.26,3.878c.117-.275.234-.552.349-.834.035-.085-.085-.16-.128-.073m-.23,18.435a16.43,16.43,0,0,0-.331-4.821c.3.627.607,1.261.911,1.919a20.97,20.97,0,0,1,1.7,7.285c-.715-1.37-1.725-2.7-2.328-4.068.017-.1.033-.209.045-.315m11.161-6.022a17.1,17.1,0,0,0-2.389,6.029,18.166,18.166,0,0,1-2.534,3.37,6.907,6.907,0,0,0-1.981,5.248.235.235,0,0,0,.434.111c.552-1.014.679-2.158,1.194-3.185a13.273,13.273,0,0,1,2.3-2.755,18.259,18.259,0,0,1-2.118,5.51,24.087,24.087,0,0,0-2.316,6.329c-.918,3.234-2.985,5.668-5.061,8.112,1.29-3.094,2.881-6.119,2.929-9.476A12.961,12.961,0,0,0,12.3,110a6.952,6.952,0,0,1-.749-4.347c.109-.6.277-1.174.428-1.757.8,2.416,2.63,4.511,2.656,7.23a.2.2,0,0,0,.166.209c0,.045,0,.09.006.135a.187.187,0,0,0,.366.043,18.445,18.445,0,0,0-.524-10.488c-.812-2.353-2.44-4.63-3.346-7.044a10.351,10.351,0,0,1,.553-5.6,16.228,16.228,0,0,1,1.041-2c-.007.046-.017.091-.023.138a9.526,9.526,0,0,0,.244,3.973c.915,3.006,3.362,4.951,3.454,8.282.005.186.3.3.384.1a3.766,3.766,0,0,0,.231-2.041.244.244,0,0,0,.112-.139c.133-.407.249-.818.354-1.233q.119-.212.236-.424a.186.186,0,0,0,.358,0c.048-.163.1-.327.149-.49,1.864-.758,3.874-.916,5.68-1.862-1.439,1.579-3.17,2.906-4.389,4.663a15.43,15.43,0,0,0-2.6,7.672.152.152,0,0,0,.282.072c1.306-2.742,1.611-5.869,3.71-8.211,1.427-1.592,3.14-2.747,3.889-4.751a11.708,11.708,0,0,0,1.042-.838,17.916,17.916,0,0,1-2.575,5.095m10.4-.037q.05-.367.079-.737a.164.164,0,0,0-.3-.078c-1.077,2.378-1.7,4.316-3.845,5.97a17.341,17.341,0,0,0-3.826,4.154,20.275,20.275,0,0,0,.537-5.39c-.052-1.8-.375-3.614-.4-5.418a10.97,10.97,0,0,0,1.434-3.033c.038-.138.068-.277.1-.415a55.4,55.4,0,0,1,1.45,5.521.207.207,0,0,0,.4-.005c.735-2.173-.265-4.513-1.7-6.175a19,19,0,0,0,.279-2.074,5.892,5.892,0,0,0,.5-1.544c.181.284.363.568.553.847a6.816,6.816,0,0,1,1.4,4.125.235.235,0,0,0,.434.111c1.6-2.219-.856-4.855-2.792-6.806,0-.287,0-.575-.009-.86-.015-.942.008-1.865.058-2.783.051.073.1.147.153.22a26.748,26.748,0,0,0,2.116,2.164,8.574,8.574,0,0,1,1.861,3.205.223.223,0,0,0,.426-.006c.5-1.34-.306-2.6-1.189-3.592-1.059-1.195-2.529-2.223-3.249-3.654.09-1.041.2-2.084.333-3.146a11.455,11.455,0,0,0-.306-4.195c.656,1.164,1.5,2.225,2.116,3.436a40.838,40.838,0,0,1,2.092,6.295.2.2,0,0,0,.388-.058,11.582,11.582,0,0,0-1.2-5.786,17.223,17.223,0,0,0-.8-1.577c-.01-1.66.928-3.088,1.21-4.758.037-.217.063-.428.079-.634q.416.3.812.6c.28.88.554,1.759.845,2.618a16.781,16.781,0,0,1,.847,4.11,6.555,6.555,0,0,0-.467-1.091.086.086,0,0,0-.156.022c-.352,2.28.507,4.589.154,6.916-.388,2.56-1.874,4.793-2.239,7.35a.179.179,0,0,0,.327.133,18.3,18.3,0,0,0,2.272-5.173c.067.876.181,1.757.334,2.674-.435,1.307-.435,2.754-.867,4.08a14.136,14.136,0,0,1-2.636,4.645c-1.5,1.813-3.577,3.573-3.733,6.078a.2.2,0,0,0,.376.1c1.447-2.783,3.763-4.777,5.4-7.407a17.1,17.1,0,0,0,1.392-2.772c-.267,1.286-.669,2.564-1.032,3.791m-5.707-9.88.184.3a.2.2,0,0,0-.046.049l-.143.214c0-.187,0-.373.005-.56" transform="translate(-0.681 -48.872)" fill="#a2a520"/>
            <path id="Trazado_989494" data-name="Trazado 989494" d="M31.244,128.126c-.043.143.189.244.249.1,1.943-4.59,3.4-9.465,1.026-14.152-1.34-2.644-2.974-4.858-3.272-7.906a39.355,39.355,0,0,1,.512-9.795,51.2,51.2,0,0,1,6.6-17.931c1.509-2.577,3.13-5.087,4.635-7.666a35.092,35.092,0,0,0,3.2-6.451,2.116,2.116,0,0,0-1.346.475,3.043,3.043,0,0,0-.265-.479c-1.191,2-2.279,4.073-3.5,6.047-1.571,2.541-3.217,5.034-4.713,7.622a52.123,52.123,0,0,0-6.4,17.279c-.924,5.394-1.63,11.593,1.505,16.395,1.588,2.433,3.295,4.66,3.431,7.683.138,3.09-.781,5.869-1.654,8.779" transform="translate(-22.23 -52.611)" fill="#7a7a0b"/>
            <path id="Trazado_989495" data-name="Trazado 989495" d="M55.476,130.912a7.148,7.148,0,0,0,2.729-.764,35.541,35.541,0,0,0,5.771-6.206c3.064-4.148,4.74-9.1,7.607-13.388a38.584,38.584,0,0,0,5.833-14.578c.867-4.638,1.709-9.8.3-14.406-.839-2.749-2.078-5.394-3.053-8.1-.8-2.218-1.471-4.484-2.228-6.717a2.308,2.308,0,0,0-.356.277,2.2,2.2,0,0,0-.563-.709A46.53,46.53,0,0,0,73.149,73.9c.845,2.947,2.186,5.737,2.985,8.691.871,3.222.441,6.651.007,9.909a51.59,51.59,0,0,1-2,9.239,40.89,40.89,0,0,1-4.416,8.826c-1.739,2.808-2.96,5.8-4.466,8.722a37.028,37.028,0,0,1-5.157,7.6,35.779,35.779,0,0,1-4.1,3.827,34.66,34.66,0,0,0,4.344-11.777c.9-6.228,1.17-12.521,2.333-18.721,1.139-6.068,3.387-11.82,4.849-17.8a45.609,45.609,0,0,0,1.261-8.685c.071-1.469.1-2.939.178-4.408a17.82,17.82,0,0,1,.553-3.388,1.906,1.906,0,0,0-.655.445,2.258,2.258,0,0,0-.508-.431,25.7,25.7,0,0,0-1.177,5.915,74.138,74.138,0,0,1-1.294,9.15C64.465,87,62.127,92.736,60.978,98.8c-1.129,5.955-1.234,12.059-1.495,18.1a29.561,29.561,0,0,1-1.7,9.21,36.684,36.684,0,0,1-2.305,4.81" transform="translate(-45.376 -53.928)" fill="#7a7a0b"/>
            <g id="Grupo_1103905" data-name="Grupo 1103905" transform="translate(3.15 11.256)" opacity="0.2" style="mix-blend-mode: overlay;isolation: isolate">
              <g id="Grupo_1103904" data-name="Grupo 1103904">
                <g id="Grupo_1103903" data-name="Grupo 1103903" clip-path="url(#clip-path-14)">
                  <path id="Trazado_989496" data-name="Trazado 989496" d="M46.326,95.929c1.714-5.14,3.695-11.506,1.935-16.871-1-3.063-2.536-5.953-3.612-9-.843-2.387-1.637-4.7-2.691-6.958a2.382,2.382,0,0,0-.426.127,2.246,2.246,0,0,0-.675.447,2.178,2.178,0,0,0-.419-.576c-.282,4.523,1.161,8.944,2.806,13.168.974,2.5,2.1,4.729,2.023,7.489a34.65,34.65,0,0,1-1.6,8.313,63.989,63.989,0,0,1-6.857,15.611c-1.5,2.5-3.417,4.86-4.664,7.5-1.159,2.455-2.218,4.943-3.62,7.289-.2.342-.422.679-.647,1.011.171-.48.339-.96.494-1.444a60.121,60.121,0,0,0,1.925-7.7c.459-2.539,1.118-4.994,1.392-7.562.582-5.466,2.2-10.578,3.758-15.827a84.886,84.886,0,0,0,3.032-15.487,49.657,49.657,0,0,0,.346-8.992c-.105-1.309-.379-2.586-.572-3.878a1.917,1.917,0,0,0-.628.434,2.121,2.121,0,0,0-.972-.637c-.178,1.589-.555,3.165-.744,4.756-.4,3.359-.691,6.718-1.265,10.055-.563,3.273-1.242,6.52-2.119,9.724-.9,3.29-1.976,6.54-2.682,9.88-1.381,6.532-.509,13.268-1.935,19.756a61.258,61.258,0,0,1-2.959,9.7c-.073.182-.153.362-.229.543a22.089,22.089,0,0,0,.324-4.313,20.508,20.508,0,0,0,.839-4.817c.227-4.975-3.058-8.818-4.116-13.506C20.625,99.073,21.5,94,23.173,89.136a97.152,97.152,0,0,1,6.9-15.3,82.262,82.262,0,0,0,4.234-7.958,18.841,18.841,0,0,0,1.038-3.448,2.612,2.612,0,0,0-.579.334,2.952,2.952,0,0,0-.643-.933c-.062.156-.129.31-.2.461a27,27,0,0,1-2,3.247c-1.506,2.151-3.218,4.135-4.67,6.327a79.505,79.505,0,0,0-7.209,14.486,32.919,32.919,0,0,0-2.645,14.894,16.9,16.9,0,0,0,2,6.856A71,71,0,0,1,23,114.237c1.2,2.748.755,5.486.237,8.334-.26,1.429-.6,2.815-.991,4.187a1.554,1.554,0,0,0,1.158.772,7.861,7.861,0,0,0,5.19-1.682,53.577,53.577,0,0,0,3.977-6.117,42.779,42.779,0,0,1,2.709-3.485c.952-1.263,1.836-2.579,2.731-3.883a65.688,65.688,0,0,0,8.311-16.434" transform="translate(-17.3 -61.828)" fill="#1e0202"/>
                </g>
              </g>
            </g>
            <g id="Grupo_1103908" data-name="Grupo 1103908" transform="translate(0 10.521)" opacity="0.2" style="mix-blend-mode: overlay;isolation: isolate">
              <g id="Grupo_1103907" data-name="Grupo 1103907">
                <g id="Grupo_1103906" data-name="Grupo 1103906" clip-path="url(#clip-path-15)">
                  <path id="Trazado_989497" data-name="Trazado 989497" d="M22.06,110.374a77.674,77.674,0,0,1-4.289,7.4,52.418,52.418,0,0,1-4.251,5.347c3.626-2.073,7.055-6.459,8.834-8.62,1.112-1.35,2.212-2.755,3.273-4.207,4.051-5.546,7.525-11.79,8.865-18.41a49.176,49.176,0,0,0,.883-12.118,56.168,56.168,0,0,0-1.036-8.829A39.534,39.534,0,0,0,32.4,64.748c-.592-1.521-1.036-3.693-2.534-4.593a2.843,2.843,0,0,0-2.488-.233,2.25,2.25,0,0,0-.675.447,2.2,2.2,0,0,0-1.368-1.133,1.761,1.761,0,0,0-1.859.478,2.086,2.086,0,0,0-1.226-.706,2.044,2.044,0,0,0-1.64.447A2.648,2.648,0,0,0,17.4,57.894c-1.6.437-2.785,1.733-3.893,2.889a23.4,23.4,0,0,0-3.318,4.306C4.076,75.39-2.417,87.416.9,99.627c1.557,5.736,4.978,10.664,6.671,16.292a12.766,12.766,0,0,1,.33,6.3,1.678,1.678,0,0,0,.909,1.871,55.014,55.014,0,0,0,1.954-8.473,8.8,8.8,0,0,0,.148-3.328,10.348,10.348,0,0,0-1.592-3.188A29.383,29.383,0,0,1,5.844,101.1a19.832,19.832,0,0,1-.738-6.281,27,27,0,0,1,1.209-5.885,84.885,84.885,0,0,1,7.529-18.487A5.844,5.844,0,0,1,16.29,67.78c1.125-.494,2.744-.015,2.981,1.191a1.562,1.562,0,0,0,1.769,1.265c1.033-.309,1.324-1.754,2.315-2.179,1.071-.459,2.2.529,2.8,1.528s1.138,2.209,2.248,2.563a15.949,15.949,0,0,1,1.7.336A3.013,3.013,0,0,1,31.477,74.8c1.264,6.136.364,12.56-1.579,18.516S25,104.841,22.06,110.374" transform="translate(0 -57.786)" fill="#1e0202"/>
                </g>
              </g>
            </g>
            <g id="Grupo_1103911" data-name="Grupo 1103911" transform="translate(8.691 21.186)" opacity="0.3" style="mix-blend-mode: overlay;isolation: isolate">
              <g id="Grupo_1103910" data-name="Grupo 1103910">
                <g id="Grupo_1103909" data-name="Grupo 1103909" clip-path="url(#clip-path-16)">
                  <path id="Trazado_989498" data-name="Trazado 989498" d="M47.819,139.449a16.342,16.342,0,0,0,1.571,8.8c1.237-5.288,3.368-10.3,5.311-15.354,1.741-4.53,4.127-9.809,4.064-14.745-.007-.53.081-1.8-.724-1.779-.679.019-1.067,1.662-1.274,2.173a68.727,68.727,0,0,1-3.514,7.618c-2.317,4.186-4.935,8.425-5.434,13.291" transform="translate(-47.736 -116.367)" fill="#fff"/>
                </g>
              </g>
            </g>
            <g id="Grupo_1103914" data-name="Grupo 1103914" transform="translate(11.156 10.521)" opacity="0.2" style="mix-blend-mode: overlay;isolation: isolate">
              <g id="Grupo_1103913" data-name="Grupo 1103913">
                <g id="Grupo_1103912" data-name="Grupo 1103912" clip-path="url(#clip-path-17)">
                  <path id="Trazado_989499" data-name="Trazado 989499" d="M79.63,65.818c.348-.072.579-.389.82-.65a3.407,3.407,0,0,1,1.86-1.006c-.5-1.449-1.006-3.217-2.32-4.007a2.843,2.843,0,0,0-2.488-.233,2.243,2.243,0,0,0-.675.447,2.2,2.2,0,0,0-1.368-1.133,1.761,1.761,0,0,0-1.859.478,2.088,2.088,0,0,0-1.226-.706,2.044,2.044,0,0,0-1.64.447,2.648,2.648,0,0,0-3.219-1.561c-1.6.437-2.785,1.733-3.893,2.889A24.809,24.809,0,0,0,61.276,63.6a9.338,9.338,0,0,1,2.058-.788,2.7,2.7,0,0,1,1.925.067,4.237,4.237,0,0,1,1.259,1.465,1.777,1.777,0,0,0,1.593.937c.7-.12,1.057-.886,1.47-1.469s1.339-1.031,1.777-.467c.2.257.206.645.46.847a.784.784,0,0,0,.988-.187c.259-.261.417-.609.677-.868a2.313,2.313,0,0,1,2.914.155c.849.638,1.448,1.561,2.293,2.2a1.218,1.218,0,0,0,.94.321" transform="translate(-61.276 -57.786)" fill="#1e0202"/>
                </g>
              </g>
            </g>
            <g id="Grupo_1103917" data-name="Grupo 1103917" transform="translate(5.404 11.886)" opacity="0.3" style="mix-blend-mode: overlay;isolation: isolate">
              <g id="Grupo_1103916" data-name="Grupo 1103916">
                <g id="Grupo_1103915" data-name="Grupo 1103915" clip-path="url(#clip-path-18)">
                  <path id="Trazado_989500" data-name="Trazado 989500" d="M59.653,85.9a56.166,56.166,0,0,0-1.036-8.829,39.528,39.528,0,0,0-1.935-6.193c-.592-1.521-1.035-3.693-2.534-4.593a2.843,2.843,0,0,0-2.488-.233,2.243,2.243,0,0,0-.675.447,2.2,2.2,0,0,0-1.368-1.133,1.784,1.784,0,0,0-1.381.117c.2.6.488,1.241.761,1.911a42.316,42.316,0,0,1,2.348,23.836,30.484,30.484,0,0,1-3.06,8.856,38.162,38.162,0,0,1-7.583,9.193,33.043,33.043,0,0,1-9.367,6.654c-.538.23-1.091.432-1.653.61a42.643,42.643,0,0,1,2.164,5.508,12.768,12.768,0,0,1,.33,6.3,1.646,1.646,0,0,0,1.36,2c4.952.6,10.621-6.714,13.1-9.72,1.112-1.35,2.212-2.755,3.273-4.207,4.051-5.546,7.525-11.79,8.865-18.41A49.176,49.176,0,0,0,59.653,85.9" transform="translate(-29.682 -65.283)" fill="#1e0202"/>
                </g>
              </g>
            </g>
            <g id="Grupo_1103920" data-name="Grupo 1103920" transform="translate(6.472 62.06)" opacity="0.3" style="mix-blend-mode: overlay;isolation: isolate">
              <g id="Grupo_1103919" data-name="Grupo 1103919">
                <g id="Grupo_1103918" data-name="Grupo 1103918" clip-path="url(#clip-path-19)">
                  <path id="Trazado_989501" data-name="Trazado 989501" d="M50.12,343.78c-4.9,1.885-9.629,1.735-14.573.634.408,1,.784,2.015,1.1,3.054a12.766,12.766,0,0,1,.33,6.3,1.646,1.646,0,0,0,1.36,2c4.952.6,10.621-6.714,13.1-9.72,1.112-1.351,2.212-2.755,3.273-4.207q.352-.482.7-.972a22.085,22.085,0,0,1-5.28,2.906" transform="translate(-35.547 -340.874)" fill="#1e0202"/>
                </g>
              </g>
            </g>
            <path id="Trazado_989502" data-name="Trazado 989502" d="M230.569,28.92c-3.712-.539-7.436.752-10.867,2.267-4.775,2.109-9.411,4.718-14.531,5.734a24.495,24.495,0,0,1-27.712-15.45c-.887-2.373-1.406-4.882-2.463-7.184s-2.8-4.463-5.214-5.216c1.1-.39,1.549-.109,2.716-.017,4.993.4,9.529-2.623,14.3-4.147,8.6-2.745,18.243-.473,25.816,4.432s13.217,11.9,17.953,19.579" transform="translate(-138.872 -3.049)" fill="#657f05"/>
            <path id="Trazado_989503" data-name="Trazado 989503" d="M219.155,55.173a29.129,29.129,0,0,1-.764-3.117,6.31,6.31,0,0,0-.223-1.365c-.151-.209-.654-.389-.587.1A28.5,28.5,0,0,0,228.3,69.316a29.308,29.308,0,0,1-6.87-8.678,29.8,29.8,0,0,1-2.277-5.464" transform="translate(-177.963 -41.289)" fill="#779300"/>
            <path id="Trazado_989504" data-name="Trazado 989504" d="M276.5,153.943c.205.164.412.324.62.475-.211-.153-.414-.316-.62-.475" transform="translate(-226.159 -125.916)" fill="#779300"/>
            <path id="Trazado_989505" data-name="Trazado 989505" d="M248.983,27.478q-.752-1.3-1.421-2.639c-.207-.416-1.08-2.878-1.47-2.872,5.459-4.312,12.478-9.157,19.742-8.1a18.791,18.791,0,0,0-10.9,1.7,48.188,48.188,0,0,0-5.926,3.233c-1.065.7-3.51,2.227-3.173,3.54a22.663,22.663,0,0,0,2.666,5.316,43.959,43.959,0,0,0,3.631,5.256,44.137,44.137,0,0,0,8.3,7.916,44.052,44.052,0,0,1-7.957-8.161,47.288,47.288,0,0,1-3.489-5.187" transform="translate(-201.051 -11.182)" fill="#779300"/>
            <path id="Trazado_989506" data-name="Trazado 989506" d="M326.143,162.829c.224.169.449.334.675.493-.228-.161-.45-.328-.675-.493" transform="translate(-266.765 -133.184)" fill="#779300"/>
            <path id="Trazado_989507" data-name="Trazado 989507" d="M295.914,80.365c-.148-.086-.542-.215-.413.188,1.957,6.14,7.111,10.427,11.9,14.394a52.408,52.408,0,0,1-6.984-6.985,30.18,30.18,0,0,1-2.8-4.025,25.065,25.065,0,0,1-1.227-2.42,5.66,5.66,0,0,0-.472-1.153" transform="translate(-241.681 -65.66)" fill="#779300"/>
            <path id="Trazado_989508" data-name="Trazado 989508" d="M335.218,91.714c-.106,0-.4,0-.271.264,2.2,4.578,6.515,8.717,10.684,11.513a34.771,34.771,0,0,1-6.113-5.944,34.8,34.8,0,0,1-2.579-3.338c-.411-.612-.794-1.243-1.208-1.853-.085-.125-.341-.649-.513-.642" transform="translate(-273.94 -75.016)" fill="#779300"/>
            <path id="Trazado_989509" data-name="Trazado 989509" d="M375.117,105.205a19.757,19.757,0,0,0,6.665,7.105,19.021,19.021,0,0,1-4.066-3.815,19.5,19.5,0,0,1-1.525-2.2c-.147-.248-.485-1.2-.685-1.266-.107-.037-.592-.21-.389.177" transform="translate(-306.783 -85.849)" fill="#779300"/>
            <path id="Trazado_989510" data-name="Trazado 989510" d="M415.668,116.032c.486,1.773,2.374,3.508,3.9,4.4a11.323,11.323,0,0,1-2.272-2.391c-.329-.431-.586-.9-.888-1.354-.014-.02-.849-1.066-.736-.654" transform="translate(-339.982 -94.828)" fill="#779300"/>
            <path id="Trazado_989511" data-name="Trazado 989511" d="M221.752,17.994a20.6,20.6,0,0,1,2.788-1.771c1.043-.566,2.126-1.053,3.207-1.542.653-.3,1.861-1.067,2.27-1.183a31.589,31.589,0,0,0-6.365,2.573c-.615.331-5.1,3.147-4.231,3.811.21.161,2-1.627,2.331-1.887" transform="translate(-179.382 -11.04)" fill="#779300"/>
            <path id="Trazado_989512" data-name="Trazado 989512" d="M296.457,35.606c-.245.2-3.015,2.7-2.421,2.874.61.179,2.557-2.165,3.014-2.553a30.027,30.027,0,0,1,3.474-2.522,28.109,28.109,0,0,1,7.47-3.6A27.249,27.249,0,0,0,300,33.059a30.815,30.815,0,0,0-3.548,2.547" transform="translate(-240.435 -24.381)" fill="#779300"/>
            <path id="Trazado_989513" data-name="Trazado 989513" d="M341.185,49.061a16.336,16.336,0,0,0-3.369,2.67,9.188,9.188,0,0,0-1.162,1.331,8.942,8.942,0,0,0-.478,1.371c1-.582,1.7-2,2.547-2.806a14.959,14.959,0,0,1,3.66-2.567A15.728,15.728,0,0,1,346.06,47.8a17.94,17.94,0,0,1,3.2-.6,12.5,12.5,0,0,0-8.075,1.854" transform="translate(-274.97 -38.517)" fill="#779300"/>
            <path id="Trazado_989514" data-name="Trazado 989514" d="M379.054,71.831c-.631.348-5.565,3.78-4.806,4.511-.026-.025,5.009-3.969,5.711-4.328a12.093,12.093,0,0,1,2.831-1.027,12.907,12.907,0,0,1,1.7-.265c.028,0,1.2-.132.89-.191a9.555,9.555,0,0,0-6.329,1.3" transform="translate(-306.048 -57.585)" fill="#779300"/>
            <path id="Trazado_989515" data-name="Trazado 989515" d="M417.935,100.689c-.582.188-3.358,1.374-3.106,2.256.118.412,1.131-.5,1.384-.673a8.645,8.645,0,0,1,2.042-1.068,8.993,8.993,0,0,1,2.4-.412c.219-.011,1.835-.126,1.515-.226a7.124,7.124,0,0,0-4.231.123" transform="translate(-339.292 -82.039)" fill="#779300"/>
            <g id="Grupo_1103923" data-name="Grupo 1103923" transform="translate(30.911 0.712)" opacity="0.15" style="mix-blend-mode: overlay;isolation: isolate">
              <g id="Grupo_1103922" data-name="Grupo 1103922">
                <g id="Grupo_1103921" data-name="Grupo 1103921" clip-path="url(#clip-path-20)">
                  <path id="Trazado_989516" data-name="Trazado 989516" d="M174.942,14.324a4.494,4.494,0,0,1,1.3,1.077,13.766,13.766,0,0,1,1.936,4.124,30.832,30.832,0,0,0,16.4,17.3,24.976,24.976,0,0,0,2.668.494,59.733,59.733,0,0,1-14.137-16.409c-.423-.724-.83-1.643-.387-2.355,1.714,1.2,2.738,3.13,3.855,4.9a37.756,37.756,0,0,0,13.28,12.658,16.862,16.862,0,0,0,2.818,1.316q1.04-.094,2.068-.279c-5.55-4.016-11.035-8.411-14.3-14.407-.5-.927-.85-2.294.04-2.861a7.55,7.55,0,0,1,2.867,3.147c3.59,5.7,8.8,10.716,14.931,13.229q.97-.311,1.923-.676A39.92,39.92,0,0,1,197.38,24.507c-.764-1.026-1.412-2.64-.4-3.418,3.644,1.952,6.385,5.2,9.27,8.156a27.37,27.37,0,0,0,6.57,5.258q.827-.363,1.648-.743A34.963,34.963,0,0,1,205,25.5a1.283,1.283,0,0,1-.386-.924.9.9,0,0,1,1.151-.586,2.626,2.626,0,0,1,1.14.884c2.758,3.108,5.848,6.212,9.533,7.97l.975-.457a29.872,29.872,0,0,1-5.9-4.841c-.508-.565-.981-1.463-.455-2.012.5-.518,1.365-.165,1.947.254,1.943,1.4,3.5,3.27,5.338,4.8.359.3.737.586,1.129.853l.225-.1q.8-.353,1.62-.683A18.439,18.439,0,0,1,218.64,27.8a27.887,27.887,0,0,1,8.658,1.235,12.982,12.982,0,0,1,3.271.038,83.011,83.011,0,0,0-5.911-8.456,11.344,11.344,0,0,0-9.829.436c-1.2.661-2.9,1.459-3.7.351a13.5,13.5,0,0,1,11.233-3.486c-1.019-1.131-2.077-2.223-3.186-3.264a11.878,11.878,0,0,0-1.691.135,15.69,15.69,0,0,0-5.222,1.756A44.586,44.586,0,0,1,207.944,19a5.219,5.219,0,0,1-4.775-.111c.283-1.722,2.133-2.664,3.79-3.211a36.029,36.029,0,0,1,10.731-1.807c.195,0,.4-.009.6-.02a46.021,46.021,0,0,0-5.674-4.358c-.1-.068-.211-.133-.316-.2a19.377,19.377,0,0,0-9.246,5.278,9.242,9.242,0,0,1-2.191,1.856,2.516,2.516,0,0,1-2.718-.109A26.068,26.068,0,0,1,210.973,8.49q-1.2-.69-2.454-1.291a37.071,37.071,0,0,0-8.771,3.322c-2.4,1.279-4.74,2.851-7.426,3.281-.828.133-1.887.024-2.2-.756-.334-.844.5-1.672,1.264-2.16C195.937,8,201.325,6.98,206.739,6.4a33.4,33.4,0,0,0-8.165-2.244A21.63,21.63,0,0,0,187.486,9.1c-1.167,1.009-2.691,2.228-4.063,1.521a34.778,34.778,0,0,1,9.83-6.709,25.279,25.279,0,0,0-6.034,1.021c-2.272,1.575-4.5,3.319-7.184,3.88a3.548,3.548,0,0,1-2.5-.223,14.009,14.009,0,0,1-5.039.615c-1.167-.093-1.612-.373-2.716.017,2.378.74,4.1,2.842,5.159,5.1" transform="translate(-169.783 -3.913)" fill="#1e0202"/>
                </g>
              </g>
            </g>
            <path id="Trazado_989517" data-name="Trazado 989517" d="M223.154,45.668c-2.455-.858-5.058-1.347-7.57-2.029-2.414-.655-4.81-1.427-7.2-2.17-4.9-1.522-9.772-3.14-14.624-4.81-4.785-1.647-9.538-3.391-14.277-5.166q-3.709-1.389-7.4-2.822c-1.434-.558-2.912-1.264-4.42-1.784l-.016.009a1.076,1.076,0,0,0-.395,1.36c1.432.645,2.971,1.135,4.374,1.684q3.688,1.444,7.4,2.833c4.846,1.808,9.728,3.51,14.625,5.175,4.862,1.652,9.751,3.214,14.7,4.6,2.53.711,5.072,1.328,7.623,1.958a51.123,51.123,0,0,0,7.115,1.5.18.18,0,0,0,.076-.347" transform="translate(-136.729 -21.993)" fill="#738e10"/>
            <g id="Grupo_1103926" data-name="Grupo 1103926" transform="translate(30.911 0.679)" opacity="0.2" style="mix-blend-mode: overlay;isolation: isolate">
              <g id="Grupo_1103925" data-name="Grupo 1103925">
                <g id="Grupo_1103924" data-name="Grupo 1103924" clip-path="url(#clip-path-21)">
                  <path id="Trazado_989518" data-name="Trazado 989518" d="M186.8,4.908c-4.771,1.523-9.308,4.543-14.3,4.147-1.167-.093-1.612-.373-2.716.017a7.076,7.076,0,0,1,2.76,1.668c1.451.483,2.8.854,3.521,1.115q20.189,7.253,40.7,13.564,5.645,1.737,11.312,3.4a12.577,12.577,0,0,1,2.493.1c-4.735-7.681-10.379-14.674-17.953-19.579S195.4,2.163,186.8,4.908" transform="translate(-169.783 -3.727)" fill="#1e0202"/>
                </g>
              </g>
            </g>
            <g id="Grupo_1103929" data-name="Grupo 1103929" transform="translate(46.474 0.679)" opacity="0.15" style="mix-blend-mode: overlay;isolation: isolate">
              <g id="Grupo_1103928" data-name="Grupo 1103928">
                <g id="Grupo_1103927" data-name="Grupo 1103927" clip-path="url(#clip-path-22)">
                  <path id="Trazado_989519" data-name="Trazado 989519" d="M282.534,9.341c-7.573-4.906-17.221-7.177-25.817-4.433-.487.156-.971.33-1.454.511l.062.005c9.323,1.047,17.4,6.726,24.874,12.394a20.412,20.412,0,0,1,4.526,4.236,13.867,13.867,0,0,0,1.718,2.311,8.336,8.336,0,0,0,3.026,1.541l7.681,2.663.843.251a12.565,12.565,0,0,1,2.494.1c-4.735-7.681-10.379-14.674-17.953-19.579" transform="translate(-255.263 -3.727)" fill="#1e0202"/>
                </g>
              </g>
            </g>
            <g id="Grupo_1103932" data-name="Grupo 1103932" transform="translate(40.971 16.755)" opacity="0.15" style="mix-blend-mode: overlay;isolation: isolate">
              <g id="Grupo_1103931" data-name="Grupo 1103931">
                <g id="Grupo_1103930" data-name="Grupo 1103930" clip-path="url(#clip-path-23)">
                  <path id="Trazado_989520" data-name="Trazado 989520" d="M258.995,102.269a22.866,22.866,0,0,1-20.941,3.173c-5.829-2.064-12.294-6.795-13.013-13.412,9.608,6.971,21.79,12.934,33.955,10.24" transform="translate(-225.04 -92.029)" fill="#fff"/>
                </g>
              </g>
            </g>
            <path id="Trazado_989521" data-name="Trazado 989521" d="M41.93,137.731a18.367,18.367,0,0,0,1.052-1.552c.583-.916,1.208-1.8,1.846-2.681,1.276-1.754,2.622-3.456,3.868-5.233a32.9,32.9,0,0,0,3.413-5.636,26.51,26.51,0,0,0,1.409-4.5c1.966-8.313,2.61-17.2.1-25.518l-2.439-8.069c-1.2,1.314-2.333,2.258-3.476,3.62C39.584,97.83,35.05,110.827,36.994,123.3a52.99,52.99,0,0,0,4.446,14.776c.06.121.256-.057.489-.347" transform="translate(-29.893 -69.148)" fill="#e2de6d"/>
            <path id="Trazado_989522" data-name="Trazado 989522" d="M55.242,101.954q-.039-.768-.1-1.534c-1.331.47-2.65,1-3.955,1.5q.051-.959.063-1.915a29,29,0,0,0,3.638-1.776c-.053-.375-.107-.749-.171-1.122-1.163.8-2.274,1.709-3.465,2.424q0-.762-.032-1.519a14.962,14.962,0,0,0,2.307-1.79c.28-.259.571-.527.861-.8-.1-.445-.2-.89-.311-1.332-.436.483-.869.964-1.332,1.387A15.751,15.751,0,0,1,51.134,96.7q-.082-.988-.235-1.96a10.063,10.063,0,0,0,2.474-2.246l.18-.241-.291-.963c-.016.025-.032.051-.049.075a19.109,19.109,0,0,1-2.376,2.993c-.08-.462-.169-.921-.276-1.375a.38.38,0,0,0-.125-.207c.332-2.256.789-4.533,1.232-6.759l-.445-1.474c-.225.247-.447.478-.668.7l-.071.425a41.853,41.853,0,0,0-.477,7.057.462.462,0,0,0-.259.265c-.138.389-.295.771-.464,1.15-.223-2.14-.29-4.322-.337-6.428-.006-.285,0-.572,0-.858-.4.407-.8.83-1.2,1.306l-.035.043A42.425,42.425,0,0,0,48.868,95c-.36.711-.757,1.411-1.165,2.107a46.226,46.226,0,0,0-2.011-6.325q-.554.758-1.077,1.539A32.968,32.968,0,0,0,47.1,98.13c-.377.638-.75,1.277-1.1,1.923a41.47,41.47,0,0,0-3.314-4.116.836.836,0,0,0-.192-.177c-.228.406-.451.814-.667,1.227a20.13,20.13,0,0,0,3.659,4.076c-.1.217-.206.435-.3.656q-.44,1.018-.837,2.055a15.034,15.034,0,0,0-2.547-2.218c-.519-.4-1.043-.8-1.58-1.19q-.171.4-.335.8c.472.421.957.828,1.433,1.232a13.244,13.244,0,0,0,2.792,2.024q-.454,1.229-.843,2.481a19.024,19.024,0,0,0-4.286-3.335c-.109.316-.213.634-.315.952a17.139,17.139,0,0,0,4.321,3.288c-.182.628-.354,1.258-.509,1.893-.07.285-.134.57-.2.856-.953-.72-1.979-1.361-2.943-2.008-.506-.34-1.013-.681-1.522-1.018-.151.616-.291,1.234-.415,1.855l.846.642a41.261,41.261,0,0,0,3.63,2.636,38.285,38.285,0,0,0-.436,3.9,22.1,22.1,0,0,0-4.8-1.16q-.035.681-.046,1.363a36.08,36.08,0,0,0,4.792.975q-.034,1.211.011,2.422a10.209,10.209,0,0,0-2.521-.256c-.737-.025-1.476-.037-2.215-.029q.036.566.088,1.132.807.085,1.616.144a10.8,10.8,0,0,0,3.082.006q.049.767.13,1.531a22.705,22.705,0,0,0-4.432,1.292q.091.54.192,1.086a26.113,26.113,0,0,0,4.384-1.2q.14,1,.338,1.995a8.976,8.976,0,0,0-3.955,2.725q.2.806.426,1.61c.2-.181.4-.371.612-.563,1.014-.926,2.079-1.787,3.02-2.784a39.189,39.189,0,0,0-.4,7.172c-.043,1.315-.092,2.666-.1,4.02a2.2,2.2,0,0,0,.3-.318,18.47,18.47,0,0,0,1.052-1.552c.033-.052.069-.1.1-.154.014-.547.029-1.092.052-1.632.068-1.628.152-3.255.226-4.883.029-.645.086-1.31.1-1.973a.567.567,0,0,0,.06-.456c-.022-.082-.039-.165-.06-.247,0-.1-.006-.193-.012-.289a.7.7,0,0,0,.175-.122c.353-.339.681-.694,1-1.056a37.654,37.654,0,0,0,2.263,5.368q.31-.412.616-.827c-.5-1.953-1.225-3.862-1.89-5.77a19.182,19.182,0,0,0,1.368-2.169,16,16,0,0,0,3.564,3.558q.223-.355.436-.715c-1.1-1.327-2.237-2.684-3.445-3.941a25.417,25.417,0,0,0,1.38-3.671,46.927,46.927,0,0,0,4.178,2.559q.226-.813.421-1.633h0c-1.385-.786-2.833-1.492-4.272-2.133q.264-1.051.464-2.12c1.069.24,2.157.419,3.231.618.43.08.862.164,1.3.236q.11-.592.211-1.186a24.421,24.421,0,0,0-4.606-.394q.157-.925.279-1.854a39.975,39.975,0,0,0,4.669-.064c.054-.414.106-.829.151-1.244-1.523-.106-3.146.188-4.678.225.141-1.07.284-2.159.415-3.257,1.1,0,2.2-.083,3.281-.163.408-.03.823-.056,1.238-.085.022-.454.041-.909.05-1.364-.435.048-.869.1-1.3.135-1.032.095-2.088.164-3.133.287.092-.845.174-1.693.239-2.544,1.362-.4,2.772-.79,4.143-1.266M49.9,102.4q-.313.111-.624.215c-.671.224-.38,1.275.3,1.063l.248-.076q-.081,1.172-.193,2.343a14.376,14.376,0,0,0-1.718.4.2.2,0,0,0,0,.375,12.566,12.566,0,0,0,1.615.2q-.173,1.63-.4,3.258h-.019c-.576-.058-.7.941-.127,1.015q-.149.992-.338,1.979a.227.227,0,0,0-.076.392q-.2.971-.444,1.926c-.547-.234-1.09-.46-1.624-.678a.267.267,0,0,0-.26.467c.527.385,1.068.775,1.62,1.164a25.559,25.559,0,0,1-1.271,3.443c-.279-.265-.561-.524-.849-.773-.452-.391-1.084.254-.647.675.35.337.684.7,1.013,1.084a19.38,19.38,0,0,1-1.028,1.746c-.437-.48-1.438-.089-1.173.633.08.219.159.439.238.66-.294.368-.61.723-.939,1.071,0-.005,0-.011,0-.016a.2.2,0,0,0-.135-.121c-.088-.479-.161-.959-.227-1.439.27-.126.538-.256.8-.4a.281.281,0,0,0-.147-.518c-.253.011-.506.031-.759.055a33.852,33.852,0,0,1-.173-4.731c.052,0,.1,0,.155,0a.3.3,0,0,0,.142-.557c-.088-.053-.182-.094-.271-.144.066-1.291.2-2.581.4-3.866a8.706,8.706,0,0,0,1.085.425.539.539,0,0,0,.589-.8,9.59,9.59,0,0,0-1.355-1.475q.2-1.038.458-2.069a56.529,56.529,0,0,1,2.719-8.028c.329-.8.653-1.649,1-2.506q.216.369.439.725A.153.153,0,0,0,48.2,99.4q-.142-.773-.318-1.562a24.685,24.685,0,0,1,1.114-2.315q.194.8.393,1.615c.051.207.355.115.315-.09-.137-.71-.245-1.432-.335-2.161.148-.239.3-.474.463-.7q.129,1.677.158,3.351A5.746,5.746,0,0,0,48.7,98.916a.092.092,0,0,0,.1.132,7.8,7.8,0,0,0,1.195-.4c0,1.251-.036,2.5-.1,3.752" transform="translate(-29.939 -69.147)" fill="#e0c541"/>
            <g id="Grupo_1103935" data-name="Grupo 1103935" transform="translate(6.654 15.758)" opacity="0.2" style="mix-blend-mode: overlay;isolation: isolate">
              <g id="Grupo_1103934" data-name="Grupo 1103934">
                <g id="Grupo_1103933" data-name="Grupo 1103933" clip-path="url(#clip-path-24)">
                  <path id="Trazado_989523" data-name="Trazado 989523" d="M47.7,89.808c1.033-1.231,2.06-2.123,3.132-3.253-.039.179-.076.354-.1.521a39.985,39.985,0,0,0-.278,4.584c-.3,7.727-3.347,15.064-4.682,22.68-.518,2.953-.778,5.949-1.4,8.881-.552,2.585-1.385,5.1-1.987,7.677a44.052,44.052,0,0,0-1.125,8.44,53.536,53.536,0,0,1-4.26-14.387C35.049,112.476,39.583,99.479,47.7,89.808" transform="translate(-36.546 -86.555)" fill="#1e0202"/>
                </g>
              </g>
            </g>
            <g id="Grupo_1103938" data-name="Grupo 1103938" transform="translate(7.626 17.068)" opacity="0.2" style="mix-blend-mode: overlay;isolation: isolate">
              <g id="Grupo_1103937" data-name="Grupo 1103937">
                <g id="Grupo_1103936" data-name="Grupo 1103936" clip-path="url(#clip-path-25)">
                  <path id="Trazado_989524" data-name="Trazado 989524" d="M42.652,133.189c-.109-.845-.1-1.7-.175-2.549-.107-1.255-.381-2.49-.507-3.742a31.917,31.917,0,0,1,.857-9.171,35.064,35.064,0,0,1,2.746-9.419c2.656-5.21,7.738-9.052,9.707-14.559,1.762,5.817,2.083,11.96,2.324,18.033a69.842,69.842,0,0,1-.131,10.479,24.766,24.766,0,0,1-3.079,9.945,37.293,37.293,0,0,1-2.382,3.406,28.55,28.55,0,0,1-2.833,3.372,22.591,22.591,0,0,0-3.2,3.187c-.089.13-.215.281-.368.244a55.119,55.119,0,0,1-2.216-6.172,19.09,19.09,0,0,1-.74-3.054" transform="translate(-41.884 -93.749)" fill="#1e0202"/>
                </g>
              </g>
            </g>
            <path id="Trazado_989525" data-name="Trazado 989525" d="M50.617,149.84l2.725-2.951a23.943,23.943,0,0,0,2.932-3.622,8.256,8.256,0,0,0,1.336-4.47c1.558-1.7,3.18-3.515,3.632-5.775a9.85,9.85,0,0,0,.126-2.395,22.889,22.889,0,0,0-.854-5.046c.314-.586.446-1.18.773-1.757a8.776,8.776,0,0,0,.879-5.695,14.933,14.933,0,0,0-1.985-5.376,4.644,4.644,0,0,0,.655-2.548,17.953,17.953,0,0,0-1.157-5.585,12.015,12.015,0,0,0-3.948,6.361,19.24,19.24,0,0,0-4.457,5.368,8.861,8.861,0,0,0-.731,6.938,11.939,11.939,0,0,0-2,12.379,9.342,9.342,0,0,0-1.064,5.182,18.03,18.03,0,0,0,1.039,5.322,16.073,16.073,0,0,0,2.094,3.668" transform="translate(-38.835 -85.574)" fill="#f9ddb7"/>
            <path id="Trazado_989526" data-name="Trazado 989526" d="M50.576,267.873c.085-.174.174-.345.277-.513a11.832,11.832,0,0,1-.555-1.733l6.59,2.76a11.5,11.5,0,0,0,3.957,1.071c-.306.35-.619.694-.929,1.032,0,.122,0,.245-.005.368a6.546,6.546,0,0,0-.8-.2,35.754,35.754,0,0,1-7.553-2.408,8.378,8.378,0,0,0-.986-.377" transform="translate(-41.141 -217.267)" fill="#eac6a0"/>
            <path id="Trazado_989527" data-name="Trazado 989527" d="M64.544,203.674a10.7,10.7,0,0,0-5.768.592,10.409,10.409,0,0,1,1.007-1.294,6.857,6.857,0,0,1-.259-.93l6.048,1.113a11.158,11.158,0,0,1,4.451,1.517,5.7,5.7,0,0,1-.268.595c.117.415.225.839.322,1.269a10.71,10.71,0,0,0-5.532-2.862" transform="translate(-48.075 -165.258)" fill="#eac6a0"/>
            <path id="Trazado_989528" data-name="Trazado 989528" d="M101.712,107.261a13.321,13.321,0,0,1,2.327-2.639c.207.646.414,1.3.6,1.952a9.607,9.607,0,0,0-2.922.687" transform="translate(-83.194 -85.574)" fill="#eac6a0"/>
            <path id="Trazado_989529" data-name="Trazado 989529" d="M53.347,304.99l-2.725,2.95a16.065,16.065,0,0,1-2.094-3.668,18.026,18.026,0,0,1-1.039-5.322c-.007-.346,0-.692.008-1.037a19.085,19.085,0,0,0,2.05,3.515,12.514,12.514,0,0,0,3.881,3.475l-.081.088" transform="translate(-38.84 -243.674)" fill="#eac6a0"/>
            <path id="Trazado_989530" data-name="Trazado 989530" d="M92.76,138.554a13.635,13.635,0,0,0-3.847-1.7,7.18,7.18,0,0,0-1.929-.185q.517-.5,1.059-1c.07-.3.153-.583.244-.866l.28.138a30.533,30.533,0,0,0,3.9,1.491c.143.047.294.093.447.129a3.494,3.494,0,0,1-.416.88c.28.467.53.941.757,1.422q-.242-.16-.491-.309" transform="translate(-71.148 -110.261)" fill="#eac6a0"/>
            <g id="Grupo_1103941" data-name="Grupo 1103941" transform="translate(8.644 20.663)" opacity="0.2" style="mix-blend-mode: overlay;isolation: isolate">
              <g id="Grupo_1103940" data-name="Grupo 1103940">
                <g id="Grupo_1103939" data-name="Grupo 1103939" clip-path="url(#clip-path-26)">
                  <path id="Trazado_989531" data-name="Trazado 989531" d="M48.547,142.928a11.938,11.938,0,0,1,2-12.379,8.86,8.86,0,0,1,.731-6.938,19.241,19.241,0,0,1,4.457-5.368,11.5,11.5,0,0,1,1.122-2.9,8.487,8.487,0,0,0,.394,3.6A12.352,12.352,0,0,0,53.1,130.373,12.417,12.417,0,0,0,51.873,143.6,4.7,4.7,0,0,0,50.2,146.64a12.585,12.585,0,0,0,.02,7.337,9.635,9.635,0,0,0,5.378-6.8,4.577,4.577,0,0,0-.046-2.021,1.072,1.072,0,0,0,.483-.164c2.235-1.236,3.312-3.963,3.269-6.517a20.119,20.119,0,0,0-1.994-7.345,4.863,4.863,0,0,0,2.652-2.76,8.089,8.089,0,0,0,.431-3.874,12.221,12.221,0,0,0-1.832-5.24,6.11,6.11,0,0,0,1.674-4.145,10.965,10.965,0,0,0-.053-1.609,13.829,13.829,0,0,1,.657,3.969,4.646,4.646,0,0,1-.655,2.548,14.932,14.932,0,0,1,1.985,5.376,8.775,8.775,0,0,1-.879,5.695c-.328.578-.46,1.172-.773,1.757a22.889,22.889,0,0,1,.854,5.046,9.851,9.851,0,0,1-.126,2.395c-.452,2.26-2.073,4.077-3.632,5.775a8.258,8.258,0,0,1-1.336,4.47,23.964,23.964,0,0,1-2.932,3.622l-2.725,2.95a16.074,16.074,0,0,1-2.094-3.668,18.027,18.027,0,0,1-1.039-5.322,9.339,9.339,0,0,1,1.064-5.182" transform="translate(-47.479 -113.498)" fill="#1e0202"/>
                </g>
              </g>
            </g>
            <g id="Grupo_1103944" data-name="Grupo 1103944" transform="translate(9.435 50.046)" opacity="0.2" style="mix-blend-mode: overlay;isolation: isolate">
              <g id="Grupo_1103943" data-name="Grupo 1103943">
                <g id="Grupo_1103942" data-name="Grupo 1103942" clip-path="url(#clip-path-27)">
                  <path id="Trazado_989532" data-name="Trazado 989532" d="M51.823,275.445c.085-.173.174-.345.277-.513-.006-.016-.011-.032-.017-.047a68.566,68.566,0,0,0,9.431,2.788c-.118.129-.234.262-.351.39,0,.122,0,.245-.005.368a6.546,6.546,0,0,0-.8-.2,35.756,35.756,0,0,1-7.553-2.408,8.383,8.383,0,0,0-.986-.377" transform="translate(-51.823 -274.885)" fill="#1e0202"/>
                </g>
              </g>
            </g>
            <g id="Grupo_1103947" data-name="Grupo 1103947" transform="translate(15.836 25.042)" opacity="0.2" style="mix-blend-mode: overlay;isolation: isolate">
              <g id="Grupo_1103946" data-name="Grupo 1103946">
                <g id="Grupo_1103945" data-name="Grupo 1103945" clip-path="url(#clip-path-28)">
                  <path id="Trazado_989533" data-name="Trazado 989533" d="M92.76,140.8a13.636,13.636,0,0,0-3.847-1.7,7.181,7.181,0,0,0-1.929-.185q.517-.5,1.059-1c.03-.125.069-.244.1-.367a19.856,19.856,0,0,1,2.712,1.147l1.722.837c-.03.051-.054.106-.087.155.28.467.53.941.757,1.422q-.242-.16-.491-.309" transform="translate(-86.984 -137.545)" fill="#1e0202"/>
                </g>
              </g>
            </g>
            <g id="Grupo_1103950" data-name="Grupo 1103950" transform="translate(10.701 37.699)" opacity="0.2" style="mix-blend-mode: overlay;isolation: isolate">
              <g id="Grupo_1103949" data-name="Grupo 1103949">
                <g id="Grupo_1103948" data-name="Grupo 1103948" clip-path="url(#clip-path-29)">
                  <path id="Trazado_989534" data-name="Trazado 989534" d="M58.776,208.379a10.441,10.441,0,0,1,.951-1.228,17.438,17.438,0,0,1,10.1,2.086c-.023.048-.044.1-.069.143.117.414.225.839.322,1.269a10.52,10.52,0,0,0-11.3-2.27" transform="translate(-58.776 -207.07)" fill="#1e0202"/>
                </g>
              </g>
            </g>
            <path id="Trazado_989535" data-name="Trazado 989535" d="M86.339,156.067a9.336,9.336,0,0,1,2.283-2.377.159.159,0,0,1,.24.134,18.177,18.177,0,0,1-.682,2.977c-.278,1.034-.284,2.326-1.1,3.106a1.109,1.109,0,0,1-1.844-.458c-.43-1.2.425-2.438,1.1-3.383" transform="translate(-69.627 -125.69)" fill="#ffe9cf"/>
            <path id="Trazado_989536" data-name="Trazado 989536" d="M84.771,190.43a.644.644,0,0,1,.76.083,1.162,1.162,0,0,1,.291,1.1.768.768,0,0,1-1.483.019,1.162,1.162,0,0,1,.431-1.207" transform="translate(-68.961 -155.686)" fill="#ffe9cf"/>
            <path id="Trazado_989537" data-name="Trazado 989537" d="M70.761,214.154a.258.258,0,0,1,.247.173c.563,1.269-.294,3.222-.454,4.526-.137,1.113-.139,2.848-1.678,2.7a1.133,1.133,0,0,1-.823-.758c-.77-1.785.257-6.518,2.708-6.642" transform="translate(-55.458 -175.164)" fill="#ffe9cf"/>
          </g>
        </g>
      </g>
    </g>
  </g>
</svg>
